<?xml version="1.0" encoding="utf-8" standalone="no"?>
<!DOCTYPE svg PUBLIC "-//W3C//DTD SVG 1.1//EN"
  "http://www.w3.org/Graphics/SVG/1.1/DTD/svg11.dtd">
<svg height="345.6pt" version="1.1" viewBox="0 0 460.8 345.6" width="460.8pt" xmlns="http://www.w3.org/2000/svg" xmlns:xlink="http://www.w3.org/1999/xlink">
 <metadata>
  <rdf:RDF xmlns:cc="http://creativecommons.org/ns#" xmlns:dc="http://purl.org/dc/elements/1.1/" xmlns:rdf="http://www.w3.org/1999/02/22-rdf-syntax-ns#">
   <cc:Work>
    <dc:type rdf:resource="http://purl.org/dc/dcmitype/StillImage"/>
    <dc:date>2021-07-07T23:26:59.404254</dc:date>
    <dc:format>image/svg+xml</dc:format>
    <dc:creator>
     <cc:Agent>
      <dc:title>Matplotlib v3.4.2, https://matplotlib.org/</dc:title>
     </cc:Agent>
    </dc:creator>
   </cc:Work>
  </rdf:RDF>
 </metadata>
 <defs>
  <style type="text/css">*{stroke-linecap:butt;stroke-linejoin:round;}</style>
 </defs>
 <g id="figure_1">
  <g id="patch_1">
   <path d="M 0 345.6 
L 460.8 345.6 
L 460.8 0 
L 0 0 
z
" style="fill:#ffffff;"/>
  </g>
  <g id="axes_1">
   <g id="patch_2">
    <path d="M 57.6 307.584 
L 414.72 307.584 
L 414.72 41.472 
L 57.6 41.472 
z
" style="fill:#ffffff;"/>
   </g>
   <g id="matplotlib.axis_1">
    <g id="xtick_1">
     <g id="line2d_1">
      <defs>
       <path d="M 0 0 
L 0 3.5 
" id="m04db457b56" style="stroke:#000000;stroke-width:0.8;"/>
      </defs>
      <g>
       <use style="stroke:#000000;stroke-width:0.8;" x="73.832727" xlink:href="#m04db457b56" y="307.584"/>
      </g>
     </g>
     <g id="text_1">
      <!-- 0 -->
      <g transform="translate(70.651477 322.182437)scale(0.1 -0.1)">
       <defs>
        <path d="M 2034 4250 
Q 1547 4250 1301 3770 
Q 1056 3291 1056 2328 
Q 1056 1369 1301 889 
Q 1547 409 2034 409 
Q 2525 409 2770 889 
Q 3016 1369 3016 2328 
Q 3016 3291 2770 3770 
Q 2525 4250 2034 4250 
z
M 2034 4750 
Q 2819 4750 3233 4129 
Q 3647 3509 3647 2328 
Q 3647 1150 3233 529 
Q 2819 -91 2034 -91 
Q 1250 -91 836 529 
Q 422 1150 422 2328 
Q 422 3509 836 4129 
Q 1250 4750 2034 4750 
z
" id="DejaVuSans-30" transform="scale(0.015625)"/>
       </defs>
       <use xlink:href="#DejaVuSans-30"/>
      </g>
     </g>
    </g>
    <g id="xtick_2">
     <g id="line2d_2">
      <g>
       <use style="stroke:#000000;stroke-width:0.8;" x="128.122785" xlink:href="#m04db457b56" y="307.584"/>
      </g>
     </g>
     <g id="text_2">
      <!-- 50 -->
      <g transform="translate(121.760285 322.182437)scale(0.1 -0.1)">
       <defs>
        <path d="M 691 4666 
L 3169 4666 
L 3169 4134 
L 1269 4134 
L 1269 2991 
Q 1406 3038 1543 3061 
Q 1681 3084 1819 3084 
Q 2600 3084 3056 2656 
Q 3513 2228 3513 1497 
Q 3513 744 3044 326 
Q 2575 -91 1722 -91 
Q 1428 -91 1123 -41 
Q 819 9 494 109 
L 494 744 
Q 775 591 1075 516 
Q 1375 441 1709 441 
Q 2250 441 2565 725 
Q 2881 1009 2881 1497 
Q 2881 1984 2565 2268 
Q 2250 2553 1709 2553 
Q 1456 2553 1204 2497 
Q 953 2441 691 2322 
L 691 4666 
z
" id="DejaVuSans-35" transform="scale(0.015625)"/>
       </defs>
       <use xlink:href="#DejaVuSans-35"/>
       <use x="63.623047" xlink:href="#DejaVuSans-30"/>
      </g>
     </g>
    </g>
    <g id="xtick_3">
     <g id="line2d_3">
      <g>
       <use style="stroke:#000000;stroke-width:0.8;" x="182.412843" xlink:href="#m04db457b56" y="307.584"/>
      </g>
     </g>
     <g id="text_3">
      <!-- 100 -->
      <g transform="translate(172.869093 322.182437)scale(0.1 -0.1)">
       <defs>
        <path d="M 794 531 
L 1825 531 
L 1825 4091 
L 703 3866 
L 703 4441 
L 1819 4666 
L 2450 4666 
L 2450 531 
L 3481 531 
L 3481 0 
L 794 0 
L 794 531 
z
" id="DejaVuSans-31" transform="scale(0.015625)"/>
       </defs>
       <use xlink:href="#DejaVuSans-31"/>
       <use x="63.623047" xlink:href="#DejaVuSans-30"/>
       <use x="127.246094" xlink:href="#DejaVuSans-30"/>
      </g>
     </g>
    </g>
    <g id="xtick_4">
     <g id="line2d_4">
      <g>
       <use style="stroke:#000000;stroke-width:0.8;" x="236.702901" xlink:href="#m04db457b56" y="307.584"/>
      </g>
     </g>
     <g id="text_4">
      <!-- 150 -->
      <g transform="translate(227.159151 322.182437)scale(0.1 -0.1)">
       <use xlink:href="#DejaVuSans-31"/>
       <use x="63.623047" xlink:href="#DejaVuSans-35"/>
       <use x="127.246094" xlink:href="#DejaVuSans-30"/>
      </g>
     </g>
    </g>
    <g id="xtick_5">
     <g id="line2d_5">
      <g>
       <use style="stroke:#000000;stroke-width:0.8;" x="290.992958" xlink:href="#m04db457b56" y="307.584"/>
      </g>
     </g>
     <g id="text_5">
      <!-- 200 -->
      <g transform="translate(281.449208 322.182437)scale(0.1 -0.1)">
       <defs>
        <path d="M 1228 531 
L 3431 531 
L 3431 0 
L 469 0 
L 469 531 
Q 828 903 1448 1529 
Q 2069 2156 2228 2338 
Q 2531 2678 2651 2914 
Q 2772 3150 2772 3378 
Q 2772 3750 2511 3984 
Q 2250 4219 1831 4219 
Q 1534 4219 1204 4116 
Q 875 4013 500 3803 
L 500 4441 
Q 881 4594 1212 4672 
Q 1544 4750 1819 4750 
Q 2544 4750 2975 4387 
Q 3406 4025 3406 3419 
Q 3406 3131 3298 2873 
Q 3191 2616 2906 2266 
Q 2828 2175 2409 1742 
Q 1991 1309 1228 531 
z
" id="DejaVuSans-32" transform="scale(0.015625)"/>
       </defs>
       <use xlink:href="#DejaVuSans-32"/>
       <use x="63.623047" xlink:href="#DejaVuSans-30"/>
       <use x="127.246094" xlink:href="#DejaVuSans-30"/>
      </g>
     </g>
    </g>
    <g id="xtick_6">
     <g id="line2d_6">
      <g>
       <use style="stroke:#000000;stroke-width:0.8;" x="345.283016" xlink:href="#m04db457b56" y="307.584"/>
      </g>
     </g>
     <g id="text_6">
      <!-- 250 -->
      <g transform="translate(335.739266 322.182437)scale(0.1 -0.1)">
       <use xlink:href="#DejaVuSans-32"/>
       <use x="63.623047" xlink:href="#DejaVuSans-35"/>
       <use x="127.246094" xlink:href="#DejaVuSans-30"/>
      </g>
     </g>
    </g>
    <g id="xtick_7">
     <g id="line2d_7">
      <g>
       <use style="stroke:#000000;stroke-width:0.8;" x="399.573074" xlink:href="#m04db457b56" y="307.584"/>
      </g>
     </g>
     <g id="text_7">
      <!-- 300 -->
      <g transform="translate(390.029324 322.182437)scale(0.1 -0.1)">
       <defs>
        <path d="M 2597 2516 
Q 3050 2419 3304 2112 
Q 3559 1806 3559 1356 
Q 3559 666 3084 287 
Q 2609 -91 1734 -91 
Q 1441 -91 1130 -33 
Q 819 25 488 141 
L 488 750 
Q 750 597 1062 519 
Q 1375 441 1716 441 
Q 2309 441 2620 675 
Q 2931 909 2931 1356 
Q 2931 1769 2642 2001 
Q 2353 2234 1838 2234 
L 1294 2234 
L 1294 2753 
L 1863 2753 
Q 2328 2753 2575 2939 
Q 2822 3125 2822 3475 
Q 2822 3834 2567 4026 
Q 2313 4219 1838 4219 
Q 1578 4219 1281 4162 
Q 984 4106 628 3988 
L 628 4550 
Q 988 4650 1302 4700 
Q 1616 4750 1894 4750 
Q 2613 4750 3031 4423 
Q 3450 4097 3450 3541 
Q 3450 3153 3228 2886 
Q 3006 2619 2597 2516 
z
" id="DejaVuSans-33" transform="scale(0.015625)"/>
       </defs>
       <use xlink:href="#DejaVuSans-33"/>
       <use x="63.623047" xlink:href="#DejaVuSans-30"/>
       <use x="127.246094" xlink:href="#DejaVuSans-30"/>
      </g>
     </g>
    </g>
    <g id="text_8">
     <!-- Epoch -->
     <g transform="translate(220.849063 335.860562)scale(0.1 -0.1)">
      <defs>
       <path d="M 628 4666 
L 3578 4666 
L 3578 4134 
L 1259 4134 
L 1259 2753 
L 3481 2753 
L 3481 2222 
L 1259 2222 
L 1259 531 
L 3634 531 
L 3634 0 
L 628 0 
L 628 4666 
z
" id="DejaVuSans-45" transform="scale(0.015625)"/>
       <path d="M 1159 525 
L 1159 -1331 
L 581 -1331 
L 581 3500 
L 1159 3500 
L 1159 2969 
Q 1341 3281 1617 3432 
Q 1894 3584 2278 3584 
Q 2916 3584 3314 3078 
Q 3713 2572 3713 1747 
Q 3713 922 3314 415 
Q 2916 -91 2278 -91 
Q 1894 -91 1617 61 
Q 1341 213 1159 525 
z
M 3116 1747 
Q 3116 2381 2855 2742 
Q 2594 3103 2138 3103 
Q 1681 3103 1420 2742 
Q 1159 2381 1159 1747 
Q 1159 1113 1420 752 
Q 1681 391 2138 391 
Q 2594 391 2855 752 
Q 3116 1113 3116 1747 
z
" id="DejaVuSans-70" transform="scale(0.015625)"/>
       <path d="M 1959 3097 
Q 1497 3097 1228 2736 
Q 959 2375 959 1747 
Q 959 1119 1226 758 
Q 1494 397 1959 397 
Q 2419 397 2687 759 
Q 2956 1122 2956 1747 
Q 2956 2369 2687 2733 
Q 2419 3097 1959 3097 
z
M 1959 3584 
Q 2709 3584 3137 3096 
Q 3566 2609 3566 1747 
Q 3566 888 3137 398 
Q 2709 -91 1959 -91 
Q 1206 -91 779 398 
Q 353 888 353 1747 
Q 353 2609 779 3096 
Q 1206 3584 1959 3584 
z
" id="DejaVuSans-6f" transform="scale(0.015625)"/>
       <path d="M 3122 3366 
L 3122 2828 
Q 2878 2963 2633 3030 
Q 2388 3097 2138 3097 
Q 1578 3097 1268 2742 
Q 959 2388 959 1747 
Q 959 1106 1268 751 
Q 1578 397 2138 397 
Q 2388 397 2633 464 
Q 2878 531 3122 666 
L 3122 134 
Q 2881 22 2623 -34 
Q 2366 -91 2075 -91 
Q 1284 -91 818 406 
Q 353 903 353 1747 
Q 353 2603 823 3093 
Q 1294 3584 2113 3584 
Q 2378 3584 2631 3529 
Q 2884 3475 3122 3366 
z
" id="DejaVuSans-63" transform="scale(0.015625)"/>
       <path d="M 3513 2113 
L 3513 0 
L 2938 0 
L 2938 2094 
Q 2938 2591 2744 2837 
Q 2550 3084 2163 3084 
Q 1697 3084 1428 2787 
Q 1159 2491 1159 1978 
L 1159 0 
L 581 0 
L 581 4863 
L 1159 4863 
L 1159 2956 
Q 1366 3272 1645 3428 
Q 1925 3584 2291 3584 
Q 2894 3584 3203 3211 
Q 3513 2838 3513 2113 
z
" id="DejaVuSans-68" transform="scale(0.015625)"/>
      </defs>
      <use xlink:href="#DejaVuSans-45"/>
      <use x="63.183594" xlink:href="#DejaVuSans-70"/>
      <use x="126.660156" xlink:href="#DejaVuSans-6f"/>
      <use x="187.841797" xlink:href="#DejaVuSans-63"/>
      <use x="242.822266" xlink:href="#DejaVuSans-68"/>
     </g>
    </g>
   </g>
   <g id="matplotlib.axis_2">
    <g id="ytick_1">
     <g id="line2d_8">
      <defs>
       <path d="M 0 0 
L -3.5 0 
" id="m01853a7c0d" style="stroke:#000000;stroke-width:0.8;"/>
      </defs>
      <g>
       <use style="stroke:#000000;stroke-width:0.8;" x="57.6" xlink:href="#m01853a7c0d" y="296.720878"/>
      </g>
     </g>
     <g id="text_9">
      <!-- 0.0 -->
      <g transform="translate(34.696875 300.520096)scale(0.1 -0.1)">
       <defs>
        <path d="M 684 794 
L 1344 794 
L 1344 0 
L 684 0 
L 684 794 
z
" id="DejaVuSans-2e" transform="scale(0.015625)"/>
       </defs>
       <use xlink:href="#DejaVuSans-30"/>
       <use x="63.623047" xlink:href="#DejaVuSans-2e"/>
       <use x="95.410156" xlink:href="#DejaVuSans-30"/>
      </g>
     </g>
    </g>
    <g id="ytick_2">
     <g id="line2d_9">
      <g>
       <use style="stroke:#000000;stroke-width:0.8;" x="57.6" xlink:href="#m01853a7c0d" y="262.594362"/>
      </g>
     </g>
     <g id="text_10">
      <!-- 0.1 -->
      <g transform="translate(34.696875 266.39358)scale(0.1 -0.1)">
       <use xlink:href="#DejaVuSans-30"/>
       <use x="63.623047" xlink:href="#DejaVuSans-2e"/>
       <use x="95.410156" xlink:href="#DejaVuSans-31"/>
      </g>
     </g>
    </g>
    <g id="ytick_3">
     <g id="line2d_10">
      <g>
       <use style="stroke:#000000;stroke-width:0.8;" x="57.6" xlink:href="#m01853a7c0d" y="228.467846"/>
      </g>
     </g>
     <g id="text_11">
      <!-- 0.2 -->
      <g transform="translate(34.696875 232.267064)scale(0.1 -0.1)">
       <use xlink:href="#DejaVuSans-30"/>
       <use x="63.623047" xlink:href="#DejaVuSans-2e"/>
       <use x="95.410156" xlink:href="#DejaVuSans-32"/>
      </g>
     </g>
    </g>
    <g id="ytick_4">
     <g id="line2d_11">
      <g>
       <use style="stroke:#000000;stroke-width:0.8;" x="57.6" xlink:href="#m01853a7c0d" y="194.34133"/>
      </g>
     </g>
     <g id="text_12">
      <!-- 0.3 -->
      <g transform="translate(34.696875 198.140548)scale(0.1 -0.1)">
       <use xlink:href="#DejaVuSans-30"/>
       <use x="63.623047" xlink:href="#DejaVuSans-2e"/>
       <use x="95.410156" xlink:href="#DejaVuSans-33"/>
      </g>
     </g>
    </g>
    <g id="ytick_5">
     <g id="line2d_12">
      <g>
       <use style="stroke:#000000;stroke-width:0.8;" x="57.6" xlink:href="#m01853a7c0d" y="160.214814"/>
      </g>
     </g>
     <g id="text_13">
      <!-- 0.4 -->
      <g transform="translate(34.696875 164.014032)scale(0.1 -0.1)">
       <defs>
        <path d="M 2419 4116 
L 825 1625 
L 2419 1625 
L 2419 4116 
z
M 2253 4666 
L 3047 4666 
L 3047 1625 
L 3713 1625 
L 3713 1100 
L 3047 1100 
L 3047 0 
L 2419 0 
L 2419 1100 
L 313 1100 
L 313 1709 
L 2253 4666 
z
" id="DejaVuSans-34" transform="scale(0.015625)"/>
       </defs>
       <use xlink:href="#DejaVuSans-30"/>
       <use x="63.623047" xlink:href="#DejaVuSans-2e"/>
       <use x="95.410156" xlink:href="#DejaVuSans-34"/>
      </g>
     </g>
    </g>
    <g id="ytick_6">
     <g id="line2d_13">
      <g>
       <use style="stroke:#000000;stroke-width:0.8;" x="57.6" xlink:href="#m01853a7c0d" y="126.088298"/>
      </g>
     </g>
     <g id="text_14">
      <!-- 0.5 -->
      <g transform="translate(34.696875 129.887516)scale(0.1 -0.1)">
       <use xlink:href="#DejaVuSans-30"/>
       <use x="63.623047" xlink:href="#DejaVuSans-2e"/>
       <use x="95.410156" xlink:href="#DejaVuSans-35"/>
      </g>
     </g>
    </g>
    <g id="ytick_7">
     <g id="line2d_14">
      <g>
       <use style="stroke:#000000;stroke-width:0.8;" x="57.6" xlink:href="#m01853a7c0d" y="91.961782"/>
      </g>
     </g>
     <g id="text_15">
      <!-- 0.6 -->
      <g transform="translate(34.696875 95.761)scale(0.1 -0.1)">
       <defs>
        <path d="M 2113 2584 
Q 1688 2584 1439 2293 
Q 1191 2003 1191 1497 
Q 1191 994 1439 701 
Q 1688 409 2113 409 
Q 2538 409 2786 701 
Q 3034 994 3034 1497 
Q 3034 2003 2786 2293 
Q 2538 2584 2113 2584 
z
M 3366 4563 
L 3366 3988 
Q 3128 4100 2886 4159 
Q 2644 4219 2406 4219 
Q 1781 4219 1451 3797 
Q 1122 3375 1075 2522 
Q 1259 2794 1537 2939 
Q 1816 3084 2150 3084 
Q 2853 3084 3261 2657 
Q 3669 2231 3669 1497 
Q 3669 778 3244 343 
Q 2819 -91 2113 -91 
Q 1303 -91 875 529 
Q 447 1150 447 2328 
Q 447 3434 972 4092 
Q 1497 4750 2381 4750 
Q 2619 4750 2861 4703 
Q 3103 4656 3366 4563 
z
" id="DejaVuSans-36" transform="scale(0.015625)"/>
       </defs>
       <use xlink:href="#DejaVuSans-30"/>
       <use x="63.623047" xlink:href="#DejaVuSans-2e"/>
       <use x="95.410156" xlink:href="#DejaVuSans-36"/>
      </g>
     </g>
    </g>
    <g id="ytick_8">
     <g id="line2d_15">
      <g>
       <use style="stroke:#000000;stroke-width:0.8;" x="57.6" xlink:href="#m01853a7c0d" y="57.835266"/>
      </g>
     </g>
     <g id="text_16">
      <!-- 0.7 -->
      <g transform="translate(34.696875 61.634484)scale(0.1 -0.1)">
       <defs>
        <path d="M 525 4666 
L 3525 4666 
L 3525 4397 
L 1831 0 
L 1172 0 
L 2766 4134 
L 525 4134 
L 525 4666 
z
" id="DejaVuSans-37" transform="scale(0.015625)"/>
       </defs>
       <use xlink:href="#DejaVuSans-30"/>
       <use x="63.623047" xlink:href="#DejaVuSans-2e"/>
       <use x="95.410156" xlink:href="#DejaVuSans-37"/>
      </g>
     </g>
    </g>
    <g id="text_17">
     <!-- Error -->
     <g transform="translate(28.617188 186.713156)rotate(-90)scale(0.1 -0.1)">
      <defs>
       <path d="M 2631 2963 
Q 2534 3019 2420 3045 
Q 2306 3072 2169 3072 
Q 1681 3072 1420 2755 
Q 1159 2438 1159 1844 
L 1159 0 
L 581 0 
L 581 3500 
L 1159 3500 
L 1159 2956 
Q 1341 3275 1631 3429 
Q 1922 3584 2338 3584 
Q 2397 3584 2469 3576 
Q 2541 3569 2628 3553 
L 2631 2963 
z
" id="DejaVuSans-72" transform="scale(0.015625)"/>
      </defs>
      <use xlink:href="#DejaVuSans-45"/>
      <use x="63.183594" xlink:href="#DejaVuSans-72"/>
      <use x="102.546875" xlink:href="#DejaVuSans-72"/>
      <use x="141.410156" xlink:href="#DejaVuSans-6f"/>
      <use x="202.591797" xlink:href="#DejaVuSans-72"/>
     </g>
    </g>
   </g>
   <g id="line2d_16">
    <path clip-path="url(#p19dbb99f9f)" d="M 73.832727 63.874462 
L 78.175932 111.306314 
L 79.261733 122.435396 
L 80.347534 132.278795 
L 81.433335 140.617196 
L 82.519137 147.478628 
L 83.604938 153.138457 
L 84.690739 157.961363 
L 86.862341 166.207024 
L 90.119745 177.166972 
L 94.462949 191.556 
L 97.720353 203.180779 
L 100.977756 215.045346 
L 103.149358 222.312939 
L 105.320961 228.806803 
L 107.492563 234.58012 
L 109.664165 239.753936 
L 111.835768 244.437241 
L 114.00737 248.71294 
L 117.264773 254.495475 
L 120.522177 259.655374 
L 123.77958 264.278316 
L 127.036984 268.399936 
L 129.208586 270.861581 
L 131.380189 273.058251 
L 133.551791 274.976871 
L 135.723393 276.645419 
L 137.894995 278.106891 
L 141.152399 279.991163 
L 144.409802 281.58545 
L 147.667206 282.952381 
L 152.01041 284.495633 
L 156.353615 285.785328 
L 161.782621 287.117984 
L 167.211627 288.206304 
L 173.726434 289.263274 
L 181.327042 290.237061 
L 190.013451 291.101228 
L 199.785661 291.849538 
L 211.729474 292.543505 
L 226.93069 293.194879 
L 246.475111 293.792361 
L 271.448538 294.320649 
L 305.108373 294.796023 
L 351.797823 295.215788 
L 398.487273 295.488 
L 398.487273 295.488 
" style="fill:none;stroke:#0000ff;stroke-linecap:square;stroke-width:1.5;"/>
   </g>
   <g id="line2d_17">
    <path clip-path="url(#p19dbb99f9f)" d="M 73.832727 66.43634 
L 76.00433 82.023653 
L 78.175932 102.251644 
L 79.261733 112.249965 
L 80.347534 120.612476 
L 81.433335 127.136577 
L 82.519137 132.110252 
L 83.604938 135.905683 
L 84.690739 138.822414 
L 85.77654 141.110549 
L 86.862341 142.961914 
L 87.948142 144.506437 
L 90.119745 147.034115 
L 93.377148 150.558502 
L 95.54875 153.476064 
L 97.720353 157.123463 
L 99.891955 161.424962 
L 102.063557 166.283526 
L 109.664165 184.062203 
L 117.264773 201.615059 
L 128.122785 227.257282 
L 131.380189 234.000203 
L 133.551791 238.044489 
L 135.723393 241.741042 
L 137.894995 245.123992 
L 141.152399 249.683218 
L 144.409802 253.708472 
L 147.667206 257.278397 
L 150.924609 260.456888 
L 154.182013 263.295105 
L 157.439416 265.833957 
L 160.69682 268.106871 
L 163.954223 270.14219 
L 167.211627 271.964878 
L 171.554831 274.103147 
L 175.898036 275.951822 
L 180.24124 277.554025 
L 184.584445 278.947594 
L 190.013451 280.445357 
L 195.442457 281.720609 
L 201.957264 283.01609 
L 209.557872 284.273608 
L 218.244281 285.455288 
L 228.016491 286.540795 
L 238.874503 287.522738 
L 251.904117 288.473667 
L 267.105333 289.357612 
L 285.563953 290.201471 
L 308.365777 291.005429 
L 335.510806 291.73239 
L 369.170642 292.40699 
L 398.487273 292.858129 
L 398.487273 292.858129 
" style="fill:none;stroke:#ffa500;stroke-dasharray:5.55,2.4;stroke-dashoffset:0;stroke-width:1.5;"/>
   </g>
   <g id="line2d_18">
    <path clip-path="url(#p19dbb99f9f)" d="M 73.832727 66.983794 
L 74.918528 84.319582 
L 76.00433 97.855681 
L 77.090131 109.742151 
L 78.175932 120.150411 
L 79.261733 129.005528 
L 80.347534 136.46308 
L 81.433335 142.807265 
L 82.519137 148.320989 
L 84.690739 157.721244 
L 86.862341 165.788524 
L 89.033943 172.973112 
L 92.291347 182.759892 
L 97.720353 198.292778 
L 100.977756 206.870874 
L 104.23516 214.603562 
L 106.406762 219.314352 
L 108.578364 223.615594 
L 110.749967 227.438667 
L 112.921569 230.822145 
L 115.093171 233.870288 
L 118.350575 238.044364 
L 129.208586 251.203825 
L 133.551791 256.229987 
L 136.809194 259.68425 
L 140.066598 262.812965 
L 143.324001 265.625824 
L 146.581405 268.163063 
L 149.838808 270.469334 
L 153.096212 272.56794 
L 156.353615 274.452367 
L 159.611019 276.11146 
L 162.868422 277.555293 
L 167.211627 279.193522 
L 171.554831 280.569045 
L 176.983837 282.00668 
L 182.412843 283.206606 
L 188.92765 284.411027 
L 196.528258 285.573026 
L 205.214667 286.664264 
L 214.986877 287.671039 
L 226.93069 288.673241 
L 241.046105 289.63073 
L 258.418924 290.5797 
L 279.049146 291.478917 
L 302.936771 292.293851 
L 333.339203 293.090446 
L 373.513846 293.90694 
L 398.487273 294.324711 
L 398.487273 294.324711 
" style="fill:none;stroke:#0000ff;stroke-linecap:square;stroke-opacity:0.7;stroke-width:1.5;"/>
   </g>
   <g id="line2d_19">
    <path clip-path="url(#p19dbb99f9f)" d="M 73.832727 65.614476 
L 78.175932 111.514808 
L 79.261733 120.289405 
L 80.347534 126.351189 
L 81.433335 130.136118 
L 82.519137 132.433561 
L 83.604938 133.978806 
L 85.77654 136.602122 
L 86.862341 138.075087 
L 87.948142 139.736015 
L 89.033943 141.60121 
L 90.119745 143.689178 
L 91.205546 146.024803 
L 93.377148 151.505274 
L 95.54875 157.909969 
L 99.891955 171.041437 
L 102.063557 176.810988 
L 104.23516 181.852354 
L 106.406762 186.130634 
L 108.578364 189.69708 
L 110.749967 192.730142 
L 112.921569 195.425487 
L 116.178972 199.114928 
L 121.607978 205.178511 
L 123.77958 207.871798 
L 125.951183 210.822929 
L 129.208586 215.724962 
L 133.551791 222.814787 
L 138.980797 231.677 
L 142.2382 236.672966 
L 145.495604 241.325612 
L 148.753007 245.600536 
L 152.01041 249.469801 
L 155.267814 252.900996 
L 158.525217 255.880509 
L 161.782621 258.436475 
L 165.040024 260.626539 
L 168.297428 262.513629 
L 171.554831 264.15344 
L 175.898036 266.032789 
L 180.24124 267.636087 
L 184.584445 269.024202 
L 190.013451 270.523298 
L 196.528258 272.054939 
L 203.043065 273.362249 
L 210.643673 274.667785 
L 219.330082 275.932355 
L 229.102292 277.126684 
L 239.960304 278.231825 
L 252.989918 279.328604 
L 271.448538 280.628906 
L 301.85097 282.749977 
L 319.223788 284.209783 
L 337.682408 285.99504 
L 384.371858 290.645316 
L 398.487273 291.760723 
L 398.487273 291.760723 
" style="fill:none;stroke:#ffa500;stroke-dasharray:5.55,2.4;stroke-dashoffset:0;stroke-opacity:0.7;stroke-width:1.5;"/>
   </g>
   <g id="line2d_20">
    <path clip-path="url(#p19dbb99f9f)" d="M 73.832727 79.529071 
L 76.00433 105.979603 
L 77.090131 117.00579 
L 78.175932 125.98048 
L 79.261733 132.998243 
L 80.347534 138.490251 
L 81.433335 142.988998 
L 83.604938 150.689627 
L 87.948142 165.074899 
L 90.119745 171.679957 
L 92.291347 177.596623 
L 94.462949 182.872406 
L 97.720353 190.054149 
L 102.063557 199.557561 
L 104.23516 204.814591 
L 106.406762 210.676728 
L 109.664165 220.320215 
L 116.178972 240.030371 
L 118.350575 245.58522 
L 120.522177 250.299836 
L 122.693779 254.344305 
L 124.865382 257.864978 
L 127.036984 260.95492 
L 129.208586 263.676773 
L 131.380189 266.079377 
L 133.551791 268.204931 
L 135.723393 270.090954 
L 138.980797 272.541925 
L 142.2382 274.6203 
L 145.495604 276.399148 
L 148.753007 277.93524 
L 153.096212 279.680613 
L 157.439416 281.151012 
L 161.782621 282.404492 
L 167.211627 283.731172 
L 173.726434 285.05037 
L 180.24124 286.142145 
L 187.841849 287.197669 
L 196.528258 288.185673 
L 207.386269 289.177508 
L 219.330082 290.040713 
L 233.445497 290.841678 
L 250.818316 291.601075 
L 272.534339 292.31528 
L 299.679368 292.971649 
L 334.425005 293.574411 
L 378.942852 294.114233 
L 398.487273 294.297494 
L 398.487273 294.297494 
" style="fill:none;stroke:#0000ff;stroke-linecap:square;stroke-opacity:0.7;stroke-width:1.5;"/>
   </g>
   <g id="line2d_21">
    <path clip-path="url(#p19dbb99f9f)" d="M 73.832727 74.416387 
L 76.00433 95.253155 
L 77.090131 104.382786 
L 78.175932 112.106297 
L 79.261733 118.343752 
L 80.347534 123.307522 
L 81.433335 127.33262 
L 82.519137 130.701434 
L 83.604938 133.583991 
L 84.690739 136.085389 
L 86.862341 140.331531 
L 89.033943 144.072859 
L 92.291347 149.144221 
L 97.720353 156.822182 
L 102.063557 163.201162 
L 104.23516 166.641552 
L 106.406762 170.43187 
L 108.578364 174.846468 
L 109.664165 177.396079 
L 110.749967 180.23054 
L 111.835768 183.391882 
L 114.00737 190.695188 
L 117.264773 202.282821 
L 119.436376 208.961527 
L 121.607978 214.815554 
L 124.865382 222.707511 
L 128.122785 229.848061 
L 131.380189 236.253851 
L 133.551791 240.105743 
L 135.723393 243.632814 
L 137.894995 246.855015 
L 140.066598 249.797117 
L 143.324001 253.741822 
L 146.581405 257.197946 
L 149.838808 260.238713 
L 153.096212 262.926065 
L 156.353615 265.311635 
L 159.611019 267.438287 
L 162.868422 269.34164 
L 167.211627 271.582711 
L 171.554831 273.536514 
L 175.898036 275.248798 
L 181.327042 277.104857 
L 186.756047 278.697594 
L 192.185053 280.071819 
L 198.69986 281.482416 
L 205.214667 282.679149 
L 212.815275 283.85717 
L 221.501684 284.975358 
L 231.273895 286.008959 
L 243.217708 287.031224 
L 257.333123 287.992086 
L 273.62014 288.866939 
L 293.164561 289.689445 
L 317.052186 290.467952 
L 347.454618 291.222622 
L 385.457659 291.929313 
L 398.487273 292.129343 
L 398.487273 292.129343 
" style="fill:none;stroke:#ffa500;stroke-dasharray:5.55,2.4;stroke-dashoffset:0;stroke-opacity:0.7;stroke-width:1.5;"/>
   </g>
   <g id="line2d_22">
    <path clip-path="url(#p19dbb99f9f)" d="M 73.832727 70.733509 
L 74.918528 81.07333 
L 76.00433 93.301399 
L 78.175932 120.676096 
L 79.261733 132.30933 
L 80.347534 141.347384 
L 81.433335 148.150995 
L 82.519137 153.47291 
L 84.690739 162.0205 
L 87.948142 173.375787 
L 91.205546 183.839369 
L 94.462949 193.868054 
L 96.634552 201.179243 
L 100.977756 216.08093 
L 103.149358 222.688369 
L 106.406762 231.836299 
L 109.664165 240.229757 
L 111.835768 245.309285 
L 114.00737 249.969343 
L 116.178972 254.238023 
L 118.350575 258.140399 
L 120.522177 261.690383 
L 122.693779 264.893075 
L 124.865382 267.752621 
L 127.036984 270.28109 
L 129.208586 272.50217 
L 131.380189 274.448223 
L 133.551791 276.154736 
L 135.723393 277.65591 
L 138.980797 279.588458 
L 142.2382 281.212181 
L 145.495604 282.59246 
L 149.838808 284.137585 
L 154.182013 285.421074 
L 159.611019 286.745808 
L 165.040024 287.832595 
L 171.554831 288.898404 
L 179.155439 289.894073 
L 187.841849 290.791194 
L 197.614059 291.578723 
L 209.557872 292.317042 
L 224.759088 293.015378 
L 243.217708 293.628224 
L 267.105333 294.185533 
L 298.593566 294.682178 
L 340.939811 295.115244 
L 398.487273 295.480957 
L 398.487273 295.480957 
" style="fill:none;stroke:#0000ff;stroke-linecap:square;stroke-opacity:0.7;stroke-width:1.5;"/>
   </g>
   <g id="line2d_23">
    <path clip-path="url(#p19dbb99f9f)" d="M 73.832727 53.568 
L 74.918528 59.037597 
L 77.090131 68.684443 
L 78.175932 74.596302 
L 79.261733 82.381817 
L 80.347534 91.000299 
L 81.433335 98.250209 
L 82.519137 103.404688 
L 83.604938 107.065003 
L 84.690739 109.866162 
L 89.033943 119.295333 
L 91.205546 125.056217 
L 93.377148 131.579588 
L 95.54875 138.827293 
L 99.891955 153.959218 
L 102.063557 160.845194 
L 110.749967 186.818549 
L 118.350575 209.454802 
L 123.77958 225.759711 
L 125.951183 231.665076 
L 128.122785 236.977299 
L 130.294387 241.663645 
L 132.46599 245.76154 
L 134.637592 249.340334 
L 136.809194 252.475539 
L 138.980797 255.236636 
L 141.152399 257.683146 
L 143.324001 259.864479 
L 146.581405 262.725811 
L 149.838808 265.186835 
L 153.096212 267.326952 
L 156.353615 269.205733 
L 159.611019 270.868472 
L 163.954223 272.808686 
L 168.297428 274.489044 
L 172.640632 275.95639 
L 178.069638 277.54494 
L 183.498644 278.910039 
L 190.013451 280.31042 
L 197.614059 281.683494 
L 205.214667 282.836202 
L 213.901076 283.943836 
L 224.759088 285.087498 
L 236.702901 286.113821 
L 250.818316 287.097445 
L 267.105333 288.009094 
L 286.649754 288.879062 
L 310.537379 289.711901 
L 339.85401 290.499555 
L 375.685448 291.230649 
L 398.487273 291.604011 
L 398.487273 291.604011 
" style="fill:none;stroke:#ffa500;stroke-dasharray:5.55,2.4;stroke-dashoffset:0;stroke-opacity:0.7;stroke-width:1.5;"/>
   </g>
   <g id="line2d_24">
    <path clip-path="url(#p19dbb99f9f)" d="M 73.832727 66.485773 
L 76.00433 92.046868 
L 78.175932 120.768849 
L 79.261733 132.240763 
L 80.347534 140.853899 
L 81.433335 147.191064 
L 82.519137 151.956471 
L 83.604938 155.693832 
L 84.690739 158.785824 
L 87.948142 166.669048 
L 91.205546 174.908314 
L 94.462949 182.989755 
L 106.406762 211.711187 
L 110.749967 222.403932 
L 116.178972 235.047761 
L 120.522177 244.701996 
L 123.77958 251.461571 
L 125.951183 255.57845 
L 128.122785 259.291432 
L 130.294387 262.577506 
L 132.46599 265.456403 
L 134.637592 267.969142 
L 136.809194 270.163185 
L 138.980797 272.084833 
L 141.152399 273.775857 
L 144.409802 275.957377 
L 147.667206 277.798437 
L 150.924609 279.373603 
L 154.182013 280.738815 
L 158.525217 282.303283 
L 162.868422 283.638524 
L 168.297428 285.054833 
L 173.726434 286.243659 
L 180.24124 287.428328 
L 187.841849 288.551851 
L 196.528258 289.584527 
L 206.300468 290.515074 
L 218.244281 291.414174 
L 232.359696 292.234504 
L 248.646713 292.948832 
L 268.191134 293.579088 
L 293.164561 294.149947 
L 325.738595 294.655716 
L 369.170642 295.094699 
L 398.487273 295.30234 
L 398.487273 295.30234 
" style="fill:none;stroke:#0000ff;stroke-linecap:square;stroke-opacity:0.7;stroke-width:1.5;"/>
   </g>
   <g id="line2d_25">
    <path clip-path="url(#p19dbb99f9f)" d="M 73.832727 59.421944 
L 74.918528 63.423554 
L 76.00433 69.050863 
L 78.175932 83.567693 
L 79.261733 88.82174 
L 80.347534 91.693151 
L 81.433335 93.017083 
L 83.604938 94.331124 
L 85.77654 95.685757 
L 87.948142 97.329234 
L 90.119745 99.096861 
L 91.205546 99.791322 
L 92.291347 100.245088 
L 93.377148 100.46515 
L 96.634552 100.665414 
L 97.720353 101.018705 
L 98.806154 101.698877 
L 99.891955 102.753736 
L 100.977756 104.195398 
L 102.063557 106.016751 
L 103.149358 108.202428 
L 104.23516 110.730661 
L 106.406762 116.676785 
L 108.578364 123.509898 
L 110.749967 130.979017 
L 112.921569 139.114467 
L 115.093171 148.115332 
L 117.264773 158.083836 
L 120.522177 174.455524 
L 124.865382 196.556083 
L 127.036984 206.515582 
L 129.208586 215.319292 
L 131.380189 222.941063 
L 133.551791 229.486313 
L 135.723393 235.105413 
L 137.894995 239.949437 
L 140.066598 244.152916 
L 142.2382 247.829237 
L 144.409802 251.071292 
L 146.581405 253.95404 
L 148.753007 256.537507 
L 150.924609 258.869593 
L 154.182013 261.977675 
L 157.439416 264.701688 
L 160.69682 267.110527 
L 163.954223 269.252801 
L 167.211627 271.16345 
L 170.46903 272.869243 
L 174.812235 274.863877 
L 179.155439 276.583272 
L 183.498644 278.071714 
L 188.92765 279.665504 
L 194.356656 281.019266 
L 200.871462 282.392801 
L 208.472071 283.725142 
L 216.072679 284.833076 
L 224.759088 285.88869 
L 235.617099 286.96905 
L 247.560912 287.92958 
L 261.676327 288.841275 
L 279.049146 289.726761 
L 299.679368 290.542875 
L 324.652794 291.299351 
L 356.141028 292.015132 
L 395.229869 292.667735 
L 398.487273 292.713577 
L 398.487273 292.713577 
" style="fill:none;stroke:#ffa500;stroke-dasharray:5.55,2.4;stroke-dashoffset:0;stroke-opacity:0.7;stroke-width:1.5;"/>
   </g>
   <g id="patch_3">
    <path d="M 57.6 307.584 
L 57.6 41.472 
" style="fill:none;stroke:#000000;stroke-linecap:square;stroke-linejoin:miter;stroke-width:0.8;"/>
   </g>
   <g id="patch_4">
    <path d="M 414.72 307.584 
L 414.72 41.472 
" style="fill:none;stroke:#000000;stroke-linecap:square;stroke-linejoin:miter;stroke-width:0.8;"/>
   </g>
   <g id="patch_5">
    <path d="M 57.6 307.584 
L 414.72 307.584 
" style="fill:none;stroke:#000000;stroke-linecap:square;stroke-linejoin:miter;stroke-width:0.8;"/>
   </g>
   <g id="patch_6">
    <path d="M 57.6 41.472 
L 414.72 41.472 
" style="fill:none;stroke:#000000;stroke-linecap:square;stroke-linejoin:miter;stroke-width:0.8;"/>
   </g>
   <g id="text_18">
    <!-- Cross Entropy -->
    <g transform="translate(194.500313 35.472)scale(0.12 -0.12)">
     <defs>
      <path d="M 4122 4306 
L 4122 3641 
Q 3803 3938 3442 4084 
Q 3081 4231 2675 4231 
Q 1875 4231 1450 3742 
Q 1025 3253 1025 2328 
Q 1025 1406 1450 917 
Q 1875 428 2675 428 
Q 3081 428 3442 575 
Q 3803 722 4122 1019 
L 4122 359 
Q 3791 134 3420 21 
Q 3050 -91 2638 -91 
Q 1578 -91 968 557 
Q 359 1206 359 2328 
Q 359 3453 968 4101 
Q 1578 4750 2638 4750 
Q 3056 4750 3426 4639 
Q 3797 4528 4122 4306 
z
" id="DejaVuSans-43" transform="scale(0.015625)"/>
      <path d="M 2834 3397 
L 2834 2853 
Q 2591 2978 2328 3040 
Q 2066 3103 1784 3103 
Q 1356 3103 1142 2972 
Q 928 2841 928 2578 
Q 928 2378 1081 2264 
Q 1234 2150 1697 2047 
L 1894 2003 
Q 2506 1872 2764 1633 
Q 3022 1394 3022 966 
Q 3022 478 2636 193 
Q 2250 -91 1575 -91 
Q 1294 -91 989 -36 
Q 684 19 347 128 
L 347 722 
Q 666 556 975 473 
Q 1284 391 1588 391 
Q 1994 391 2212 530 
Q 2431 669 2431 922 
Q 2431 1156 2273 1281 
Q 2116 1406 1581 1522 
L 1381 1569 
Q 847 1681 609 1914 
Q 372 2147 372 2553 
Q 372 3047 722 3315 
Q 1072 3584 1716 3584 
Q 2034 3584 2315 3537 
Q 2597 3491 2834 3397 
z
" id="DejaVuSans-73" transform="scale(0.015625)"/>
      <path id="DejaVuSans-20" transform="scale(0.015625)"/>
      <path d="M 3513 2113 
L 3513 0 
L 2938 0 
L 2938 2094 
Q 2938 2591 2744 2837 
Q 2550 3084 2163 3084 
Q 1697 3084 1428 2787 
Q 1159 2491 1159 1978 
L 1159 0 
L 581 0 
L 581 3500 
L 1159 3500 
L 1159 2956 
Q 1366 3272 1645 3428 
Q 1925 3584 2291 3584 
Q 2894 3584 3203 3211 
Q 3513 2838 3513 2113 
z
" id="DejaVuSans-6e" transform="scale(0.015625)"/>
      <path d="M 1172 4494 
L 1172 3500 
L 2356 3500 
L 2356 3053 
L 1172 3053 
L 1172 1153 
Q 1172 725 1289 603 
Q 1406 481 1766 481 
L 2356 481 
L 2356 0 
L 1766 0 
Q 1100 0 847 248 
Q 594 497 594 1153 
L 594 3053 
L 172 3053 
L 172 3500 
L 594 3500 
L 594 4494 
L 1172 4494 
z
" id="DejaVuSans-74" transform="scale(0.015625)"/>
      <path d="M 2059 -325 
Q 1816 -950 1584 -1140 
Q 1353 -1331 966 -1331 
L 506 -1331 
L 506 -850 
L 844 -850 
Q 1081 -850 1212 -737 
Q 1344 -625 1503 -206 
L 1606 56 
L 191 3500 
L 800 3500 
L 1894 763 
L 2988 3500 
L 3597 3500 
L 2059 -325 
z
" id="DejaVuSans-79" transform="scale(0.015625)"/>
     </defs>
     <use xlink:href="#DejaVuSans-43"/>
     <use x="69.824219" xlink:href="#DejaVuSans-72"/>
     <use x="108.6875" xlink:href="#DejaVuSans-6f"/>
     <use x="169.869141" xlink:href="#DejaVuSans-73"/>
     <use x="221.96875" xlink:href="#DejaVuSans-73"/>
     <use x="274.068359" xlink:href="#DejaVuSans-20"/>
     <use x="305.855469" xlink:href="#DejaVuSans-45"/>
     <use x="369.039062" xlink:href="#DejaVuSans-6e"/>
     <use x="432.417969" xlink:href="#DejaVuSans-74"/>
     <use x="471.626953" xlink:href="#DejaVuSans-72"/>
     <use x="510.490234" xlink:href="#DejaVuSans-6f"/>
     <use x="571.671875" xlink:href="#DejaVuSans-70"/>
     <use x="635.148438" xlink:href="#DejaVuSans-79"/>
    </g>
   </g>
   <g id="legend_1">
    <g id="patch_7">
     <path d="M 298.955938 78.82825 
L 407.72 78.82825 
Q 409.72 78.82825 409.72 76.82825 
L 409.72 48.472 
Q 409.72 46.472 407.72 46.472 
L 298.955938 46.472 
Q 296.955938 46.472 296.955938 48.472 
L 296.955938 76.82825 
Q 296.955938 78.82825 298.955938 78.82825 
z
" style="fill:#ffffff;opacity:0.8;stroke:#cccccc;stroke-linejoin:miter;"/>
    </g>
    <g id="line2d_26">
     <path d="M 300.955938 54.570437 
L 320.955938 54.570437 
" style="fill:none;stroke:#0000ff;stroke-linecap:square;stroke-width:1.5;"/>
    </g>
    <g id="line2d_27"/>
    <g id="text_19">
     <!-- Training error -->
     <g transform="translate(328.955938 58.070437)scale(0.1 -0.1)">
      <defs>
       <path d="M -19 4666 
L 3928 4666 
L 3928 4134 
L 2272 4134 
L 2272 0 
L 1638 0 
L 1638 4134 
L -19 4134 
L -19 4666 
z
" id="DejaVuSans-54" transform="scale(0.015625)"/>
       <path d="M 2194 1759 
Q 1497 1759 1228 1600 
Q 959 1441 959 1056 
Q 959 750 1161 570 
Q 1363 391 1709 391 
Q 2188 391 2477 730 
Q 2766 1069 2766 1631 
L 2766 1759 
L 2194 1759 
z
M 3341 1997 
L 3341 0 
L 2766 0 
L 2766 531 
Q 2569 213 2275 61 
Q 1981 -91 1556 -91 
Q 1019 -91 701 211 
Q 384 513 384 1019 
Q 384 1609 779 1909 
Q 1175 2209 1959 2209 
L 2766 2209 
L 2766 2266 
Q 2766 2663 2505 2880 
Q 2244 3097 1772 3097 
Q 1472 3097 1187 3025 
Q 903 2953 641 2809 
L 641 3341 
Q 956 3463 1253 3523 
Q 1550 3584 1831 3584 
Q 2591 3584 2966 3190 
Q 3341 2797 3341 1997 
z
" id="DejaVuSans-61" transform="scale(0.015625)"/>
       <path d="M 603 3500 
L 1178 3500 
L 1178 0 
L 603 0 
L 603 3500 
z
M 603 4863 
L 1178 4863 
L 1178 4134 
L 603 4134 
L 603 4863 
z
" id="DejaVuSans-69" transform="scale(0.015625)"/>
       <path d="M 2906 1791 
Q 2906 2416 2648 2759 
Q 2391 3103 1925 3103 
Q 1463 3103 1205 2759 
Q 947 2416 947 1791 
Q 947 1169 1205 825 
Q 1463 481 1925 481 
Q 2391 481 2648 825 
Q 2906 1169 2906 1791 
z
M 3481 434 
Q 3481 -459 3084 -895 
Q 2688 -1331 1869 -1331 
Q 1566 -1331 1297 -1286 
Q 1028 -1241 775 -1147 
L 775 -588 
Q 1028 -725 1275 -790 
Q 1522 -856 1778 -856 
Q 2344 -856 2625 -561 
Q 2906 -266 2906 331 
L 2906 616 
Q 2728 306 2450 153 
Q 2172 0 1784 0 
Q 1141 0 747 490 
Q 353 981 353 1791 
Q 353 2603 747 3093 
Q 1141 3584 1784 3584 
Q 2172 3584 2450 3431 
Q 2728 3278 2906 2969 
L 2906 3500 
L 3481 3500 
L 3481 434 
z
" id="DejaVuSans-67" transform="scale(0.015625)"/>
       <path d="M 3597 1894 
L 3597 1613 
L 953 1613 
Q 991 1019 1311 708 
Q 1631 397 2203 397 
Q 2534 397 2845 478 
Q 3156 559 3463 722 
L 3463 178 
Q 3153 47 2828 -22 
Q 2503 -91 2169 -91 
Q 1331 -91 842 396 
Q 353 884 353 1716 
Q 353 2575 817 3079 
Q 1281 3584 2069 3584 
Q 2775 3584 3186 3129 
Q 3597 2675 3597 1894 
z
M 3022 2063 
Q 3016 2534 2758 2815 
Q 2500 3097 2075 3097 
Q 1594 3097 1305 2825 
Q 1016 2553 972 2059 
L 3022 2063 
z
" id="DejaVuSans-65" transform="scale(0.015625)"/>
      </defs>
      <use xlink:href="#DejaVuSans-54"/>
      <use x="46.333984" xlink:href="#DejaVuSans-72"/>
      <use x="87.447266" xlink:href="#DejaVuSans-61"/>
      <use x="148.726562" xlink:href="#DejaVuSans-69"/>
      <use x="176.509766" xlink:href="#DejaVuSans-6e"/>
      <use x="239.888672" xlink:href="#DejaVuSans-69"/>
      <use x="267.671875" xlink:href="#DejaVuSans-6e"/>
      <use x="331.050781" xlink:href="#DejaVuSans-67"/>
      <use x="394.527344" xlink:href="#DejaVuSans-20"/>
      <use x="426.314453" xlink:href="#DejaVuSans-65"/>
      <use x="487.837891" xlink:href="#DejaVuSans-72"/>
      <use x="527.201172" xlink:href="#DejaVuSans-72"/>
      <use x="566.064453" xlink:href="#DejaVuSans-6f"/>
      <use x="627.246094" xlink:href="#DejaVuSans-72"/>
     </g>
    </g>
    <g id="line2d_28">
     <path d="M 300.955938 69.248562 
L 320.955938 69.248562 
" style="fill:none;stroke:#ffa500;stroke-dasharray:5.55,2.4;stroke-dashoffset:0;stroke-width:1.5;"/>
    </g>
    <g id="line2d_29"/>
    <g id="text_20">
     <!-- Validation error -->
     <g transform="translate(328.955938 72.748562)scale(0.1 -0.1)">
      <defs>
       <path d="M 1831 0 
L 50 4666 
L 709 4666 
L 2188 738 
L 3669 4666 
L 4325 4666 
L 2547 0 
L 1831 0 
z
" id="DejaVuSans-56" transform="scale(0.015625)"/>
       <path d="M 603 4863 
L 1178 4863 
L 1178 0 
L 603 0 
L 603 4863 
z
" id="DejaVuSans-6c" transform="scale(0.015625)"/>
       <path d="M 2906 2969 
L 2906 4863 
L 3481 4863 
L 3481 0 
L 2906 0 
L 2906 525 
Q 2725 213 2448 61 
Q 2172 -91 1784 -91 
Q 1150 -91 751 415 
Q 353 922 353 1747 
Q 353 2572 751 3078 
Q 1150 3584 1784 3584 
Q 2172 3584 2448 3432 
Q 2725 3281 2906 2969 
z
M 947 1747 
Q 947 1113 1208 752 
Q 1469 391 1925 391 
Q 2381 391 2643 752 
Q 2906 1113 2906 1747 
Q 2906 2381 2643 2742 
Q 2381 3103 1925 3103 
Q 1469 3103 1208 2742 
Q 947 2381 947 1747 
z
" id="DejaVuSans-64" transform="scale(0.015625)"/>
      </defs>
      <use xlink:href="#DejaVuSans-56"/>
      <use x="60.658203" xlink:href="#DejaVuSans-61"/>
      <use x="121.9375" xlink:href="#DejaVuSans-6c"/>
      <use x="149.720703" xlink:href="#DejaVuSans-69"/>
      <use x="177.503906" xlink:href="#DejaVuSans-64"/>
      <use x="240.980469" xlink:href="#DejaVuSans-61"/>
      <use x="302.259766" xlink:href="#DejaVuSans-74"/>
      <use x="341.46875" xlink:href="#DejaVuSans-69"/>
      <use x="369.251953" xlink:href="#DejaVuSans-6f"/>
      <use x="430.433594" xlink:href="#DejaVuSans-6e"/>
      <use x="493.8125" xlink:href="#DejaVuSans-20"/>
      <use x="525.599609" xlink:href="#DejaVuSans-65"/>
      <use x="587.123047" xlink:href="#DejaVuSans-72"/>
      <use x="626.486328" xlink:href="#DejaVuSans-72"/>
      <use x="665.349609" xlink:href="#DejaVuSans-6f"/>
      <use x="726.53125" xlink:href="#DejaVuSans-72"/>
     </g>
    </g>
   </g>
  </g>
 </g>
 <defs>
  <clipPath id="p19dbb99f9f">
   <rect height="266.112" width="357.12" x="57.6" y="41.472"/>
  </clipPath>
 </defs>
</svg>
