<?xml version="1.0" encoding="utf-8" standalone="no"?>
<!DOCTYPE svg PUBLIC "-//W3C//DTD SVG 1.1//EN"
  "http://www.w3.org/Graphics/SVG/1.1/DTD/svg11.dtd">
<svg height="345.6pt" version="1.1" viewBox="0 0 460.8 345.6" width="460.8pt" xmlns="http://www.w3.org/2000/svg" xmlns:xlink="http://www.w3.org/1999/xlink">
 <metadata>
  <rdf:RDF xmlns:cc="http://creativecommons.org/ns#" xmlns:dc="http://purl.org/dc/elements/1.1/" xmlns:rdf="http://www.w3.org/1999/02/22-rdf-syntax-ns#">
   <cc:Work>
    <dc:type rdf:resource="http://purl.org/dc/dcmitype/StillImage"/>
    <dc:date>2021-07-07T23:53:34.694712</dc:date>
    <dc:format>image/svg+xml</dc:format>
    <dc:creator>
     <cc:Agent>
      <dc:title>Matplotlib v3.4.2, https://matplotlib.org/</dc:title>
     </cc:Agent>
    </dc:creator>
   </cc:Work>
  </rdf:RDF>
 </metadata>
 <defs>
  <style type="text/css">*{stroke-linecap:butt;stroke-linejoin:round;}</style>
 </defs>
 <g id="figure_1">
  <g id="patch_1">
   <path d="M 0 345.6 
L 460.8 345.6 
L 460.8 0 
L 0 0 
z
" style="fill:#ffffff;"/>
  </g>
  <g id="axes_1">
   <g id="patch_2">
    <path d="M 57.6 307.584 
L 414.72 307.584 
L 414.72 41.472 
L 57.6 41.472 
z
" style="fill:#ffffff;"/>
   </g>
   <g id="matplotlib.axis_1">
    <g id="xtick_1">
     <g id="line2d_1">
      <defs>
       <path d="M 0 0 
L 0 3.5 
" id="mb867ecfbe9" style="stroke:#000000;stroke-width:0.8;"/>
      </defs>
      <g>
       <use style="stroke:#000000;stroke-width:0.8;" x="73.832727" xlink:href="#mb867ecfbe9" y="307.584"/>
      </g>
     </g>
     <g id="text_1">
      <!-- 0 -->
      <g transform="translate(70.651477 322.182437)scale(0.1 -0.1)">
       <defs>
        <path d="M 2034 4250 
Q 1547 4250 1301 3770 
Q 1056 3291 1056 2328 
Q 1056 1369 1301 889 
Q 1547 409 2034 409 
Q 2525 409 2770 889 
Q 3016 1369 3016 2328 
Q 3016 3291 2770 3770 
Q 2525 4250 2034 4250 
z
M 2034 4750 
Q 2819 4750 3233 4129 
Q 3647 3509 3647 2328 
Q 3647 1150 3233 529 
Q 2819 -91 2034 -91 
Q 1250 -91 836 529 
Q 422 1150 422 2328 
Q 422 3509 836 4129 
Q 1250 4750 2034 4750 
z
" id="DejaVuSans-30" transform="scale(0.015625)"/>
       </defs>
       <use xlink:href="#DejaVuSans-30"/>
      </g>
     </g>
    </g>
    <g id="xtick_2">
     <g id="line2d_2">
      <g>
       <use style="stroke:#000000;stroke-width:0.8;" x="128.304966" xlink:href="#mb867ecfbe9" y="307.584"/>
      </g>
     </g>
     <g id="text_2">
      <!-- 50 -->
      <g transform="translate(121.942466 322.182437)scale(0.1 -0.1)">
       <defs>
        <path d="M 691 4666 
L 3169 4666 
L 3169 4134 
L 1269 4134 
L 1269 2991 
Q 1406 3038 1543 3061 
Q 1681 3084 1819 3084 
Q 2600 3084 3056 2656 
Q 3513 2228 3513 1497 
Q 3513 744 3044 326 
Q 2575 -91 1722 -91 
Q 1428 -91 1123 -41 
Q 819 9 494 109 
L 494 744 
Q 775 591 1075 516 
Q 1375 441 1709 441 
Q 2250 441 2565 725 
Q 2881 1009 2881 1497 
Q 2881 1984 2565 2268 
Q 2250 2553 1709 2553 
Q 1456 2553 1204 2497 
Q 953 2441 691 2322 
L 691 4666 
z
" id="DejaVuSans-35" transform="scale(0.015625)"/>
       </defs>
       <use xlink:href="#DejaVuSans-35"/>
       <use x="63.623047" xlink:href="#DejaVuSans-30"/>
      </g>
     </g>
    </g>
    <g id="xtick_3">
     <g id="line2d_3">
      <g>
       <use style="stroke:#000000;stroke-width:0.8;" x="182.777206" xlink:href="#mb867ecfbe9" y="307.584"/>
      </g>
     </g>
     <g id="text_3">
      <!-- 100 -->
      <g transform="translate(173.233456 322.182437)scale(0.1 -0.1)">
       <defs>
        <path d="M 794 531 
L 1825 531 
L 1825 4091 
L 703 3866 
L 703 4441 
L 1819 4666 
L 2450 4666 
L 2450 531 
L 3481 531 
L 3481 0 
L 794 0 
L 794 531 
z
" id="DejaVuSans-31" transform="scale(0.015625)"/>
       </defs>
       <use xlink:href="#DejaVuSans-31"/>
       <use x="63.623047" xlink:href="#DejaVuSans-30"/>
       <use x="127.246094" xlink:href="#DejaVuSans-30"/>
      </g>
     </g>
    </g>
    <g id="xtick_4">
     <g id="line2d_4">
      <g>
       <use style="stroke:#000000;stroke-width:0.8;" x="237.249445" xlink:href="#mb867ecfbe9" y="307.584"/>
      </g>
     </g>
     <g id="text_4">
      <!-- 150 -->
      <g transform="translate(227.705695 322.182437)scale(0.1 -0.1)">
       <use xlink:href="#DejaVuSans-31"/>
       <use x="63.623047" xlink:href="#DejaVuSans-35"/>
       <use x="127.246094" xlink:href="#DejaVuSans-30"/>
      </g>
     </g>
    </g>
    <g id="xtick_5">
     <g id="line2d_5">
      <g>
       <use style="stroke:#000000;stroke-width:0.8;" x="291.721684" xlink:href="#mb867ecfbe9" y="307.584"/>
      </g>
     </g>
     <g id="text_5">
      <!-- 200 -->
      <g transform="translate(282.177934 322.182437)scale(0.1 -0.1)">
       <defs>
        <path d="M 1228 531 
L 3431 531 
L 3431 0 
L 469 0 
L 469 531 
Q 828 903 1448 1529 
Q 2069 2156 2228 2338 
Q 2531 2678 2651 2914 
Q 2772 3150 2772 3378 
Q 2772 3750 2511 3984 
Q 2250 4219 1831 4219 
Q 1534 4219 1204 4116 
Q 875 4013 500 3803 
L 500 4441 
Q 881 4594 1212 4672 
Q 1544 4750 1819 4750 
Q 2544 4750 2975 4387 
Q 3406 4025 3406 3419 
Q 3406 3131 3298 2873 
Q 3191 2616 2906 2266 
Q 2828 2175 2409 1742 
Q 1991 1309 1228 531 
z
" id="DejaVuSans-32" transform="scale(0.015625)"/>
       </defs>
       <use xlink:href="#DejaVuSans-32"/>
       <use x="63.623047" xlink:href="#DejaVuSans-30"/>
       <use x="127.246094" xlink:href="#DejaVuSans-30"/>
      </g>
     </g>
    </g>
    <g id="xtick_6">
     <g id="line2d_6">
      <g>
       <use style="stroke:#000000;stroke-width:0.8;" x="346.193923" xlink:href="#mb867ecfbe9" y="307.584"/>
      </g>
     </g>
     <g id="text_6">
      <!-- 250 -->
      <g transform="translate(336.650173 322.182437)scale(0.1 -0.1)">
       <use xlink:href="#DejaVuSans-32"/>
       <use x="63.623047" xlink:href="#DejaVuSans-35"/>
       <use x="127.246094" xlink:href="#DejaVuSans-30"/>
      </g>
     </g>
    </g>
    <g id="xtick_7">
     <g id="line2d_7">
      <g>
       <use style="stroke:#000000;stroke-width:0.8;" x="400.666162" xlink:href="#mb867ecfbe9" y="307.584"/>
      </g>
     </g>
     <g id="text_7">
      <!-- 300 -->
      <g transform="translate(391.122412 322.182437)scale(0.1 -0.1)">
       <defs>
        <path d="M 2597 2516 
Q 3050 2419 3304 2112 
Q 3559 1806 3559 1356 
Q 3559 666 3084 287 
Q 2609 -91 1734 -91 
Q 1441 -91 1130 -33 
Q 819 25 488 141 
L 488 750 
Q 750 597 1062 519 
Q 1375 441 1716 441 
Q 2309 441 2620 675 
Q 2931 909 2931 1356 
Q 2931 1769 2642 2001 
Q 2353 2234 1838 2234 
L 1294 2234 
L 1294 2753 
L 1863 2753 
Q 2328 2753 2575 2939 
Q 2822 3125 2822 3475 
Q 2822 3834 2567 4026 
Q 2313 4219 1838 4219 
Q 1578 4219 1281 4162 
Q 984 4106 628 3988 
L 628 4550 
Q 988 4650 1302 4700 
Q 1616 4750 1894 4750 
Q 2613 4750 3031 4423 
Q 3450 4097 3450 3541 
Q 3450 3153 3228 2886 
Q 3006 2619 2597 2516 
z
" id="DejaVuSans-33" transform="scale(0.015625)"/>
       </defs>
       <use xlink:href="#DejaVuSans-33"/>
       <use x="63.623047" xlink:href="#DejaVuSans-30"/>
       <use x="127.246094" xlink:href="#DejaVuSans-30"/>
      </g>
     </g>
    </g>
    <g id="text_8">
     <!-- Epoch -->
     <g transform="translate(220.849063 335.860562)scale(0.1 -0.1)">
      <defs>
       <path d="M 628 4666 
L 3578 4666 
L 3578 4134 
L 1259 4134 
L 1259 2753 
L 3481 2753 
L 3481 2222 
L 1259 2222 
L 1259 531 
L 3634 531 
L 3634 0 
L 628 0 
L 628 4666 
z
" id="DejaVuSans-45" transform="scale(0.015625)"/>
       <path d="M 1159 525 
L 1159 -1331 
L 581 -1331 
L 581 3500 
L 1159 3500 
L 1159 2969 
Q 1341 3281 1617 3432 
Q 1894 3584 2278 3584 
Q 2916 3584 3314 3078 
Q 3713 2572 3713 1747 
Q 3713 922 3314 415 
Q 2916 -91 2278 -91 
Q 1894 -91 1617 61 
Q 1341 213 1159 525 
z
M 3116 1747 
Q 3116 2381 2855 2742 
Q 2594 3103 2138 3103 
Q 1681 3103 1420 2742 
Q 1159 2381 1159 1747 
Q 1159 1113 1420 752 
Q 1681 391 2138 391 
Q 2594 391 2855 752 
Q 3116 1113 3116 1747 
z
" id="DejaVuSans-70" transform="scale(0.015625)"/>
       <path d="M 1959 3097 
Q 1497 3097 1228 2736 
Q 959 2375 959 1747 
Q 959 1119 1226 758 
Q 1494 397 1959 397 
Q 2419 397 2687 759 
Q 2956 1122 2956 1747 
Q 2956 2369 2687 2733 
Q 2419 3097 1959 3097 
z
M 1959 3584 
Q 2709 3584 3137 3096 
Q 3566 2609 3566 1747 
Q 3566 888 3137 398 
Q 2709 -91 1959 -91 
Q 1206 -91 779 398 
Q 353 888 353 1747 
Q 353 2609 779 3096 
Q 1206 3584 1959 3584 
z
" id="DejaVuSans-6f" transform="scale(0.015625)"/>
       <path d="M 3122 3366 
L 3122 2828 
Q 2878 2963 2633 3030 
Q 2388 3097 2138 3097 
Q 1578 3097 1268 2742 
Q 959 2388 959 1747 
Q 959 1106 1268 751 
Q 1578 397 2138 397 
Q 2388 397 2633 464 
Q 2878 531 3122 666 
L 3122 134 
Q 2881 22 2623 -34 
Q 2366 -91 2075 -91 
Q 1284 -91 818 406 
Q 353 903 353 1747 
Q 353 2603 823 3093 
Q 1294 3584 2113 3584 
Q 2378 3584 2631 3529 
Q 2884 3475 3122 3366 
z
" id="DejaVuSans-63" transform="scale(0.015625)"/>
       <path d="M 3513 2113 
L 3513 0 
L 2938 0 
L 2938 2094 
Q 2938 2591 2744 2837 
Q 2550 3084 2163 3084 
Q 1697 3084 1428 2787 
Q 1159 2491 1159 1978 
L 1159 0 
L 581 0 
L 581 4863 
L 1159 4863 
L 1159 2956 
Q 1366 3272 1645 3428 
Q 1925 3584 2291 3584 
Q 2894 3584 3203 3211 
Q 3513 2838 3513 2113 
z
" id="DejaVuSans-68" transform="scale(0.015625)"/>
      </defs>
      <use xlink:href="#DejaVuSans-45"/>
      <use x="63.183594" xlink:href="#DejaVuSans-70"/>
      <use x="126.660156" xlink:href="#DejaVuSans-6f"/>
      <use x="187.841797" xlink:href="#DejaVuSans-63"/>
      <use x="242.822266" xlink:href="#DejaVuSans-68"/>
     </g>
    </g>
   </g>
   <g id="matplotlib.axis_2">
    <g id="ytick_1">
     <g id="line2d_8">
      <defs>
       <path d="M 0 0 
L -3.5 0 
" id="me0e26daba8" style="stroke:#000000;stroke-width:0.8;"/>
      </defs>
      <g>
       <use style="stroke:#000000;stroke-width:0.8;" x="57.6" xlink:href="#me0e26daba8" y="297.177571"/>
      </g>
     </g>
     <g id="text_9">
      <!-- 4 -->
      <g transform="translate(44.2375 300.97679)scale(0.1 -0.1)">
       <defs>
        <path d="M 2419 4116 
L 825 1625 
L 2419 1625 
L 2419 4116 
z
M 2253 4666 
L 3047 4666 
L 3047 1625 
L 3713 1625 
L 3713 1100 
L 3047 1100 
L 3047 0 
L 2419 0 
L 2419 1100 
L 313 1100 
L 313 1709 
L 2253 4666 
z
" id="DejaVuSans-34" transform="scale(0.015625)"/>
       </defs>
       <use xlink:href="#DejaVuSans-34"/>
      </g>
     </g>
    </g>
    <g id="ytick_2">
     <g id="line2d_9">
      <g>
       <use style="stroke:#000000;stroke-width:0.8;" x="57.6" xlink:href="#me0e26daba8" y="259.611595"/>
      </g>
     </g>
     <g id="text_10">
      <!-- 6 -->
      <g transform="translate(44.2375 263.410814)scale(0.1 -0.1)">
       <defs>
        <path d="M 2113 2584 
Q 1688 2584 1439 2293 
Q 1191 2003 1191 1497 
Q 1191 994 1439 701 
Q 1688 409 2113 409 
Q 2538 409 2786 701 
Q 3034 994 3034 1497 
Q 3034 2003 2786 2293 
Q 2538 2584 2113 2584 
z
M 3366 4563 
L 3366 3988 
Q 3128 4100 2886 4159 
Q 2644 4219 2406 4219 
Q 1781 4219 1451 3797 
Q 1122 3375 1075 2522 
Q 1259 2794 1537 2939 
Q 1816 3084 2150 3084 
Q 2853 3084 3261 2657 
Q 3669 2231 3669 1497 
Q 3669 778 3244 343 
Q 2819 -91 2113 -91 
Q 1303 -91 875 529 
Q 447 1150 447 2328 
Q 447 3434 972 4092 
Q 1497 4750 2381 4750 
Q 2619 4750 2861 4703 
Q 3103 4656 3366 4563 
z
" id="DejaVuSans-36" transform="scale(0.015625)"/>
       </defs>
       <use xlink:href="#DejaVuSans-36"/>
      </g>
     </g>
    </g>
    <g id="ytick_3">
     <g id="line2d_10">
      <g>
       <use style="stroke:#000000;stroke-width:0.8;" x="57.6" xlink:href="#me0e26daba8" y="222.045619"/>
      </g>
     </g>
     <g id="text_11">
      <!-- 8 -->
      <g transform="translate(44.2375 225.844838)scale(0.1 -0.1)">
       <defs>
        <path d="M 2034 2216 
Q 1584 2216 1326 1975 
Q 1069 1734 1069 1313 
Q 1069 891 1326 650 
Q 1584 409 2034 409 
Q 2484 409 2743 651 
Q 3003 894 3003 1313 
Q 3003 1734 2745 1975 
Q 2488 2216 2034 2216 
z
M 1403 2484 
Q 997 2584 770 2862 
Q 544 3141 544 3541 
Q 544 4100 942 4425 
Q 1341 4750 2034 4750 
Q 2731 4750 3128 4425 
Q 3525 4100 3525 3541 
Q 3525 3141 3298 2862 
Q 3072 2584 2669 2484 
Q 3125 2378 3379 2068 
Q 3634 1759 3634 1313 
Q 3634 634 3220 271 
Q 2806 -91 2034 -91 
Q 1263 -91 848 271 
Q 434 634 434 1313 
Q 434 1759 690 2068 
Q 947 2378 1403 2484 
z
M 1172 3481 
Q 1172 3119 1398 2916 
Q 1625 2713 2034 2713 
Q 2441 2713 2670 2916 
Q 2900 3119 2900 3481 
Q 2900 3844 2670 4047 
Q 2441 4250 2034 4250 
Q 1625 4250 1398 4047 
Q 1172 3844 1172 3481 
z
" id="DejaVuSans-38" transform="scale(0.015625)"/>
       </defs>
       <use xlink:href="#DejaVuSans-38"/>
      </g>
     </g>
    </g>
    <g id="ytick_4">
     <g id="line2d_11">
      <g>
       <use style="stroke:#000000;stroke-width:0.8;" x="57.6" xlink:href="#me0e26daba8" y="184.479643"/>
      </g>
     </g>
     <g id="text_12">
      <!-- 10 -->
      <g transform="translate(37.875 188.278862)scale(0.1 -0.1)">
       <use xlink:href="#DejaVuSans-31"/>
       <use x="63.623047" xlink:href="#DejaVuSans-30"/>
      </g>
     </g>
    </g>
    <g id="ytick_5">
     <g id="line2d_12">
      <g>
       <use style="stroke:#000000;stroke-width:0.8;" x="57.6" xlink:href="#me0e26daba8" y="146.913667"/>
      </g>
     </g>
     <g id="text_13">
      <!-- 12 -->
      <g transform="translate(37.875 150.712886)scale(0.1 -0.1)">
       <use xlink:href="#DejaVuSans-31"/>
       <use x="63.623047" xlink:href="#DejaVuSans-32"/>
      </g>
     </g>
    </g>
    <g id="ytick_6">
     <g id="line2d_13">
      <g>
       <use style="stroke:#000000;stroke-width:0.8;" x="57.6" xlink:href="#me0e26daba8" y="109.347691"/>
      </g>
     </g>
     <g id="text_14">
      <!-- 14 -->
      <g transform="translate(37.875 113.14691)scale(0.1 -0.1)">
       <use xlink:href="#DejaVuSans-31"/>
       <use x="63.623047" xlink:href="#DejaVuSans-34"/>
      </g>
     </g>
    </g>
    <g id="ytick_7">
     <g id="line2d_14">
      <g>
       <use style="stroke:#000000;stroke-width:0.8;" x="57.6" xlink:href="#me0e26daba8" y="71.781715"/>
      </g>
     </g>
     <g id="text_15">
      <!-- 16 -->
      <g transform="translate(37.875 75.580933)scale(0.1 -0.1)">
       <use xlink:href="#DejaVuSans-31"/>
       <use x="63.623047" xlink:href="#DejaVuSans-36"/>
      </g>
     </g>
    </g>
    <g id="text_16">
     <!-- Error -->
     <g transform="translate(31.795313 186.713156)rotate(-90)scale(0.1 -0.1)">
      <defs>
       <path d="M 2631 2963 
Q 2534 3019 2420 3045 
Q 2306 3072 2169 3072 
Q 1681 3072 1420 2755 
Q 1159 2438 1159 1844 
L 1159 0 
L 581 0 
L 581 3500 
L 1159 3500 
L 1159 2956 
Q 1341 3275 1631 3429 
Q 1922 3584 2338 3584 
Q 2397 3584 2469 3576 
Q 2541 3569 2628 3553 
L 2631 2963 
z
" id="DejaVuSans-72" transform="scale(0.015625)"/>
      </defs>
      <use xlink:href="#DejaVuSans-45"/>
      <use x="63.183594" xlink:href="#DejaVuSans-72"/>
      <use x="102.546875" xlink:href="#DejaVuSans-72"/>
      <use x="141.410156" xlink:href="#DejaVuSans-6f"/>
      <use x="202.591797" xlink:href="#DejaVuSans-72"/>
     </g>
    </g>
   </g>
   <g id="line2d_15">
    <path clip-path="url(#p6228b38f88)" d="M 73.832727 53.568 
L 80.369396 58.10892 
L 82.548286 59.811141 
L 84.727175 61.798842 
L 86.906065 64.006754 
L 92.353289 70.126656 
L 97.800513 77.320586 
L 106.516071 89.40191 
L 107.605516 90.619446 
L 113.052739 97.72954 
L 117.410519 103.069081 
L 126.126077 113.556227 
L 129.394411 117.144405 
L 149.004417 141.145069 
L 151.183307 143.660329 
L 154.451641 147.427899 
L 157.719976 151.031633 
L 163.1672 157.226472 
L 167.524979 161.781935 
L 172.972203 167.728379 
L 187.134985 181.890731 
L 190.403319 185.127398 
L 191.492764 186.03312 
L 194.761098 189.367608 
L 200.208322 194.665542 
L 202.387212 196.86083 
L 207.834436 202.086514 
L 212.192215 206.36397 
L 217.639439 211.632477 
L 231.802221 224.861157 
L 232.891666 225.947924 
L 236.16 228.862016 
L 243.786113 235.595457 
L 244.875558 236.404845 
L 245.965003 237.40632 
L 249.233337 240.056664 
L 253.591117 243.611855 
L 257.948896 246.898248 
L 264.485564 251.581424 
L 265.575009 252.14926 
L 268.843344 254.292657 
L 269.932788 254.888693 
L 271.022233 255.643523 
L 274.290567 257.441003 
L 275.380012 258.182623 
L 276.469457 258.634085 
L 277.558902 259.411299 
L 284.09557 262.821531 
L 285.185015 263.235155 
L 289.542794 265.676238 
L 290.632239 266.043705 
L 291.721684 266.265063 
L 292.811129 266.783946 
L 294.990018 267.456371 
L 296.079463 268.153614 
L 297.168908 268.491817 
L 298.258353 268.703551 
L 300.437242 269.625688 
L 301.526687 269.988396 
L 302.616132 270.595576 
L 303.705577 270.738956 
L 304.795021 270.994424 
L 305.884466 271.365913 
L 306.973911 271.555476 
L 308.063356 272.165831 
L 309.1528 272.625802 
L 311.33169 273.195974 
L 312.421135 273.510936 
L 313.51058 273.967111 
L 314.600024 274.208985 
L 315.689469 274.671742 
L 317.868359 274.936229 
L 318.957804 275.663185 
L 321.136693 276.093396 
L 322.226138 276.603198 
L 325.494472 277.422576 
L 326.583917 277.470776 
L 329.852251 278.316091 
L 330.941696 278.906998 
L 334.210031 279.639642 
L 335.299475 279.512981 
L 336.38892 279.804138 
L 338.56781 280.597402 
L 339.657254 280.19947 
L 342.925589 281.601074 
L 344.015034 281.563552 
L 345.104478 281.812992 
L 346.193923 282.289565 
L 347.283368 282.324515 
L 348.372813 282.580709 
L 349.462257 282.560918 
L 350.551702 282.719788 
L 351.641147 283.216492 
L 352.730592 283.169178 
L 353.820037 283.541 
L 357.088371 284.137816 
L 358.177816 284.805132 
L 359.267261 284.715013 
L 360.356705 284.903148 
L 361.44615 285.342328 
L 362.535595 285.393905 
L 363.62504 286.132439 
L 364.714484 286.206772 
L 365.803929 286.691359 
L 366.893374 286.919175 
L 367.982819 287.017791 
L 369.072264 287.782571 
L 370.161708 287.863487 
L 371.251153 288.401413 
L 373.430043 288.537669 
L 374.519487 289.303682 
L 376.698377 289.963486 
L 378.877267 290.40224 
L 381.056156 290.917018 
L 383.235046 291.259549 
L 384.324491 291.932452 
L 385.413935 292.09478 
L 386.50338 292.540824 
L 389.771714 293.379144 
L 390.861159 293.289428 
L 393.040049 294.235888 
L 394.129494 294.070199 
L 395.218938 294.506841 
L 397.397828 295.021131 
L 398.487273 295.488 
L 398.487273 295.488 
" style="fill:none;stroke:#0000ff;stroke-linecap:square;stroke-width:1.5;"/>
   </g>
   <g id="line2d_16">
    <path clip-path="url(#p6228b38f88)" d="M 73.832727 58.686238 
L 80.369396 63.278227 
L 82.548286 65.002295 
L 84.727175 67.009799 
L 86.906065 69.238917 
L 91.263844 74.182904 
L 92.353289 75.428103 
L 97.800513 82.667495 
L 105.426626 93.238181 
L 106.516071 94.723454 
L 107.605516 95.922636 
L 111.963295 101.569081 
L 116.321074 106.987374 
L 118.499963 109.500498 
L 123.947187 115.979854 
L 127.215522 119.589333 
L 128.304966 120.879312 
L 129.394411 121.915945 
L 152.272752 148.957755 
L 165.346089 163.106786 
L 169.703868 167.687267 
L 176.240537 174.485701 
L 186.04554 184.103298 
L 190.403319 188.489001 
L 191.492764 189.41947 
L 198.029433 195.86831 
L 200.208322 198.006616 
L 201.297767 199.21528 
L 208.92388 206.61374 
L 211.10277 208.806415 
L 227.444442 224.029893 
L 229.623331 225.98802 
L 233.98111 230.028443 
L 241.607224 236.750567 
L 242.696669 237.57957 
L 243.786113 238.561996 
L 244.875558 239.346826 
L 245.965003 240.355379 
L 247.054448 241.134957 
L 250.322782 243.782234 
L 255.770006 247.863516 
L 257.948896 249.172513 
L 264.485564 253.605079 
L 265.575009 254.003813 
L 268.843344 256.14075 
L 269.932788 256.42842 
L 271.022233 257.181208 
L 272.111678 257.736996 
L 273.201123 258.091754 
L 274.290567 258.597925 
L 275.380012 259.455423 
L 276.469457 259.567644 
L 277.558902 260.477331 
L 278.648347 260.834002 
L 279.737791 261.488789 
L 280.827236 261.927716 
L 283.006126 263.044139 
L 285.185015 263.63511 
L 286.27446 264.175527 
L 287.363905 265.005354 
L 288.45335 265.613288 
L 290.632239 266.507769 
L 291.721684 266.464471 
L 292.811129 267.04322 
L 294.990018 267.47353 
L 296.079463 268.325092 
L 298.258353 268.682569 
L 299.347797 269.032847 
L 300.437242 269.593887 
L 301.526687 269.822811 
L 302.616132 270.452371 
L 303.705577 270.461511 
L 304.795021 270.652988 
L 305.884466 271.084435 
L 306.973911 271.136899 
L 309.1528 272.210189 
L 310.242245 272.349479 
L 312.421135 273.00355 
L 313.51058 273.555198 
L 314.600024 273.719815 
L 315.689469 274.205179 
L 317.868359 274.163259 
L 318.957804 275.056074 
L 321.136693 275.153152 
L 322.226138 275.903311 
L 323.315583 276.230946 
L 324.405027 276.13733 
L 325.494472 276.551745 
L 326.583917 276.432306 
L 328.762807 277.108706 
L 329.852251 277.22439 
L 330.941696 277.915108 
L 332.031141 278.141744 
L 333.120586 278.071821 
L 334.210031 278.553857 
L 335.299475 278.207724 
L 336.38892 278.498751 
L 338.56781 279.380092 
L 339.657254 278.724885 
L 340.746699 279.313395 
L 342.925589 280.0877 
L 344.015034 280.068129 
L 347.283368 281.01288 
L 349.462257 280.922692 
L 350.551702 281.179973 
L 351.641147 281.593318 
L 352.730592 281.184735 
L 353.820037 281.806452 
L 354.909481 282.214673 
L 355.998926 282.09631 
L 357.088371 282.173246 
L 358.177816 283.481476 
L 359.267261 282.851812 
L 361.44615 283.616908 
L 362.535595 283.461612 
L 363.62504 284.408514 
L 364.714484 284.169355 
L 365.803929 284.720089 
L 366.893374 284.863234 
L 367.982819 284.790915 
L 369.072264 285.714427 
L 370.161708 285.548556 
L 371.251153 286.115389 
L 373.430043 285.869306 
L 374.519487 286.728235 
L 375.608932 287.12196 
L 376.698377 287.387021 
L 377.787822 287.288501 
L 379.966711 287.858433 
L 383.235046 288.06501 
L 384.324491 288.897383 
L 385.413935 288.74049 
L 386.50338 289.384088 
L 388.68227 289.858065 
L 389.771714 290.230129 
L 390.861159 289.664397 
L 393.040049 290.885957 
L 394.129494 290.449592 
L 396.308383 291.155444 
L 397.397828 291.185199 
L 398.487273 291.751958 
L 398.487273 291.751958 
" style="fill:none;stroke:#008000;stroke-dasharray:9.6,2.4,1.5,2.4;stroke-dashoffset:0;stroke-width:1.5;"/>
   </g>
   <g id="patch_3">
    <path d="M 57.6 307.584 
L 57.6 41.472 
" style="fill:none;stroke:#000000;stroke-linecap:square;stroke-linejoin:miter;stroke-width:0.8;"/>
   </g>
   <g id="patch_4">
    <path d="M 414.72 307.584 
L 414.72 41.472 
" style="fill:none;stroke:#000000;stroke-linecap:square;stroke-linejoin:miter;stroke-width:0.8;"/>
   </g>
   <g id="patch_5">
    <path d="M 57.6 307.584 
L 414.72 307.584 
" style="fill:none;stroke:#000000;stroke-linecap:square;stroke-linejoin:miter;stroke-width:0.8;"/>
   </g>
   <g id="patch_6">
    <path d="M 57.6 41.472 
L 414.72 41.472 
" style="fill:none;stroke:#000000;stroke-linecap:square;stroke-linejoin:miter;stroke-width:0.8;"/>
   </g>
   <g id="text_17">
    <!-- Final training: Ensemble 2 (Adam): Final Retraining Mean Euclidean Error -->
    <g transform="translate(17.79 35.472)scale(0.12 -0.12)">
     <defs>
      <path d="M 628 4666 
L 3309 4666 
L 3309 4134 
L 1259 4134 
L 1259 2759 
L 3109 2759 
L 3109 2228 
L 1259 2228 
L 1259 0 
L 628 0 
L 628 4666 
z
" id="DejaVuSans-46" transform="scale(0.015625)"/>
      <path d="M 603 3500 
L 1178 3500 
L 1178 0 
L 603 0 
L 603 3500 
z
M 603 4863 
L 1178 4863 
L 1178 4134 
L 603 4134 
L 603 4863 
z
" id="DejaVuSans-69" transform="scale(0.015625)"/>
      <path d="M 3513 2113 
L 3513 0 
L 2938 0 
L 2938 2094 
Q 2938 2591 2744 2837 
Q 2550 3084 2163 3084 
Q 1697 3084 1428 2787 
Q 1159 2491 1159 1978 
L 1159 0 
L 581 0 
L 581 3500 
L 1159 3500 
L 1159 2956 
Q 1366 3272 1645 3428 
Q 1925 3584 2291 3584 
Q 2894 3584 3203 3211 
Q 3513 2838 3513 2113 
z
" id="DejaVuSans-6e" transform="scale(0.015625)"/>
      <path d="M 2194 1759 
Q 1497 1759 1228 1600 
Q 959 1441 959 1056 
Q 959 750 1161 570 
Q 1363 391 1709 391 
Q 2188 391 2477 730 
Q 2766 1069 2766 1631 
L 2766 1759 
L 2194 1759 
z
M 3341 1997 
L 3341 0 
L 2766 0 
L 2766 531 
Q 2569 213 2275 61 
Q 1981 -91 1556 -91 
Q 1019 -91 701 211 
Q 384 513 384 1019 
Q 384 1609 779 1909 
Q 1175 2209 1959 2209 
L 2766 2209 
L 2766 2266 
Q 2766 2663 2505 2880 
Q 2244 3097 1772 3097 
Q 1472 3097 1187 3025 
Q 903 2953 641 2809 
L 641 3341 
Q 956 3463 1253 3523 
Q 1550 3584 1831 3584 
Q 2591 3584 2966 3190 
Q 3341 2797 3341 1997 
z
" id="DejaVuSans-61" transform="scale(0.015625)"/>
      <path d="M 603 4863 
L 1178 4863 
L 1178 0 
L 603 0 
L 603 4863 
z
" id="DejaVuSans-6c" transform="scale(0.015625)"/>
      <path id="DejaVuSans-20" transform="scale(0.015625)"/>
      <path d="M 1172 4494 
L 1172 3500 
L 2356 3500 
L 2356 3053 
L 1172 3053 
L 1172 1153 
Q 1172 725 1289 603 
Q 1406 481 1766 481 
L 2356 481 
L 2356 0 
L 1766 0 
Q 1100 0 847 248 
Q 594 497 594 1153 
L 594 3053 
L 172 3053 
L 172 3500 
L 594 3500 
L 594 4494 
L 1172 4494 
z
" id="DejaVuSans-74" transform="scale(0.015625)"/>
      <path d="M 2906 1791 
Q 2906 2416 2648 2759 
Q 2391 3103 1925 3103 
Q 1463 3103 1205 2759 
Q 947 2416 947 1791 
Q 947 1169 1205 825 
Q 1463 481 1925 481 
Q 2391 481 2648 825 
Q 2906 1169 2906 1791 
z
M 3481 434 
Q 3481 -459 3084 -895 
Q 2688 -1331 1869 -1331 
Q 1566 -1331 1297 -1286 
Q 1028 -1241 775 -1147 
L 775 -588 
Q 1028 -725 1275 -790 
Q 1522 -856 1778 -856 
Q 2344 -856 2625 -561 
Q 2906 -266 2906 331 
L 2906 616 
Q 2728 306 2450 153 
Q 2172 0 1784 0 
Q 1141 0 747 490 
Q 353 981 353 1791 
Q 353 2603 747 3093 
Q 1141 3584 1784 3584 
Q 2172 3584 2450 3431 
Q 2728 3278 2906 2969 
L 2906 3500 
L 3481 3500 
L 3481 434 
z
" id="DejaVuSans-67" transform="scale(0.015625)"/>
      <path d="M 750 794 
L 1409 794 
L 1409 0 
L 750 0 
L 750 794 
z
M 750 3309 
L 1409 3309 
L 1409 2516 
L 750 2516 
L 750 3309 
z
" id="DejaVuSans-3a" transform="scale(0.015625)"/>
      <path d="M 2834 3397 
L 2834 2853 
Q 2591 2978 2328 3040 
Q 2066 3103 1784 3103 
Q 1356 3103 1142 2972 
Q 928 2841 928 2578 
Q 928 2378 1081 2264 
Q 1234 2150 1697 2047 
L 1894 2003 
Q 2506 1872 2764 1633 
Q 3022 1394 3022 966 
Q 3022 478 2636 193 
Q 2250 -91 1575 -91 
Q 1294 -91 989 -36 
Q 684 19 347 128 
L 347 722 
Q 666 556 975 473 
Q 1284 391 1588 391 
Q 1994 391 2212 530 
Q 2431 669 2431 922 
Q 2431 1156 2273 1281 
Q 2116 1406 1581 1522 
L 1381 1569 
Q 847 1681 609 1914 
Q 372 2147 372 2553 
Q 372 3047 722 3315 
Q 1072 3584 1716 3584 
Q 2034 3584 2315 3537 
Q 2597 3491 2834 3397 
z
" id="DejaVuSans-73" transform="scale(0.015625)"/>
      <path d="M 3597 1894 
L 3597 1613 
L 953 1613 
Q 991 1019 1311 708 
Q 1631 397 2203 397 
Q 2534 397 2845 478 
Q 3156 559 3463 722 
L 3463 178 
Q 3153 47 2828 -22 
Q 2503 -91 2169 -91 
Q 1331 -91 842 396 
Q 353 884 353 1716 
Q 353 2575 817 3079 
Q 1281 3584 2069 3584 
Q 2775 3584 3186 3129 
Q 3597 2675 3597 1894 
z
M 3022 2063 
Q 3016 2534 2758 2815 
Q 2500 3097 2075 3097 
Q 1594 3097 1305 2825 
Q 1016 2553 972 2059 
L 3022 2063 
z
" id="DejaVuSans-65" transform="scale(0.015625)"/>
      <path d="M 3328 2828 
Q 3544 3216 3844 3400 
Q 4144 3584 4550 3584 
Q 5097 3584 5394 3201 
Q 5691 2819 5691 2113 
L 5691 0 
L 5113 0 
L 5113 2094 
Q 5113 2597 4934 2840 
Q 4756 3084 4391 3084 
Q 3944 3084 3684 2787 
Q 3425 2491 3425 1978 
L 3425 0 
L 2847 0 
L 2847 2094 
Q 2847 2600 2669 2842 
Q 2491 3084 2119 3084 
Q 1678 3084 1418 2786 
Q 1159 2488 1159 1978 
L 1159 0 
L 581 0 
L 581 3500 
L 1159 3500 
L 1159 2956 
Q 1356 3278 1631 3431 
Q 1906 3584 2284 3584 
Q 2666 3584 2933 3390 
Q 3200 3197 3328 2828 
z
" id="DejaVuSans-6d" transform="scale(0.015625)"/>
      <path d="M 3116 1747 
Q 3116 2381 2855 2742 
Q 2594 3103 2138 3103 
Q 1681 3103 1420 2742 
Q 1159 2381 1159 1747 
Q 1159 1113 1420 752 
Q 1681 391 2138 391 
Q 2594 391 2855 752 
Q 3116 1113 3116 1747 
z
M 1159 2969 
Q 1341 3281 1617 3432 
Q 1894 3584 2278 3584 
Q 2916 3584 3314 3078 
Q 3713 2572 3713 1747 
Q 3713 922 3314 415 
Q 2916 -91 2278 -91 
Q 1894 -91 1617 61 
Q 1341 213 1159 525 
L 1159 0 
L 581 0 
L 581 4863 
L 1159 4863 
L 1159 2969 
z
" id="DejaVuSans-62" transform="scale(0.015625)"/>
      <path d="M 1984 4856 
Q 1566 4138 1362 3434 
Q 1159 2731 1159 2009 
Q 1159 1288 1364 580 
Q 1569 -128 1984 -844 
L 1484 -844 
Q 1016 -109 783 600 
Q 550 1309 550 2009 
Q 550 2706 781 3412 
Q 1013 4119 1484 4856 
L 1984 4856 
z
" id="DejaVuSans-28" transform="scale(0.015625)"/>
      <path d="M 2188 4044 
L 1331 1722 
L 3047 1722 
L 2188 4044 
z
M 1831 4666 
L 2547 4666 
L 4325 0 
L 3669 0 
L 3244 1197 
L 1141 1197 
L 716 0 
L 50 0 
L 1831 4666 
z
" id="DejaVuSans-41" transform="scale(0.015625)"/>
      <path d="M 2906 2969 
L 2906 4863 
L 3481 4863 
L 3481 0 
L 2906 0 
L 2906 525 
Q 2725 213 2448 61 
Q 2172 -91 1784 -91 
Q 1150 -91 751 415 
Q 353 922 353 1747 
Q 353 2572 751 3078 
Q 1150 3584 1784 3584 
Q 2172 3584 2448 3432 
Q 2725 3281 2906 2969 
z
M 947 1747 
Q 947 1113 1208 752 
Q 1469 391 1925 391 
Q 2381 391 2643 752 
Q 2906 1113 2906 1747 
Q 2906 2381 2643 2742 
Q 2381 3103 1925 3103 
Q 1469 3103 1208 2742 
Q 947 2381 947 1747 
z
" id="DejaVuSans-64" transform="scale(0.015625)"/>
      <path d="M 513 4856 
L 1013 4856 
Q 1481 4119 1714 3412 
Q 1947 2706 1947 2009 
Q 1947 1309 1714 600 
Q 1481 -109 1013 -844 
L 513 -844 
Q 928 -128 1133 580 
Q 1338 1288 1338 2009 
Q 1338 2731 1133 3434 
Q 928 4138 513 4856 
z
" id="DejaVuSans-29" transform="scale(0.015625)"/>
      <path d="M 2841 2188 
Q 3044 2119 3236 1894 
Q 3428 1669 3622 1275 
L 4263 0 
L 3584 0 
L 2988 1197 
Q 2756 1666 2539 1819 
Q 2322 1972 1947 1972 
L 1259 1972 
L 1259 0 
L 628 0 
L 628 4666 
L 2053 4666 
Q 2853 4666 3247 4331 
Q 3641 3997 3641 3322 
Q 3641 2881 3436 2590 
Q 3231 2300 2841 2188 
z
M 1259 4147 
L 1259 2491 
L 2053 2491 
Q 2509 2491 2742 2702 
Q 2975 2913 2975 3322 
Q 2975 3731 2742 3939 
Q 2509 4147 2053 4147 
L 1259 4147 
z
" id="DejaVuSans-52" transform="scale(0.015625)"/>
      <path d="M 628 4666 
L 1569 4666 
L 2759 1491 
L 3956 4666 
L 4897 4666 
L 4897 0 
L 4281 0 
L 4281 4097 
L 3078 897 
L 2444 897 
L 1241 4097 
L 1241 0 
L 628 0 
L 628 4666 
z
" id="DejaVuSans-4d" transform="scale(0.015625)"/>
      <path d="M 544 1381 
L 544 3500 
L 1119 3500 
L 1119 1403 
Q 1119 906 1312 657 
Q 1506 409 1894 409 
Q 2359 409 2629 706 
Q 2900 1003 2900 1516 
L 2900 3500 
L 3475 3500 
L 3475 0 
L 2900 0 
L 2900 538 
Q 2691 219 2414 64 
Q 2138 -91 1772 -91 
Q 1169 -91 856 284 
Q 544 659 544 1381 
z
M 1991 3584 
L 1991 3584 
z
" id="DejaVuSans-75" transform="scale(0.015625)"/>
     </defs>
     <use xlink:href="#DejaVuSans-46"/>
     <use x="50.269531" xlink:href="#DejaVuSans-69"/>
     <use x="78.052734" xlink:href="#DejaVuSans-6e"/>
     <use x="141.431641" xlink:href="#DejaVuSans-61"/>
     <use x="202.710938" xlink:href="#DejaVuSans-6c"/>
     <use x="230.494141" xlink:href="#DejaVuSans-20"/>
     <use x="262.28125" xlink:href="#DejaVuSans-74"/>
     <use x="301.490234" xlink:href="#DejaVuSans-72"/>
     <use x="342.603516" xlink:href="#DejaVuSans-61"/>
     <use x="403.882812" xlink:href="#DejaVuSans-69"/>
     <use x="431.666016" xlink:href="#DejaVuSans-6e"/>
     <use x="495.044922" xlink:href="#DejaVuSans-69"/>
     <use x="522.828125" xlink:href="#DejaVuSans-6e"/>
     <use x="586.207031" xlink:href="#DejaVuSans-67"/>
     <use x="649.683594" xlink:href="#DejaVuSans-3a"/>
     <use x="683.375" xlink:href="#DejaVuSans-20"/>
     <use x="715.162109" xlink:href="#DejaVuSans-45"/>
     <use x="778.345703" xlink:href="#DejaVuSans-6e"/>
     <use x="841.724609" xlink:href="#DejaVuSans-73"/>
     <use x="893.824219" xlink:href="#DejaVuSans-65"/>
     <use x="955.347656" xlink:href="#DejaVuSans-6d"/>
     <use x="1052.759766" xlink:href="#DejaVuSans-62"/>
     <use x="1116.236328" xlink:href="#DejaVuSans-6c"/>
     <use x="1144.019531" xlink:href="#DejaVuSans-65"/>
     <use x="1205.542969" xlink:href="#DejaVuSans-20"/>
     <use x="1237.330078" xlink:href="#DejaVuSans-32"/>
     <use x="1300.953125" xlink:href="#DejaVuSans-20"/>
     <use x="1332.740234" xlink:href="#DejaVuSans-28"/>
     <use x="1371.753906" xlink:href="#DejaVuSans-41"/>
     <use x="1438.412109" xlink:href="#DejaVuSans-64"/>
     <use x="1501.888672" xlink:href="#DejaVuSans-61"/>
     <use x="1563.167969" xlink:href="#DejaVuSans-6d"/>
     <use x="1660.580078" xlink:href="#DejaVuSans-29"/>
     <use x="1699.59375" xlink:href="#DejaVuSans-3a"/>
     <use x="1733.285156" xlink:href="#DejaVuSans-20"/>
     <use x="1765.072266" xlink:href="#DejaVuSans-46"/>
     <use x="1815.341797" xlink:href="#DejaVuSans-69"/>
     <use x="1843.125" xlink:href="#DejaVuSans-6e"/>
     <use x="1906.503906" xlink:href="#DejaVuSans-61"/>
     <use x="1967.783203" xlink:href="#DejaVuSans-6c"/>
     <use x="1995.566406" xlink:href="#DejaVuSans-20"/>
     <use x="2027.353516" xlink:href="#DejaVuSans-52"/>
     <use x="2092.335938" xlink:href="#DejaVuSans-65"/>
     <use x="2153.859375" xlink:href="#DejaVuSans-74"/>
     <use x="2193.068359" xlink:href="#DejaVuSans-72"/>
     <use x="2234.181641" xlink:href="#DejaVuSans-61"/>
     <use x="2295.460938" xlink:href="#DejaVuSans-69"/>
     <use x="2323.244141" xlink:href="#DejaVuSans-6e"/>
     <use x="2386.623047" xlink:href="#DejaVuSans-69"/>
     <use x="2414.40625" xlink:href="#DejaVuSans-6e"/>
     <use x="2477.785156" xlink:href="#DejaVuSans-67"/>
     <use x="2541.261719" xlink:href="#DejaVuSans-20"/>
     <use x="2573.048828" xlink:href="#DejaVuSans-4d"/>
     <use x="2659.328125" xlink:href="#DejaVuSans-65"/>
     <use x="2720.851562" xlink:href="#DejaVuSans-61"/>
     <use x="2782.130859" xlink:href="#DejaVuSans-6e"/>
     <use x="2845.509766" xlink:href="#DejaVuSans-20"/>
     <use x="2877.296875" xlink:href="#DejaVuSans-45"/>
     <use x="2940.480469" xlink:href="#DejaVuSans-75"/>
     <use x="3003.859375" xlink:href="#DejaVuSans-63"/>
     <use x="3058.839844" xlink:href="#DejaVuSans-6c"/>
     <use x="3086.623047" xlink:href="#DejaVuSans-69"/>
     <use x="3114.40625" xlink:href="#DejaVuSans-64"/>
     <use x="3177.882812" xlink:href="#DejaVuSans-65"/>
     <use x="3239.40625" xlink:href="#DejaVuSans-61"/>
     <use x="3300.685547" xlink:href="#DejaVuSans-6e"/>
     <use x="3364.064453" xlink:href="#DejaVuSans-20"/>
     <use x="3395.851562" xlink:href="#DejaVuSans-45"/>
     <use x="3459.035156" xlink:href="#DejaVuSans-72"/>
     <use x="3498.398438" xlink:href="#DejaVuSans-72"/>
     <use x="3537.261719" xlink:href="#DejaVuSans-6f"/>
     <use x="3598.443359" xlink:href="#DejaVuSans-72"/>
    </g>
   </g>
   <g id="legend_1">
    <g id="patch_7">
     <path d="M 324.349688 78.82825 
L 407.72 78.82825 
Q 409.72 78.82825 409.72 76.82825 
L 409.72 48.472 
Q 409.72 46.472 407.72 46.472 
L 324.349688 46.472 
Q 322.349688 46.472 322.349688 48.472 
L 322.349688 76.82825 
Q 322.349688 78.82825 324.349688 78.82825 
z
" style="fill:#ffffff;opacity:0.8;stroke:#cccccc;stroke-linejoin:miter;"/>
    </g>
    <g id="line2d_17">
     <path d="M 326.349688 54.570437 
L 346.349688 54.570437 
" style="fill:none;stroke:#0000ff;stroke-linecap:square;stroke-width:1.5;"/>
    </g>
    <g id="line2d_18"/>
    <g id="text_18">
     <!-- Train error -->
     <g transform="translate(354.349688 58.070437)scale(0.1 -0.1)">
      <defs>
       <path d="M -19 4666 
L 3928 4666 
L 3928 4134 
L 2272 4134 
L 2272 0 
L 1638 0 
L 1638 4134 
L -19 4134 
L -19 4666 
z
" id="DejaVuSans-54" transform="scale(0.015625)"/>
      </defs>
      <use xlink:href="#DejaVuSans-54"/>
      <use x="46.333984" xlink:href="#DejaVuSans-72"/>
      <use x="87.447266" xlink:href="#DejaVuSans-61"/>
      <use x="148.726562" xlink:href="#DejaVuSans-69"/>
      <use x="176.509766" xlink:href="#DejaVuSans-6e"/>
      <use x="239.888672" xlink:href="#DejaVuSans-20"/>
      <use x="271.675781" xlink:href="#DejaVuSans-65"/>
      <use x="333.199219" xlink:href="#DejaVuSans-72"/>
      <use x="372.5625" xlink:href="#DejaVuSans-72"/>
      <use x="411.425781" xlink:href="#DejaVuSans-6f"/>
      <use x="472.607422" xlink:href="#DejaVuSans-72"/>
     </g>
    </g>
    <g id="line2d_19">
     <path d="M 326.349688 69.248562 
L 346.349688 69.248562 
" style="fill:none;stroke:#008000;stroke-dasharray:9.6,2.4,1.5,2.4;stroke-dashoffset:0;stroke-width:1.5;"/>
    </g>
    <g id="line2d_20"/>
    <g id="text_19">
     <!-- Test error -->
     <g transform="translate(354.349688 72.748562)scale(0.1 -0.1)">
      <use xlink:href="#DejaVuSans-54"/>
      <use x="44.083984" xlink:href="#DejaVuSans-65"/>
      <use x="105.607422" xlink:href="#DejaVuSans-73"/>
      <use x="157.707031" xlink:href="#DejaVuSans-74"/>
      <use x="196.916016" xlink:href="#DejaVuSans-20"/>
      <use x="228.703125" xlink:href="#DejaVuSans-65"/>
      <use x="290.226562" xlink:href="#DejaVuSans-72"/>
      <use x="329.589844" xlink:href="#DejaVuSans-72"/>
      <use x="368.453125" xlink:href="#DejaVuSans-6f"/>
      <use x="429.634766" xlink:href="#DejaVuSans-72"/>
     </g>
    </g>
   </g>
  </g>
 </g>
 <defs>
  <clipPath id="p6228b38f88">
   <rect height="266.112" width="357.12" x="57.6" y="41.472"/>
  </clipPath>
 </defs>
</svg>
