<?xml version="1.0" encoding="utf-8" standalone="no"?>
<!DOCTYPE svg PUBLIC "-//W3C//DTD SVG 1.1//EN"
  "http://www.w3.org/Graphics/SVG/1.1/DTD/svg11.dtd">
<svg height="345.6pt" version="1.1" viewBox="0 0 460.8 345.6" width="460.8pt" xmlns="http://www.w3.org/2000/svg" xmlns:xlink="http://www.w3.org/1999/xlink">
 <metadata>
  <rdf:RDF xmlns:cc="http://creativecommons.org/ns#" xmlns:dc="http://purl.org/dc/elements/1.1/" xmlns:rdf="http://www.w3.org/1999/02/22-rdf-syntax-ns#">
   <cc:Work>
    <dc:type rdf:resource="http://purl.org/dc/dcmitype/StillImage"/>
    <dc:date>2021-07-07T23:53:35.412585</dc:date>
    <dc:format>image/svg+xml</dc:format>
    <dc:creator>
     <cc:Agent>
      <dc:title>Matplotlib v3.4.2, https://matplotlib.org/</dc:title>
     </cc:Agent>
    </dc:creator>
   </cc:Work>
  </rdf:RDF>
 </metadata>
 <defs>
  <style type="text/css">*{stroke-linecap:butt;stroke-linejoin:round;}</style>
 </defs>
 <g id="figure_1">
  <g id="patch_1">
   <path d="M 0 345.6 
L 460.8 345.6 
L 460.8 0 
L 0 0 
z
" style="fill:#ffffff;"/>
  </g>
  <g id="axes_1">
   <g id="patch_2">
    <path d="M 57.6 307.584 
L 414.72 307.584 
L 414.72 41.472 
L 57.6 41.472 
z
" style="fill:#ffffff;"/>
   </g>
   <g id="matplotlib.axis_1">
    <g id="xtick_1">
     <g id="line2d_1">
      <defs>
       <path d="M 0 0 
L 0 3.5 
" id="m262280a5fc" style="stroke:#000000;stroke-width:0.8;"/>
      </defs>
      <g>
       <use style="stroke:#000000;stroke-width:0.8;" x="73.832727" xlink:href="#m262280a5fc" y="307.584"/>
      </g>
     </g>
     <g id="text_1">
      <!-- 0 -->
      <g transform="translate(70.651477 322.182437)scale(0.1 -0.1)">
       <defs>
        <path d="M 2034 4250 
Q 1547 4250 1301 3770 
Q 1056 3291 1056 2328 
Q 1056 1369 1301 889 
Q 1547 409 2034 409 
Q 2525 409 2770 889 
Q 3016 1369 3016 2328 
Q 3016 3291 2770 3770 
Q 2525 4250 2034 4250 
z
M 2034 4750 
Q 2819 4750 3233 4129 
Q 3647 3509 3647 2328 
Q 3647 1150 3233 529 
Q 2819 -91 2034 -91 
Q 1250 -91 836 529 
Q 422 1150 422 2328 
Q 422 3509 836 4129 
Q 1250 4750 2034 4750 
z
" id="DejaVuSans-30" transform="scale(0.015625)"/>
       </defs>
       <use xlink:href="#DejaVuSans-30"/>
      </g>
     </g>
    </g>
    <g id="xtick_2">
     <g id="line2d_2">
      <g>
       <use style="stroke:#000000;stroke-width:0.8;" x="114.212646" xlink:href="#m262280a5fc" y="307.584"/>
      </g>
     </g>
     <g id="text_2">
      <!-- 25 -->
      <g transform="translate(107.850146 322.182437)scale(0.1 -0.1)">
       <defs>
        <path d="M 1228 531 
L 3431 531 
L 3431 0 
L 469 0 
L 469 531 
Q 828 903 1448 1529 
Q 2069 2156 2228 2338 
Q 2531 2678 2651 2914 
Q 2772 3150 2772 3378 
Q 2772 3750 2511 3984 
Q 2250 4219 1831 4219 
Q 1534 4219 1204 4116 
Q 875 4013 500 3803 
L 500 4441 
Q 881 4594 1212 4672 
Q 1544 4750 1819 4750 
Q 2544 4750 2975 4387 
Q 3406 4025 3406 3419 
Q 3406 3131 3298 2873 
Q 3191 2616 2906 2266 
Q 2828 2175 2409 1742 
Q 1991 1309 1228 531 
z
" id="DejaVuSans-32" transform="scale(0.015625)"/>
        <path d="M 691 4666 
L 3169 4666 
L 3169 4134 
L 1269 4134 
L 1269 2991 
Q 1406 3038 1543 3061 
Q 1681 3084 1819 3084 
Q 2600 3084 3056 2656 
Q 3513 2228 3513 1497 
Q 3513 744 3044 326 
Q 2575 -91 1722 -91 
Q 1428 -91 1123 -41 
Q 819 9 494 109 
L 494 744 
Q 775 591 1075 516 
Q 1375 441 1709 441 
Q 2250 441 2565 725 
Q 2881 1009 2881 1497 
Q 2881 1984 2565 2268 
Q 2250 2553 1709 2553 
Q 1456 2553 1204 2497 
Q 953 2441 691 2322 
L 691 4666 
z
" id="DejaVuSans-35" transform="scale(0.015625)"/>
       </defs>
       <use xlink:href="#DejaVuSans-32"/>
       <use x="63.623047" xlink:href="#DejaVuSans-35"/>
      </g>
     </g>
    </g>
    <g id="xtick_3">
     <g id="line2d_3">
      <g>
       <use style="stroke:#000000;stroke-width:0.8;" x="154.592564" xlink:href="#m262280a5fc" y="307.584"/>
      </g>
     </g>
     <g id="text_3">
      <!-- 50 -->
      <g transform="translate(148.230064 322.182437)scale(0.1 -0.1)">
       <use xlink:href="#DejaVuSans-35"/>
       <use x="63.623047" xlink:href="#DejaVuSans-30"/>
      </g>
     </g>
    </g>
    <g id="xtick_4">
     <g id="line2d_4">
      <g>
       <use style="stroke:#000000;stroke-width:0.8;" x="194.972483" xlink:href="#m262280a5fc" y="307.584"/>
      </g>
     </g>
     <g id="text_4">
      <!-- 75 -->
      <g transform="translate(188.609983 322.182437)scale(0.1 -0.1)">
       <defs>
        <path d="M 525 4666 
L 3525 4666 
L 3525 4397 
L 1831 0 
L 1172 0 
L 2766 4134 
L 525 4134 
L 525 4666 
z
" id="DejaVuSans-37" transform="scale(0.015625)"/>
       </defs>
       <use xlink:href="#DejaVuSans-37"/>
       <use x="63.623047" xlink:href="#DejaVuSans-35"/>
      </g>
     </g>
    </g>
    <g id="xtick_5">
     <g id="line2d_5">
      <g>
       <use style="stroke:#000000;stroke-width:0.8;" x="235.352402" xlink:href="#m262280a5fc" y="307.584"/>
      </g>
     </g>
     <g id="text_5">
      <!-- 100 -->
      <g transform="translate(225.808652 322.182437)scale(0.1 -0.1)">
       <defs>
        <path d="M 794 531 
L 1825 531 
L 1825 4091 
L 703 3866 
L 703 4441 
L 1819 4666 
L 2450 4666 
L 2450 531 
L 3481 531 
L 3481 0 
L 794 0 
L 794 531 
z
" id="DejaVuSans-31" transform="scale(0.015625)"/>
       </defs>
       <use xlink:href="#DejaVuSans-31"/>
       <use x="63.623047" xlink:href="#DejaVuSans-30"/>
       <use x="127.246094" xlink:href="#DejaVuSans-30"/>
      </g>
     </g>
    </g>
    <g id="xtick_6">
     <g id="line2d_6">
      <g>
       <use style="stroke:#000000;stroke-width:0.8;" x="275.73232" xlink:href="#m262280a5fc" y="307.584"/>
      </g>
     </g>
     <g id="text_6">
      <!-- 125 -->
      <g transform="translate(266.18857 322.182437)scale(0.1 -0.1)">
       <use xlink:href="#DejaVuSans-31"/>
       <use x="63.623047" xlink:href="#DejaVuSans-32"/>
       <use x="127.246094" xlink:href="#DejaVuSans-35"/>
      </g>
     </g>
    </g>
    <g id="xtick_7">
     <g id="line2d_7">
      <g>
       <use style="stroke:#000000;stroke-width:0.8;" x="316.112239" xlink:href="#m262280a5fc" y="307.584"/>
      </g>
     </g>
     <g id="text_7">
      <!-- 150 -->
      <g transform="translate(306.568489 322.182437)scale(0.1 -0.1)">
       <use xlink:href="#DejaVuSans-31"/>
       <use x="63.623047" xlink:href="#DejaVuSans-35"/>
       <use x="127.246094" xlink:href="#DejaVuSans-30"/>
      </g>
     </g>
    </g>
    <g id="xtick_8">
     <g id="line2d_8">
      <g>
       <use style="stroke:#000000;stroke-width:0.8;" x="356.492157" xlink:href="#m262280a5fc" y="307.584"/>
      </g>
     </g>
     <g id="text_8">
      <!-- 175 -->
      <g transform="translate(346.948407 322.182437)scale(0.1 -0.1)">
       <use xlink:href="#DejaVuSans-31"/>
       <use x="63.623047" xlink:href="#DejaVuSans-37"/>
       <use x="127.246094" xlink:href="#DejaVuSans-35"/>
      </g>
     </g>
    </g>
    <g id="xtick_9">
     <g id="line2d_9">
      <g>
       <use style="stroke:#000000;stroke-width:0.8;" x="396.872076" xlink:href="#m262280a5fc" y="307.584"/>
      </g>
     </g>
     <g id="text_9">
      <!-- 200 -->
      <g transform="translate(387.328326 322.182437)scale(0.1 -0.1)">
       <use xlink:href="#DejaVuSans-32"/>
       <use x="63.623047" xlink:href="#DejaVuSans-30"/>
       <use x="127.246094" xlink:href="#DejaVuSans-30"/>
      </g>
     </g>
    </g>
    <g id="text_10">
     <!-- Epoch -->
     <g transform="translate(220.849063 335.860562)scale(0.1 -0.1)">
      <defs>
       <path d="M 628 4666 
L 3578 4666 
L 3578 4134 
L 1259 4134 
L 1259 2753 
L 3481 2753 
L 3481 2222 
L 1259 2222 
L 1259 531 
L 3634 531 
L 3634 0 
L 628 0 
L 628 4666 
z
" id="DejaVuSans-45" transform="scale(0.015625)"/>
       <path d="M 1159 525 
L 1159 -1331 
L 581 -1331 
L 581 3500 
L 1159 3500 
L 1159 2969 
Q 1341 3281 1617 3432 
Q 1894 3584 2278 3584 
Q 2916 3584 3314 3078 
Q 3713 2572 3713 1747 
Q 3713 922 3314 415 
Q 2916 -91 2278 -91 
Q 1894 -91 1617 61 
Q 1341 213 1159 525 
z
M 3116 1747 
Q 3116 2381 2855 2742 
Q 2594 3103 2138 3103 
Q 1681 3103 1420 2742 
Q 1159 2381 1159 1747 
Q 1159 1113 1420 752 
Q 1681 391 2138 391 
Q 2594 391 2855 752 
Q 3116 1113 3116 1747 
z
" id="DejaVuSans-70" transform="scale(0.015625)"/>
       <path d="M 1959 3097 
Q 1497 3097 1228 2736 
Q 959 2375 959 1747 
Q 959 1119 1226 758 
Q 1494 397 1959 397 
Q 2419 397 2687 759 
Q 2956 1122 2956 1747 
Q 2956 2369 2687 2733 
Q 2419 3097 1959 3097 
z
M 1959 3584 
Q 2709 3584 3137 3096 
Q 3566 2609 3566 1747 
Q 3566 888 3137 398 
Q 2709 -91 1959 -91 
Q 1206 -91 779 398 
Q 353 888 353 1747 
Q 353 2609 779 3096 
Q 1206 3584 1959 3584 
z
" id="DejaVuSans-6f" transform="scale(0.015625)"/>
       <path d="M 3122 3366 
L 3122 2828 
Q 2878 2963 2633 3030 
Q 2388 3097 2138 3097 
Q 1578 3097 1268 2742 
Q 959 2388 959 1747 
Q 959 1106 1268 751 
Q 1578 397 2138 397 
Q 2388 397 2633 464 
Q 2878 531 3122 666 
L 3122 134 
Q 2881 22 2623 -34 
Q 2366 -91 2075 -91 
Q 1284 -91 818 406 
Q 353 903 353 1747 
Q 353 2603 823 3093 
Q 1294 3584 2113 3584 
Q 2378 3584 2631 3529 
Q 2884 3475 3122 3366 
z
" id="DejaVuSans-63" transform="scale(0.015625)"/>
       <path d="M 3513 2113 
L 3513 0 
L 2938 0 
L 2938 2094 
Q 2938 2591 2744 2837 
Q 2550 3084 2163 3084 
Q 1697 3084 1428 2787 
Q 1159 2491 1159 1978 
L 1159 0 
L 581 0 
L 581 4863 
L 1159 4863 
L 1159 2956 
Q 1366 3272 1645 3428 
Q 1925 3584 2291 3584 
Q 2894 3584 3203 3211 
Q 3513 2838 3513 2113 
z
" id="DejaVuSans-68" transform="scale(0.015625)"/>
      </defs>
      <use xlink:href="#DejaVuSans-45"/>
      <use x="63.183594" xlink:href="#DejaVuSans-70"/>
      <use x="126.660156" xlink:href="#DejaVuSans-6f"/>
      <use x="187.841797" xlink:href="#DejaVuSans-63"/>
      <use x="242.822266" xlink:href="#DejaVuSans-68"/>
     </g>
    </g>
   </g>
   <g id="matplotlib.axis_2">
    <g id="ytick_1">
     <g id="line2d_10">
      <defs>
       <path d="M 0 0 
L -3.5 0 
" id="m2748b3b4cf" style="stroke:#000000;stroke-width:0.8;"/>
      </defs>
      <g>
       <use style="stroke:#000000;stroke-width:0.8;" x="57.6" xlink:href="#m2748b3b4cf" y="272.077866"/>
      </g>
     </g>
     <g id="text_11">
      <!-- 4 -->
      <g transform="translate(44.2375 275.877084)scale(0.1 -0.1)">
       <defs>
        <path d="M 2419 4116 
L 825 1625 
L 2419 1625 
L 2419 4116 
z
M 2253 4666 
L 3047 4666 
L 3047 1625 
L 3713 1625 
L 3713 1100 
L 3047 1100 
L 3047 0 
L 2419 0 
L 2419 1100 
L 313 1100 
L 313 1709 
L 2253 4666 
z
" id="DejaVuSans-34" transform="scale(0.015625)"/>
       </defs>
       <use xlink:href="#DejaVuSans-34"/>
      </g>
     </g>
    </g>
    <g id="ytick_2">
     <g id="line2d_11">
      <g>
       <use style="stroke:#000000;stroke-width:0.8;" x="57.6" xlink:href="#m2748b3b4cf" y="230.228473"/>
      </g>
     </g>
     <g id="text_12">
      <!-- 6 -->
      <g transform="translate(44.2375 234.027692)scale(0.1 -0.1)">
       <defs>
        <path d="M 2113 2584 
Q 1688 2584 1439 2293 
Q 1191 2003 1191 1497 
Q 1191 994 1439 701 
Q 1688 409 2113 409 
Q 2538 409 2786 701 
Q 3034 994 3034 1497 
Q 3034 2003 2786 2293 
Q 2538 2584 2113 2584 
z
M 3366 4563 
L 3366 3988 
Q 3128 4100 2886 4159 
Q 2644 4219 2406 4219 
Q 1781 4219 1451 3797 
Q 1122 3375 1075 2522 
Q 1259 2794 1537 2939 
Q 1816 3084 2150 3084 
Q 2853 3084 3261 2657 
Q 3669 2231 3669 1497 
Q 3669 778 3244 343 
Q 2819 -91 2113 -91 
Q 1303 -91 875 529 
Q 447 1150 447 2328 
Q 447 3434 972 4092 
Q 1497 4750 2381 4750 
Q 2619 4750 2861 4703 
Q 3103 4656 3366 4563 
z
" id="DejaVuSans-36" transform="scale(0.015625)"/>
       </defs>
       <use xlink:href="#DejaVuSans-36"/>
      </g>
     </g>
    </g>
    <g id="ytick_3">
     <g id="line2d_12">
      <g>
       <use style="stroke:#000000;stroke-width:0.8;" x="57.6" xlink:href="#m2748b3b4cf" y="188.379081"/>
      </g>
     </g>
     <g id="text_13">
      <!-- 8 -->
      <g transform="translate(44.2375 192.1783)scale(0.1 -0.1)">
       <defs>
        <path d="M 2034 2216 
Q 1584 2216 1326 1975 
Q 1069 1734 1069 1313 
Q 1069 891 1326 650 
Q 1584 409 2034 409 
Q 2484 409 2743 651 
Q 3003 894 3003 1313 
Q 3003 1734 2745 1975 
Q 2488 2216 2034 2216 
z
M 1403 2484 
Q 997 2584 770 2862 
Q 544 3141 544 3541 
Q 544 4100 942 4425 
Q 1341 4750 2034 4750 
Q 2731 4750 3128 4425 
Q 3525 4100 3525 3541 
Q 3525 3141 3298 2862 
Q 3072 2584 2669 2484 
Q 3125 2378 3379 2068 
Q 3634 1759 3634 1313 
Q 3634 634 3220 271 
Q 2806 -91 2034 -91 
Q 1263 -91 848 271 
Q 434 634 434 1313 
Q 434 1759 690 2068 
Q 947 2378 1403 2484 
z
M 1172 3481 
Q 1172 3119 1398 2916 
Q 1625 2713 2034 2713 
Q 2441 2713 2670 2916 
Q 2900 3119 2900 3481 
Q 2900 3844 2670 4047 
Q 2441 4250 2034 4250 
Q 1625 4250 1398 4047 
Q 1172 3844 1172 3481 
z
" id="DejaVuSans-38" transform="scale(0.015625)"/>
       </defs>
       <use xlink:href="#DejaVuSans-38"/>
      </g>
     </g>
    </g>
    <g id="ytick_4">
     <g id="line2d_13">
      <g>
       <use style="stroke:#000000;stroke-width:0.8;" x="57.6" xlink:href="#m2748b3b4cf" y="146.529688"/>
      </g>
     </g>
     <g id="text_14">
      <!-- 10 -->
      <g transform="translate(37.875 150.328907)scale(0.1 -0.1)">
       <use xlink:href="#DejaVuSans-31"/>
       <use x="63.623047" xlink:href="#DejaVuSans-30"/>
      </g>
     </g>
    </g>
    <g id="ytick_5">
     <g id="line2d_14">
      <g>
       <use style="stroke:#000000;stroke-width:0.8;" x="57.6" xlink:href="#m2748b3b4cf" y="104.680296"/>
      </g>
     </g>
     <g id="text_15">
      <!-- 12 -->
      <g transform="translate(37.875 108.479515)scale(0.1 -0.1)">
       <use xlink:href="#DejaVuSans-31"/>
       <use x="63.623047" xlink:href="#DejaVuSans-32"/>
      </g>
     </g>
    </g>
    <g id="ytick_6">
     <g id="line2d_15">
      <g>
       <use style="stroke:#000000;stroke-width:0.8;" x="57.6" xlink:href="#m2748b3b4cf" y="62.830904"/>
      </g>
     </g>
     <g id="text_16">
      <!-- 14 -->
      <g transform="translate(37.875 66.630122)scale(0.1 -0.1)">
       <use xlink:href="#DejaVuSans-31"/>
       <use x="63.623047" xlink:href="#DejaVuSans-34"/>
      </g>
     </g>
    </g>
    <g id="text_17">
     <!-- Error -->
     <g transform="translate(31.795313 186.713156)rotate(-90)scale(0.1 -0.1)">
      <defs>
       <path d="M 2631 2963 
Q 2534 3019 2420 3045 
Q 2306 3072 2169 3072 
Q 1681 3072 1420 2755 
Q 1159 2438 1159 1844 
L 1159 0 
L 581 0 
L 581 3500 
L 1159 3500 
L 1159 2956 
Q 1341 3275 1631 3429 
Q 1922 3584 2338 3584 
Q 2397 3584 2469 3576 
Q 2541 3569 2628 3553 
L 2631 2963 
z
" id="DejaVuSans-72" transform="scale(0.015625)"/>
      </defs>
      <use xlink:href="#DejaVuSans-45"/>
      <use x="63.183594" xlink:href="#DejaVuSans-72"/>
      <use x="102.546875" xlink:href="#DejaVuSans-72"/>
      <use x="141.410156" xlink:href="#DejaVuSans-6f"/>
      <use x="202.591797" xlink:href="#DejaVuSans-72"/>
     </g>
    </g>
   </g>
   <g id="line2d_16">
    <path clip-path="url(#p189aed3712)" d="M 73.832727 53.568 
L 75.447924 134.562542 
L 77.063121 126.830681 
L 78.678318 136.629104 
L 80.293514 155.574564 
L 81.908711 193.102205 
L 83.523908 218.52346 
L 85.139104 157.299431 
L 86.754301 178.875585 
L 88.369498 195.758774 
L 89.984695 205.78083 
L 91.599891 228.314855 
L 93.215088 245.469981 
L 94.830285 220.83207 
L 96.445482 241.364737 
L 98.060678 250.042072 
L 99.675875 256.316411 
L 101.291072 258.086624 
L 102.906269 264.388395 
L 104.521465 261.971022 
L 106.136662 264.193702 
L 107.751859 267.468087 
L 109.367056 269.34187 
L 110.982252 269.636313 
L 112.597449 264.645508 
L 115.827843 271.236874 
L 117.443039 273.302313 
L 119.058236 274.754366 
L 120.673433 277.964734 
L 122.28863 278.043053 
L 123.903826 279.64022 
L 125.519023 277.688384 
L 127.13422 280.625416 
L 128.749417 279.010506 
L 130.364613 281.106283 
L 131.97981 277.592846 
L 133.595007 280.705244 
L 135.210204 280.921617 
L 136.8254 279.460136 
L 138.440597 268.494105 
L 140.055794 269.476973 
L 141.670991 273.21699 
L 143.286187 278.029381 
L 144.901384 278.705652 
L 146.516581 280.350031 
L 148.131777 281.463902 
L 149.746974 281.094065 
L 151.362171 281.899239 
L 152.977368 281.761196 
L 154.592564 280.692578 
L 156.207761 278.993216 
L 157.822958 279.228718 
L 159.438155 276.327652 
L 161.053351 281.527708 
L 162.668548 279.728129 
L 164.283745 279.781037 
L 165.898942 281.961165 
L 167.514138 283.491706 
L 169.129335 284.368074 
L 170.744532 280.055397 
L 172.359729 277.453864 
L 173.974925 278.876593 
L 175.590122 282.506982 
L 177.205319 283.637857 
L 178.820516 286.332089 
L 180.435712 287.548718 
L 182.050909 286.991531 
L 183.666106 286.565572 
L 185.281303 288.241456 
L 186.896499 286.814028 
L 188.511696 288.499637 
L 190.126893 287.117943 
L 191.74209 289.386371 
L 193.357286 283.235836 
L 194.972483 286.311989 
L 196.58768 286.072769 
L 198.202877 287.966328 
L 199.818073 284.301555 
L 201.43327 288.19769 
L 203.048467 286.806126 
L 204.663664 287.257803 
L 206.27886 283.609552 
L 207.894057 285.941217 
L 209.509254 284.23792 
L 211.12445 285.294049 
L 212.739647 286.758056 
L 214.354844 288.418915 
L 215.970041 287.789125 
L 217.585237 289.231081 
L 219.200434 289.247282 
L 220.815631 285.347722 
L 222.430828 282.700945 
L 224.046024 285.758549 
L 225.661221 287.498285 
L 227.276418 285.4606 
L 228.891615 286.722184 
L 230.506811 289.793259 
L 232.122008 291.138159 
L 233.737205 288.600717 
L 235.352402 290.013222 
L 236.967598 290.967001 
L 238.582795 291.479928 
L 240.197992 290.376533 
L 241.813189 291.750452 
L 243.428385 289.294417 
L 245.043582 290.10122 
L 246.658779 286.549056 
L 248.273976 289.180449 
L 249.889172 288.592761 
L 251.504369 290.175147 
L 253.119566 287.595906 
L 254.734763 289.735405 
L 256.349959 288.504622 
L 257.965156 290.66774 
L 259.580353 289.026407 
L 261.19555 288.907106 
L 262.810746 288.07774 
L 264.425943 283.86723 
L 266.04114 230.94492 
L 267.656336 223.058561 
L 269.271533 236.352954 
L 270.88673 260.556847 
L 272.501927 263.604782 
L 274.117123 277.078463 
L 275.73232 281.597404 
L 277.347517 283.547548 
L 278.962714 285.008247 
L 280.57791 285.299541 
L 282.193107 286.731662 
L 283.808304 287.195926 
L 285.423501 287.01777 
L 287.038697 287.15508 
L 288.653894 288.814716 
L 290.269091 288.123852 
L 291.884288 289.057927 
L 293.499484 286.337291 
L 295.114681 286.826789 
L 296.729878 282.258139 
L 298.345075 281.298559 
L 301.575468 288.846452 
L 303.190665 285.919806 
L 304.805862 287.186546 
L 306.421058 287.788698 
L 308.036255 287.612108 
L 309.651452 289.65619 
L 311.266649 290.024255 
L 312.881845 291.658396 
L 314.497042 291.814768 
L 316.112239 292.594599 
L 317.727436 292.267475 
L 319.342632 291.250803 
L 320.957829 289.397408 
L 322.573026 292.014522 
L 324.188223 292.14114 
L 325.803419 292.556768 
L 329.033813 292.556286 
L 330.649009 291.215582 
L 332.264206 292.537152 
L 333.879403 292.719228 
L 335.4946 293.021635 
L 337.109796 293.961531 
L 338.724993 293.649429 
L 340.34019 293.52441 
L 341.955387 291.967762 
L 343.570583 289.578243 
L 345.18578 290.735662 
L 346.800977 291.096601 
L 348.416174 289.984101 
L 350.03137 286.620354 
L 351.646567 289.16789 
L 353.261764 292.454223 
L 354.876961 292.575548 
L 356.492157 292.370621 
L 358.107354 293.392172 
L 359.722551 293.303818 
L 361.337748 294.048853 
L 362.952944 294.139039 
L 364.568141 294.826869 
L 366.183338 294.870465 
L 367.798535 294.346284 
L 369.413731 294.492623 
L 371.028928 294.401762 
L 372.644125 293.913888 
L 374.259322 294.658293 
L 377.489715 294.870822 
L 380.720109 295.488 
L 382.335305 295.009003 
L 383.950502 295.039105 
L 385.565699 294.69808 
L 387.180896 295.055989 
L 388.796092 294.832033 
L 390.411289 294.444065 
L 392.026486 294.917546 
L 395.256879 293.921365 
L 396.872076 291.319836 
L 398.487273 290.979684 
L 398.487273 290.979684 
" style="fill:none;stroke:#0000ff;stroke-linecap:square;stroke-width:1.5;"/>
   </g>
   <g id="line2d_17">
    <path clip-path="url(#p189aed3712)" d="M 73.832727 64.433877 
L 75.447924 138.353101 
L 77.063121 131.712797 
L 78.678318 137.316036 
L 80.293514 158.298872 
L 83.523908 224.289333 
L 85.139104 144.101275 
L 86.754301 176.853956 
L 88.369498 192.130163 
L 89.984695 214.069948 
L 91.599891 230.96241 
L 93.215088 255.368166 
L 94.830285 219.339083 
L 96.445482 243.515272 
L 99.675875 259.773553 
L 101.291072 260.275371 
L 102.906269 268.712699 
L 104.521465 265.712238 
L 107.751859 272.03029 
L 109.367056 273.388288 
L 110.982252 273.129047 
L 112.597449 267.248153 
L 114.212646 273.084189 
L 117.443039 278.19448 
L 119.058236 279.808511 
L 120.673433 281.950644 
L 122.28863 281.777221 
L 123.903826 282.173997 
L 125.519023 280.518638 
L 127.13422 282.887494 
L 128.749417 281.887616 
L 130.364613 283.253926 
L 131.97981 280.298846 
L 133.595007 282.089745 
L 135.210204 281.128243 
L 136.8254 280.59828 
L 138.440597 265.459604 
L 140.055794 269.556949 
L 141.670991 274.891246 
L 143.286187 278.60326 
L 144.901384 279.766614 
L 146.516581 280.208076 
L 148.131777 280.305683 
L 149.746974 281.262403 
L 151.362171 279.457579 
L 152.977368 279.160752 
L 154.592564 278.548194 
L 156.207761 281.84359 
L 157.822958 278.575661 
L 159.438155 277.409093 
L 161.053351 279.663701 
L 162.668548 280.710154 
L 164.283745 278.966613 
L 165.898942 282.040564 
L 167.514138 282.336272 
L 169.129335 280.666887 
L 170.744532 278.79609 
L 172.359729 276.171344 
L 173.974925 280.425783 
L 175.590122 283.027905 
L 177.205319 282.143148 
L 178.820516 285.923035 
L 180.435712 285.990691 
L 182.050909 284.612932 
L 183.666106 285.861592 
L 185.281303 286.029671 
L 186.896499 284.660753 
L 188.511696 284.884914 
L 190.126893 285.59533 
L 191.74209 285.741032 
L 193.357286 279.419246 
L 194.972483 283.326669 
L 196.58768 284.799523 
L 198.202877 286.947021 
L 199.818073 283.462374 
L 201.43327 285.820388 
L 203.048467 285.329978 
L 204.663664 286.107496 
L 206.27886 282.497874 
L 207.894057 283.404173 
L 209.509254 284.531484 
L 212.739647 284.684549 
L 214.354844 287.855378 
L 215.970041 286.419944 
L 217.585237 286.650219 
L 219.200434 285.859213 
L 220.815631 282.527498 
L 222.430828 281.097235 
L 224.046024 283.505595 
L 225.661221 283.84205 
L 227.276418 282.638208 
L 228.891615 285.751597 
L 230.506811 286.743453 
L 232.122008 288.264484 
L 233.737205 285.855657 
L 235.352402 288.551889 
L 236.967598 287.946366 
L 238.582795 288.35434 
L 240.197992 286.899862 
L 241.813189 288.55145 
L 243.428385 285.665442 
L 245.043582 286.706346 
L 246.658779 285.278168 
L 249.889172 286.330994 
L 253.119566 286.052553 
L 254.734763 285.46789 
L 256.349959 287.248447 
L 257.965156 286.941615 
L 259.580353 286.123371 
L 261.19555 285.755796 
L 262.810746 284.417251 
L 264.425943 281.031021 
L 266.04114 237.532575 
L 267.656336 219.341809 
L 269.271533 234.996001 
L 270.88673 261.428535 
L 272.501927 265.561946 
L 274.117123 274.906243 
L 275.73232 280.70161 
L 277.347517 281.56942 
L 278.962714 284.68817 
L 280.57791 283.993727 
L 282.193107 285.433848 
L 283.808304 285.444113 
L 285.423501 284.047162 
L 288.653894 285.523226 
L 290.269091 284.553616 
L 291.884288 285.782091 
L 293.499484 283.773805 
L 295.114681 285.317931 
L 296.729878 280.221222 
L 298.345075 279.431864 
L 299.960271 282.743919 
L 301.575468 287.038341 
L 303.190665 281.621698 
L 304.805862 286.634117 
L 306.421058 284.159123 
L 308.036255 285.357768 
L 309.651452 285.208718 
L 311.266649 286.911595 
L 312.881845 286.483065 
L 314.497042 288.458876 
L 316.112239 287.458431 
L 317.727436 288.837635 
L 319.342632 285.634772 
L 320.957829 286.901182 
L 322.573026 287.453434 
L 324.188223 289.47073 
L 325.803419 287.436021 
L 327.418616 288.889355 
L 329.033813 287.485265 
L 330.649009 287.955191 
L 332.264206 287.279792 
L 333.879403 288.161217 
L 335.4946 287.626027 
L 337.109796 288.797078 
L 338.724993 288.399414 
L 340.34019 289.926819 
L 341.955387 287.432546 
L 345.18578 286.262663 
L 346.800977 287.763291 
L 350.03137 283.722395 
L 351.646567 285.870163 
L 353.261764 288.755935 
L 354.876961 286.719812 
L 356.492157 288.430455 
L 358.107354 287.151451 
L 359.722551 288.91299 
L 361.337748 287.702409 
L 362.952944 289.698586 
L 364.568141 288.746957 
L 366.183338 289.500923 
L 367.798535 288.610901 
L 369.413731 289.258404 
L 371.028928 288.055752 
L 372.644125 289.596295 
L 374.259322 288.145082 
L 375.874518 289.604839 
L 377.489715 287.841438 
L 379.104912 289.653349 
L 380.720109 288.710565 
L 382.335305 289.282897 
L 383.950502 288.614897 
L 385.565699 288.503705 
L 387.180896 288.954044 
L 393.641682 288.692336 
L 395.256879 287.772448 
L 396.872076 287.793539 
L 398.487273 285.432712 
L 398.487273 285.432712 
" style="fill:none;stroke:#ffa500;stroke-dasharray:5.55,2.4;stroke-dashoffset:0;stroke-width:1.5;"/>
   </g>
   <g id="patch_3">
    <path d="M 57.6 307.584 
L 57.6 41.472 
" style="fill:none;stroke:#000000;stroke-linecap:square;stroke-linejoin:miter;stroke-width:0.8;"/>
   </g>
   <g id="patch_4">
    <path d="M 414.72 307.584 
L 414.72 41.472 
" style="fill:none;stroke:#000000;stroke-linecap:square;stroke-linejoin:miter;stroke-width:0.8;"/>
   </g>
   <g id="patch_5">
    <path d="M 57.6 307.584 
L 414.72 307.584 
" style="fill:none;stroke:#000000;stroke-linecap:square;stroke-linejoin:miter;stroke-width:0.8;"/>
   </g>
   <g id="patch_6">
    <path d="M 57.6 41.472 
L 414.72 41.472 
" style="fill:none;stroke:#000000;stroke-linecap:square;stroke-linejoin:miter;stroke-width:0.8;"/>
   </g>
   <g id="text_18">
    <!-- Ensemble 4 (SGD): Grid Search Mean Euclidean Error -->
    <g transform="translate(76.41 35.472)scale(0.12 -0.12)">
     <defs>
      <path d="M 3513 2113 
L 3513 0 
L 2938 0 
L 2938 2094 
Q 2938 2591 2744 2837 
Q 2550 3084 2163 3084 
Q 1697 3084 1428 2787 
Q 1159 2491 1159 1978 
L 1159 0 
L 581 0 
L 581 3500 
L 1159 3500 
L 1159 2956 
Q 1366 3272 1645 3428 
Q 1925 3584 2291 3584 
Q 2894 3584 3203 3211 
Q 3513 2838 3513 2113 
z
" id="DejaVuSans-6e" transform="scale(0.015625)"/>
      <path d="M 2834 3397 
L 2834 2853 
Q 2591 2978 2328 3040 
Q 2066 3103 1784 3103 
Q 1356 3103 1142 2972 
Q 928 2841 928 2578 
Q 928 2378 1081 2264 
Q 1234 2150 1697 2047 
L 1894 2003 
Q 2506 1872 2764 1633 
Q 3022 1394 3022 966 
Q 3022 478 2636 193 
Q 2250 -91 1575 -91 
Q 1294 -91 989 -36 
Q 684 19 347 128 
L 347 722 
Q 666 556 975 473 
Q 1284 391 1588 391 
Q 1994 391 2212 530 
Q 2431 669 2431 922 
Q 2431 1156 2273 1281 
Q 2116 1406 1581 1522 
L 1381 1569 
Q 847 1681 609 1914 
Q 372 2147 372 2553 
Q 372 3047 722 3315 
Q 1072 3584 1716 3584 
Q 2034 3584 2315 3537 
Q 2597 3491 2834 3397 
z
" id="DejaVuSans-73" transform="scale(0.015625)"/>
      <path d="M 3597 1894 
L 3597 1613 
L 953 1613 
Q 991 1019 1311 708 
Q 1631 397 2203 397 
Q 2534 397 2845 478 
Q 3156 559 3463 722 
L 3463 178 
Q 3153 47 2828 -22 
Q 2503 -91 2169 -91 
Q 1331 -91 842 396 
Q 353 884 353 1716 
Q 353 2575 817 3079 
Q 1281 3584 2069 3584 
Q 2775 3584 3186 3129 
Q 3597 2675 3597 1894 
z
M 3022 2063 
Q 3016 2534 2758 2815 
Q 2500 3097 2075 3097 
Q 1594 3097 1305 2825 
Q 1016 2553 972 2059 
L 3022 2063 
z
" id="DejaVuSans-65" transform="scale(0.015625)"/>
      <path d="M 3328 2828 
Q 3544 3216 3844 3400 
Q 4144 3584 4550 3584 
Q 5097 3584 5394 3201 
Q 5691 2819 5691 2113 
L 5691 0 
L 5113 0 
L 5113 2094 
Q 5113 2597 4934 2840 
Q 4756 3084 4391 3084 
Q 3944 3084 3684 2787 
Q 3425 2491 3425 1978 
L 3425 0 
L 2847 0 
L 2847 2094 
Q 2847 2600 2669 2842 
Q 2491 3084 2119 3084 
Q 1678 3084 1418 2786 
Q 1159 2488 1159 1978 
L 1159 0 
L 581 0 
L 581 3500 
L 1159 3500 
L 1159 2956 
Q 1356 3278 1631 3431 
Q 1906 3584 2284 3584 
Q 2666 3584 2933 3390 
Q 3200 3197 3328 2828 
z
" id="DejaVuSans-6d" transform="scale(0.015625)"/>
      <path d="M 3116 1747 
Q 3116 2381 2855 2742 
Q 2594 3103 2138 3103 
Q 1681 3103 1420 2742 
Q 1159 2381 1159 1747 
Q 1159 1113 1420 752 
Q 1681 391 2138 391 
Q 2594 391 2855 752 
Q 3116 1113 3116 1747 
z
M 1159 2969 
Q 1341 3281 1617 3432 
Q 1894 3584 2278 3584 
Q 2916 3584 3314 3078 
Q 3713 2572 3713 1747 
Q 3713 922 3314 415 
Q 2916 -91 2278 -91 
Q 1894 -91 1617 61 
Q 1341 213 1159 525 
L 1159 0 
L 581 0 
L 581 4863 
L 1159 4863 
L 1159 2969 
z
" id="DejaVuSans-62" transform="scale(0.015625)"/>
      <path d="M 603 4863 
L 1178 4863 
L 1178 0 
L 603 0 
L 603 4863 
z
" id="DejaVuSans-6c" transform="scale(0.015625)"/>
      <path id="DejaVuSans-20" transform="scale(0.015625)"/>
      <path d="M 1984 4856 
Q 1566 4138 1362 3434 
Q 1159 2731 1159 2009 
Q 1159 1288 1364 580 
Q 1569 -128 1984 -844 
L 1484 -844 
Q 1016 -109 783 600 
Q 550 1309 550 2009 
Q 550 2706 781 3412 
Q 1013 4119 1484 4856 
L 1984 4856 
z
" id="DejaVuSans-28" transform="scale(0.015625)"/>
      <path d="M 3425 4513 
L 3425 3897 
Q 3066 4069 2747 4153 
Q 2428 4238 2131 4238 
Q 1616 4238 1336 4038 
Q 1056 3838 1056 3469 
Q 1056 3159 1242 3001 
Q 1428 2844 1947 2747 
L 2328 2669 
Q 3034 2534 3370 2195 
Q 3706 1856 3706 1288 
Q 3706 609 3251 259 
Q 2797 -91 1919 -91 
Q 1588 -91 1214 -16 
Q 841 59 441 206 
L 441 856 
Q 825 641 1194 531 
Q 1563 422 1919 422 
Q 2459 422 2753 634 
Q 3047 847 3047 1241 
Q 3047 1584 2836 1778 
Q 2625 1972 2144 2069 
L 1759 2144 
Q 1053 2284 737 2584 
Q 422 2884 422 3419 
Q 422 4038 858 4394 
Q 1294 4750 2059 4750 
Q 2388 4750 2728 4690 
Q 3069 4631 3425 4513 
z
" id="DejaVuSans-53" transform="scale(0.015625)"/>
      <path d="M 3809 666 
L 3809 1919 
L 2778 1919 
L 2778 2438 
L 4434 2438 
L 4434 434 
Q 4069 175 3628 42 
Q 3188 -91 2688 -91 
Q 1594 -91 976 548 
Q 359 1188 359 2328 
Q 359 3472 976 4111 
Q 1594 4750 2688 4750 
Q 3144 4750 3555 4637 
Q 3966 4525 4313 4306 
L 4313 3634 
Q 3963 3931 3569 4081 
Q 3175 4231 2741 4231 
Q 1884 4231 1454 3753 
Q 1025 3275 1025 2328 
Q 1025 1384 1454 906 
Q 1884 428 2741 428 
Q 3075 428 3337 486 
Q 3600 544 3809 666 
z
" id="DejaVuSans-47" transform="scale(0.015625)"/>
      <path d="M 1259 4147 
L 1259 519 
L 2022 519 
Q 2988 519 3436 956 
Q 3884 1394 3884 2338 
Q 3884 3275 3436 3711 
Q 2988 4147 2022 4147 
L 1259 4147 
z
M 628 4666 
L 1925 4666 
Q 3281 4666 3915 4102 
Q 4550 3538 4550 2338 
Q 4550 1131 3912 565 
Q 3275 0 1925 0 
L 628 0 
L 628 4666 
z
" id="DejaVuSans-44" transform="scale(0.015625)"/>
      <path d="M 513 4856 
L 1013 4856 
Q 1481 4119 1714 3412 
Q 1947 2706 1947 2009 
Q 1947 1309 1714 600 
Q 1481 -109 1013 -844 
L 513 -844 
Q 928 -128 1133 580 
Q 1338 1288 1338 2009 
Q 1338 2731 1133 3434 
Q 928 4138 513 4856 
z
" id="DejaVuSans-29" transform="scale(0.015625)"/>
      <path d="M 750 794 
L 1409 794 
L 1409 0 
L 750 0 
L 750 794 
z
M 750 3309 
L 1409 3309 
L 1409 2516 
L 750 2516 
L 750 3309 
z
" id="DejaVuSans-3a" transform="scale(0.015625)"/>
      <path d="M 603 3500 
L 1178 3500 
L 1178 0 
L 603 0 
L 603 3500 
z
M 603 4863 
L 1178 4863 
L 1178 4134 
L 603 4134 
L 603 4863 
z
" id="DejaVuSans-69" transform="scale(0.015625)"/>
      <path d="M 2906 2969 
L 2906 4863 
L 3481 4863 
L 3481 0 
L 2906 0 
L 2906 525 
Q 2725 213 2448 61 
Q 2172 -91 1784 -91 
Q 1150 -91 751 415 
Q 353 922 353 1747 
Q 353 2572 751 3078 
Q 1150 3584 1784 3584 
Q 2172 3584 2448 3432 
Q 2725 3281 2906 2969 
z
M 947 1747 
Q 947 1113 1208 752 
Q 1469 391 1925 391 
Q 2381 391 2643 752 
Q 2906 1113 2906 1747 
Q 2906 2381 2643 2742 
Q 2381 3103 1925 3103 
Q 1469 3103 1208 2742 
Q 947 2381 947 1747 
z
" id="DejaVuSans-64" transform="scale(0.015625)"/>
      <path d="M 2194 1759 
Q 1497 1759 1228 1600 
Q 959 1441 959 1056 
Q 959 750 1161 570 
Q 1363 391 1709 391 
Q 2188 391 2477 730 
Q 2766 1069 2766 1631 
L 2766 1759 
L 2194 1759 
z
M 3341 1997 
L 3341 0 
L 2766 0 
L 2766 531 
Q 2569 213 2275 61 
Q 1981 -91 1556 -91 
Q 1019 -91 701 211 
Q 384 513 384 1019 
Q 384 1609 779 1909 
Q 1175 2209 1959 2209 
L 2766 2209 
L 2766 2266 
Q 2766 2663 2505 2880 
Q 2244 3097 1772 3097 
Q 1472 3097 1187 3025 
Q 903 2953 641 2809 
L 641 3341 
Q 956 3463 1253 3523 
Q 1550 3584 1831 3584 
Q 2591 3584 2966 3190 
Q 3341 2797 3341 1997 
z
" id="DejaVuSans-61" transform="scale(0.015625)"/>
      <path d="M 628 4666 
L 1569 4666 
L 2759 1491 
L 3956 4666 
L 4897 4666 
L 4897 0 
L 4281 0 
L 4281 4097 
L 3078 897 
L 2444 897 
L 1241 4097 
L 1241 0 
L 628 0 
L 628 4666 
z
" id="DejaVuSans-4d" transform="scale(0.015625)"/>
      <path d="M 544 1381 
L 544 3500 
L 1119 3500 
L 1119 1403 
Q 1119 906 1312 657 
Q 1506 409 1894 409 
Q 2359 409 2629 706 
Q 2900 1003 2900 1516 
L 2900 3500 
L 3475 3500 
L 3475 0 
L 2900 0 
L 2900 538 
Q 2691 219 2414 64 
Q 2138 -91 1772 -91 
Q 1169 -91 856 284 
Q 544 659 544 1381 
z
M 1991 3584 
L 1991 3584 
z
" id="DejaVuSans-75" transform="scale(0.015625)"/>
     </defs>
     <use xlink:href="#DejaVuSans-45"/>
     <use x="63.183594" xlink:href="#DejaVuSans-6e"/>
     <use x="126.5625" xlink:href="#DejaVuSans-73"/>
     <use x="178.662109" xlink:href="#DejaVuSans-65"/>
     <use x="240.185547" xlink:href="#DejaVuSans-6d"/>
     <use x="337.597656" xlink:href="#DejaVuSans-62"/>
     <use x="401.074219" xlink:href="#DejaVuSans-6c"/>
     <use x="428.857422" xlink:href="#DejaVuSans-65"/>
     <use x="490.380859" xlink:href="#DejaVuSans-20"/>
     <use x="522.167969" xlink:href="#DejaVuSans-34"/>
     <use x="585.791016" xlink:href="#DejaVuSans-20"/>
     <use x="617.578125" xlink:href="#DejaVuSans-28"/>
     <use x="656.591797" xlink:href="#DejaVuSans-53"/>
     <use x="720.068359" xlink:href="#DejaVuSans-47"/>
     <use x="797.558594" xlink:href="#DejaVuSans-44"/>
     <use x="874.560547" xlink:href="#DejaVuSans-29"/>
     <use x="913.574219" xlink:href="#DejaVuSans-3a"/>
     <use x="947.265625" xlink:href="#DejaVuSans-20"/>
     <use x="979.052734" xlink:href="#DejaVuSans-47"/>
     <use x="1056.542969" xlink:href="#DejaVuSans-72"/>
     <use x="1097.65625" xlink:href="#DejaVuSans-69"/>
     <use x="1125.439453" xlink:href="#DejaVuSans-64"/>
     <use x="1188.916016" xlink:href="#DejaVuSans-20"/>
     <use x="1220.703125" xlink:href="#DejaVuSans-53"/>
     <use x="1284.179688" xlink:href="#DejaVuSans-65"/>
     <use x="1345.703125" xlink:href="#DejaVuSans-61"/>
     <use x="1406.982422" xlink:href="#DejaVuSans-72"/>
     <use x="1445.845703" xlink:href="#DejaVuSans-63"/>
     <use x="1500.826172" xlink:href="#DejaVuSans-68"/>
     <use x="1564.205078" xlink:href="#DejaVuSans-20"/>
     <use x="1595.992188" xlink:href="#DejaVuSans-4d"/>
     <use x="1682.271484" xlink:href="#DejaVuSans-65"/>
     <use x="1743.794922" xlink:href="#DejaVuSans-61"/>
     <use x="1805.074219" xlink:href="#DejaVuSans-6e"/>
     <use x="1868.453125" xlink:href="#DejaVuSans-20"/>
     <use x="1900.240234" xlink:href="#DejaVuSans-45"/>
     <use x="1963.423828" xlink:href="#DejaVuSans-75"/>
     <use x="2026.802734" xlink:href="#DejaVuSans-63"/>
     <use x="2081.783203" xlink:href="#DejaVuSans-6c"/>
     <use x="2109.566406" xlink:href="#DejaVuSans-69"/>
     <use x="2137.349609" xlink:href="#DejaVuSans-64"/>
     <use x="2200.826172" xlink:href="#DejaVuSans-65"/>
     <use x="2262.349609" xlink:href="#DejaVuSans-61"/>
     <use x="2323.628906" xlink:href="#DejaVuSans-6e"/>
     <use x="2387.007812" xlink:href="#DejaVuSans-20"/>
     <use x="2418.794922" xlink:href="#DejaVuSans-45"/>
     <use x="2481.978516" xlink:href="#DejaVuSans-72"/>
     <use x="2521.341797" xlink:href="#DejaVuSans-72"/>
     <use x="2560.205078" xlink:href="#DejaVuSans-6f"/>
     <use x="2621.386719" xlink:href="#DejaVuSans-72"/>
    </g>
   </g>
   <g id="legend_1">
    <g id="patch_7">
     <path d="M 298.955938 78.82825 
L 407.72 78.82825 
Q 409.72 78.82825 409.72 76.82825 
L 409.72 48.472 
Q 409.72 46.472 407.72 46.472 
L 298.955938 46.472 
Q 296.955938 46.472 296.955938 48.472 
L 296.955938 76.82825 
Q 296.955938 78.82825 298.955938 78.82825 
z
" style="fill:#ffffff;opacity:0.8;stroke:#cccccc;stroke-linejoin:miter;"/>
    </g>
    <g id="line2d_18">
     <path d="M 300.955938 54.570437 
L 320.955938 54.570437 
" style="fill:none;stroke:#0000ff;stroke-linecap:square;stroke-width:1.5;"/>
    </g>
    <g id="line2d_19"/>
    <g id="text_19">
     <!-- Training error -->
     <g transform="translate(328.955938 58.070437)scale(0.1 -0.1)">
      <defs>
       <path d="M -19 4666 
L 3928 4666 
L 3928 4134 
L 2272 4134 
L 2272 0 
L 1638 0 
L 1638 4134 
L -19 4134 
L -19 4666 
z
" id="DejaVuSans-54" transform="scale(0.015625)"/>
       <path d="M 2906 1791 
Q 2906 2416 2648 2759 
Q 2391 3103 1925 3103 
Q 1463 3103 1205 2759 
Q 947 2416 947 1791 
Q 947 1169 1205 825 
Q 1463 481 1925 481 
Q 2391 481 2648 825 
Q 2906 1169 2906 1791 
z
M 3481 434 
Q 3481 -459 3084 -895 
Q 2688 -1331 1869 -1331 
Q 1566 -1331 1297 -1286 
Q 1028 -1241 775 -1147 
L 775 -588 
Q 1028 -725 1275 -790 
Q 1522 -856 1778 -856 
Q 2344 -856 2625 -561 
Q 2906 -266 2906 331 
L 2906 616 
Q 2728 306 2450 153 
Q 2172 0 1784 0 
Q 1141 0 747 490 
Q 353 981 353 1791 
Q 353 2603 747 3093 
Q 1141 3584 1784 3584 
Q 2172 3584 2450 3431 
Q 2728 3278 2906 2969 
L 2906 3500 
L 3481 3500 
L 3481 434 
z
" id="DejaVuSans-67" transform="scale(0.015625)"/>
      </defs>
      <use xlink:href="#DejaVuSans-54"/>
      <use x="46.333984" xlink:href="#DejaVuSans-72"/>
      <use x="87.447266" xlink:href="#DejaVuSans-61"/>
      <use x="148.726562" xlink:href="#DejaVuSans-69"/>
      <use x="176.509766" xlink:href="#DejaVuSans-6e"/>
      <use x="239.888672" xlink:href="#DejaVuSans-69"/>
      <use x="267.671875" xlink:href="#DejaVuSans-6e"/>
      <use x="331.050781" xlink:href="#DejaVuSans-67"/>
      <use x="394.527344" xlink:href="#DejaVuSans-20"/>
      <use x="426.314453" xlink:href="#DejaVuSans-65"/>
      <use x="487.837891" xlink:href="#DejaVuSans-72"/>
      <use x="527.201172" xlink:href="#DejaVuSans-72"/>
      <use x="566.064453" xlink:href="#DejaVuSans-6f"/>
      <use x="627.246094" xlink:href="#DejaVuSans-72"/>
     </g>
    </g>
    <g id="line2d_20">
     <path d="M 300.955938 69.248562 
L 320.955938 69.248562 
" style="fill:none;stroke:#ffa500;stroke-dasharray:5.55,2.4;stroke-dashoffset:0;stroke-width:1.5;"/>
    </g>
    <g id="line2d_21"/>
    <g id="text_20">
     <!-- Validation error -->
     <g transform="translate(328.955938 72.748562)scale(0.1 -0.1)">
      <defs>
       <path d="M 1831 0 
L 50 4666 
L 709 4666 
L 2188 738 
L 3669 4666 
L 4325 4666 
L 2547 0 
L 1831 0 
z
" id="DejaVuSans-56" transform="scale(0.015625)"/>
       <path d="M 1172 4494 
L 1172 3500 
L 2356 3500 
L 2356 3053 
L 1172 3053 
L 1172 1153 
Q 1172 725 1289 603 
Q 1406 481 1766 481 
L 2356 481 
L 2356 0 
L 1766 0 
Q 1100 0 847 248 
Q 594 497 594 1153 
L 594 3053 
L 172 3053 
L 172 3500 
L 594 3500 
L 594 4494 
L 1172 4494 
z
" id="DejaVuSans-74" transform="scale(0.015625)"/>
      </defs>
      <use xlink:href="#DejaVuSans-56"/>
      <use x="60.658203" xlink:href="#DejaVuSans-61"/>
      <use x="121.9375" xlink:href="#DejaVuSans-6c"/>
      <use x="149.720703" xlink:href="#DejaVuSans-69"/>
      <use x="177.503906" xlink:href="#DejaVuSans-64"/>
      <use x="240.980469" xlink:href="#DejaVuSans-61"/>
      <use x="302.259766" xlink:href="#DejaVuSans-74"/>
      <use x="341.46875" xlink:href="#DejaVuSans-69"/>
      <use x="369.251953" xlink:href="#DejaVuSans-6f"/>
      <use x="430.433594" xlink:href="#DejaVuSans-6e"/>
      <use x="493.8125" xlink:href="#DejaVuSans-20"/>
      <use x="525.599609" xlink:href="#DejaVuSans-65"/>
      <use x="587.123047" xlink:href="#DejaVuSans-72"/>
      <use x="626.486328" xlink:href="#DejaVuSans-72"/>
      <use x="665.349609" xlink:href="#DejaVuSans-6f"/>
      <use x="726.53125" xlink:href="#DejaVuSans-72"/>
     </g>
    </g>
   </g>
  </g>
 </g>
 <defs>
  <clipPath id="p189aed3712">
   <rect height="266.112" width="357.12" x="57.6" y="41.472"/>
  </clipPath>
 </defs>
</svg>
