<?xml version="1.0" encoding="utf-8" standalone="no"?>
<!DOCTYPE svg PUBLIC "-//W3C//DTD SVG 1.1//EN"
  "http://www.w3.org/Graphics/SVG/1.1/DTD/svg11.dtd">
<svg height="345.6pt" version="1.1" viewBox="0 0 460.8 345.6" width="460.8pt" xmlns="http://www.w3.org/2000/svg" xmlns:xlink="http://www.w3.org/1999/xlink">
 <metadata>
  <rdf:RDF xmlns:cc="http://creativecommons.org/ns#" xmlns:dc="http://purl.org/dc/elements/1.1/" xmlns:rdf="http://www.w3.org/1999/02/22-rdf-syntax-ns#">
   <cc:Work>
    <dc:type rdf:resource="http://purl.org/dc/dcmitype/StillImage"/>
    <dc:date>2021-07-07T23:53:35.983378</dc:date>
    <dc:format>image/svg+xml</dc:format>
    <dc:creator>
     <cc:Agent>
      <dc:title>Matplotlib v3.4.2, https://matplotlib.org/</dc:title>
     </cc:Agent>
    </dc:creator>
   </cc:Work>
  </rdf:RDF>
 </metadata>
 <defs>
  <style type="text/css">*{stroke-linecap:butt;stroke-linejoin:round;}</style>
 </defs>
 <g id="figure_1">
  <g id="patch_1">
   <path d="M 0 345.6 
L 460.8 345.6 
L 460.8 0 
L 0 0 
z
" style="fill:#ffffff;"/>
  </g>
  <g id="axes_1">
   <g id="patch_2">
    <path d="M 57.6 307.584 
L 414.72 307.584 
L 414.72 41.472 
L 57.6 41.472 
z
" style="fill:#ffffff;"/>
   </g>
   <g id="matplotlib.axis_1">
    <g id="xtick_1">
     <g id="line2d_1">
      <defs>
       <path d="M 0 0 
L 0 3.5 
" id="mf5e44f5262" style="stroke:#000000;stroke-width:0.8;"/>
      </defs>
      <g>
       <use style="stroke:#000000;stroke-width:0.8;" x="73.832727" xlink:href="#mf5e44f5262" y="307.584"/>
      </g>
     </g>
     <g id="text_1">
      <!-- 0 -->
      <g transform="translate(70.651477 322.182437)scale(0.1 -0.1)">
       <defs>
        <path d="M 2034 4250 
Q 1547 4250 1301 3770 
Q 1056 3291 1056 2328 
Q 1056 1369 1301 889 
Q 1547 409 2034 409 
Q 2525 409 2770 889 
Q 3016 1369 3016 2328 
Q 3016 3291 2770 3770 
Q 2525 4250 2034 4250 
z
M 2034 4750 
Q 2819 4750 3233 4129 
Q 3647 3509 3647 2328 
Q 3647 1150 3233 529 
Q 2819 -91 2034 -91 
Q 1250 -91 836 529 
Q 422 1150 422 2328 
Q 422 3509 836 4129 
Q 1250 4750 2034 4750 
z
" id="DejaVuSans-30" transform="scale(0.015625)"/>
       </defs>
       <use xlink:href="#DejaVuSans-30"/>
      </g>
     </g>
    </g>
    <g id="xtick_2">
     <g id="line2d_2">
      <g>
       <use style="stroke:#000000;stroke-width:0.8;" x="125.365195" xlink:href="#mf5e44f5262" y="307.584"/>
      </g>
     </g>
     <g id="text_2">
      <!-- 20 -->
      <g transform="translate(119.002695 322.182437)scale(0.1 -0.1)">
       <defs>
        <path d="M 1228 531 
L 3431 531 
L 3431 0 
L 469 0 
L 469 531 
Q 828 903 1448 1529 
Q 2069 2156 2228 2338 
Q 2531 2678 2651 2914 
Q 2772 3150 2772 3378 
Q 2772 3750 2511 3984 
Q 2250 4219 1831 4219 
Q 1534 4219 1204 4116 
Q 875 4013 500 3803 
L 500 4441 
Q 881 4594 1212 4672 
Q 1544 4750 1819 4750 
Q 2544 4750 2975 4387 
Q 3406 4025 3406 3419 
Q 3406 3131 3298 2873 
Q 3191 2616 2906 2266 
Q 2828 2175 2409 1742 
Q 1991 1309 1228 531 
z
" id="DejaVuSans-32" transform="scale(0.015625)"/>
       </defs>
       <use xlink:href="#DejaVuSans-32"/>
       <use x="63.623047" xlink:href="#DejaVuSans-30"/>
      </g>
     </g>
    </g>
    <g id="xtick_3">
     <g id="line2d_3">
      <g>
       <use style="stroke:#000000;stroke-width:0.8;" x="176.897662" xlink:href="#mf5e44f5262" y="307.584"/>
      </g>
     </g>
     <g id="text_3">
      <!-- 40 -->
      <g transform="translate(170.535162 322.182437)scale(0.1 -0.1)">
       <defs>
        <path d="M 2419 4116 
L 825 1625 
L 2419 1625 
L 2419 4116 
z
M 2253 4666 
L 3047 4666 
L 3047 1625 
L 3713 1625 
L 3713 1100 
L 3047 1100 
L 3047 0 
L 2419 0 
L 2419 1100 
L 313 1100 
L 313 1709 
L 2253 4666 
z
" id="DejaVuSans-34" transform="scale(0.015625)"/>
       </defs>
       <use xlink:href="#DejaVuSans-34"/>
       <use x="63.623047" xlink:href="#DejaVuSans-30"/>
      </g>
     </g>
    </g>
    <g id="xtick_4">
     <g id="line2d_4">
      <g>
       <use style="stroke:#000000;stroke-width:0.8;" x="228.43013" xlink:href="#mf5e44f5262" y="307.584"/>
      </g>
     </g>
     <g id="text_4">
      <!-- 60 -->
      <g transform="translate(222.06763 322.182437)scale(0.1 -0.1)">
       <defs>
        <path d="M 2113 2584 
Q 1688 2584 1439 2293 
Q 1191 2003 1191 1497 
Q 1191 994 1439 701 
Q 1688 409 2113 409 
Q 2538 409 2786 701 
Q 3034 994 3034 1497 
Q 3034 2003 2786 2293 
Q 2538 2584 2113 2584 
z
M 3366 4563 
L 3366 3988 
Q 3128 4100 2886 4159 
Q 2644 4219 2406 4219 
Q 1781 4219 1451 3797 
Q 1122 3375 1075 2522 
Q 1259 2794 1537 2939 
Q 1816 3084 2150 3084 
Q 2853 3084 3261 2657 
Q 3669 2231 3669 1497 
Q 3669 778 3244 343 
Q 2819 -91 2113 -91 
Q 1303 -91 875 529 
Q 447 1150 447 2328 
Q 447 3434 972 4092 
Q 1497 4750 2381 4750 
Q 2619 4750 2861 4703 
Q 3103 4656 3366 4563 
z
" id="DejaVuSans-36" transform="scale(0.015625)"/>
       </defs>
       <use xlink:href="#DejaVuSans-36"/>
       <use x="63.623047" xlink:href="#DejaVuSans-30"/>
      </g>
     </g>
    </g>
    <g id="xtick_5">
     <g id="line2d_5">
      <g>
       <use style="stroke:#000000;stroke-width:0.8;" x="279.962597" xlink:href="#mf5e44f5262" y="307.584"/>
      </g>
     </g>
     <g id="text_5">
      <!-- 80 -->
      <g transform="translate(273.600097 322.182437)scale(0.1 -0.1)">
       <defs>
        <path d="M 2034 2216 
Q 1584 2216 1326 1975 
Q 1069 1734 1069 1313 
Q 1069 891 1326 650 
Q 1584 409 2034 409 
Q 2484 409 2743 651 
Q 3003 894 3003 1313 
Q 3003 1734 2745 1975 
Q 2488 2216 2034 2216 
z
M 1403 2484 
Q 997 2584 770 2862 
Q 544 3141 544 3541 
Q 544 4100 942 4425 
Q 1341 4750 2034 4750 
Q 2731 4750 3128 4425 
Q 3525 4100 3525 3541 
Q 3525 3141 3298 2862 
Q 3072 2584 2669 2484 
Q 3125 2378 3379 2068 
Q 3634 1759 3634 1313 
Q 3634 634 3220 271 
Q 2806 -91 2034 -91 
Q 1263 -91 848 271 
Q 434 634 434 1313 
Q 434 1759 690 2068 
Q 947 2378 1403 2484 
z
M 1172 3481 
Q 1172 3119 1398 2916 
Q 1625 2713 2034 2713 
Q 2441 2713 2670 2916 
Q 2900 3119 2900 3481 
Q 2900 3844 2670 4047 
Q 2441 4250 2034 4250 
Q 1625 4250 1398 4047 
Q 1172 3844 1172 3481 
z
" id="DejaVuSans-38" transform="scale(0.015625)"/>
       </defs>
       <use xlink:href="#DejaVuSans-38"/>
       <use x="63.623047" xlink:href="#DejaVuSans-30"/>
      </g>
     </g>
    </g>
    <g id="xtick_6">
     <g id="line2d_6">
      <g>
       <use style="stroke:#000000;stroke-width:0.8;" x="331.495065" xlink:href="#mf5e44f5262" y="307.584"/>
      </g>
     </g>
     <g id="text_6">
      <!-- 100 -->
      <g transform="translate(321.951315 322.182437)scale(0.1 -0.1)">
       <defs>
        <path d="M 794 531 
L 1825 531 
L 1825 4091 
L 703 3866 
L 703 4441 
L 1819 4666 
L 2450 4666 
L 2450 531 
L 3481 531 
L 3481 0 
L 794 0 
L 794 531 
z
" id="DejaVuSans-31" transform="scale(0.015625)"/>
       </defs>
       <use xlink:href="#DejaVuSans-31"/>
       <use x="63.623047" xlink:href="#DejaVuSans-30"/>
       <use x="127.246094" xlink:href="#DejaVuSans-30"/>
      </g>
     </g>
    </g>
    <g id="xtick_7">
     <g id="line2d_7">
      <g>
       <use style="stroke:#000000;stroke-width:0.8;" x="383.027532" xlink:href="#mf5e44f5262" y="307.584"/>
      </g>
     </g>
     <g id="text_7">
      <!-- 120 -->
      <g transform="translate(373.483782 322.182437)scale(0.1 -0.1)">
       <use xlink:href="#DejaVuSans-31"/>
       <use x="63.623047" xlink:href="#DejaVuSans-32"/>
       <use x="127.246094" xlink:href="#DejaVuSans-30"/>
      </g>
     </g>
    </g>
    <g id="text_8">
     <!-- Epoch -->
     <g transform="translate(220.849063 335.860562)scale(0.1 -0.1)">
      <defs>
       <path d="M 628 4666 
L 3578 4666 
L 3578 4134 
L 1259 4134 
L 1259 2753 
L 3481 2753 
L 3481 2222 
L 1259 2222 
L 1259 531 
L 3634 531 
L 3634 0 
L 628 0 
L 628 4666 
z
" id="DejaVuSans-45" transform="scale(0.015625)"/>
       <path d="M 1159 525 
L 1159 -1331 
L 581 -1331 
L 581 3500 
L 1159 3500 
L 1159 2969 
Q 1341 3281 1617 3432 
Q 1894 3584 2278 3584 
Q 2916 3584 3314 3078 
Q 3713 2572 3713 1747 
Q 3713 922 3314 415 
Q 2916 -91 2278 -91 
Q 1894 -91 1617 61 
Q 1341 213 1159 525 
z
M 3116 1747 
Q 3116 2381 2855 2742 
Q 2594 3103 2138 3103 
Q 1681 3103 1420 2742 
Q 1159 2381 1159 1747 
Q 1159 1113 1420 752 
Q 1681 391 2138 391 
Q 2594 391 2855 752 
Q 3116 1113 3116 1747 
z
" id="DejaVuSans-70" transform="scale(0.015625)"/>
       <path d="M 1959 3097 
Q 1497 3097 1228 2736 
Q 959 2375 959 1747 
Q 959 1119 1226 758 
Q 1494 397 1959 397 
Q 2419 397 2687 759 
Q 2956 1122 2956 1747 
Q 2956 2369 2687 2733 
Q 2419 3097 1959 3097 
z
M 1959 3584 
Q 2709 3584 3137 3096 
Q 3566 2609 3566 1747 
Q 3566 888 3137 398 
Q 2709 -91 1959 -91 
Q 1206 -91 779 398 
Q 353 888 353 1747 
Q 353 2609 779 3096 
Q 1206 3584 1959 3584 
z
" id="DejaVuSans-6f" transform="scale(0.015625)"/>
       <path d="M 3122 3366 
L 3122 2828 
Q 2878 2963 2633 3030 
Q 2388 3097 2138 3097 
Q 1578 3097 1268 2742 
Q 959 2388 959 1747 
Q 959 1106 1268 751 
Q 1578 397 2138 397 
Q 2388 397 2633 464 
Q 2878 531 3122 666 
L 3122 134 
Q 2881 22 2623 -34 
Q 2366 -91 2075 -91 
Q 1284 -91 818 406 
Q 353 903 353 1747 
Q 353 2603 823 3093 
Q 1294 3584 2113 3584 
Q 2378 3584 2631 3529 
Q 2884 3475 3122 3366 
z
" id="DejaVuSans-63" transform="scale(0.015625)"/>
       <path d="M 3513 2113 
L 3513 0 
L 2938 0 
L 2938 2094 
Q 2938 2591 2744 2837 
Q 2550 3084 2163 3084 
Q 1697 3084 1428 2787 
Q 1159 2491 1159 1978 
L 1159 0 
L 581 0 
L 581 4863 
L 1159 4863 
L 1159 2956 
Q 1366 3272 1645 3428 
Q 1925 3584 2291 3584 
Q 2894 3584 3203 3211 
Q 3513 2838 3513 2113 
z
" id="DejaVuSans-68" transform="scale(0.015625)"/>
      </defs>
      <use xlink:href="#DejaVuSans-45"/>
      <use x="63.183594" xlink:href="#DejaVuSans-70"/>
      <use x="126.660156" xlink:href="#DejaVuSans-6f"/>
      <use x="187.841797" xlink:href="#DejaVuSans-63"/>
      <use x="242.822266" xlink:href="#DejaVuSans-68"/>
     </g>
    </g>
   </g>
   <g id="matplotlib.axis_2">
    <g id="ytick_1">
     <g id="line2d_8">
      <defs>
       <path d="M 0 0 
L -3.5 0 
" id="m960b580f70" style="stroke:#000000;stroke-width:0.8;"/>
      </defs>
      <g>
       <use style="stroke:#000000;stroke-width:0.8;" x="57.6" xlink:href="#m960b580f70" y="295.488"/>
      </g>
     </g>
     <g id="text_9">
      <!-- 0 -->
      <g transform="translate(44.2375 299.287219)scale(0.1 -0.1)">
       <use xlink:href="#DejaVuSans-30"/>
      </g>
     </g>
    </g>
    <g id="ytick_2">
     <g id="line2d_9">
      <g>
       <use style="stroke:#000000;stroke-width:0.8;" x="57.6" xlink:href="#m960b580f70" y="260.687635"/>
      </g>
     </g>
     <g id="text_10">
      <!-- 1 -->
      <g transform="translate(44.2375 264.486854)scale(0.1 -0.1)">
       <use xlink:href="#DejaVuSans-31"/>
      </g>
     </g>
    </g>
    <g id="ytick_3">
     <g id="line2d_10">
      <g>
       <use style="stroke:#000000;stroke-width:0.8;" x="57.6" xlink:href="#m960b580f70" y="225.88727"/>
      </g>
     </g>
     <g id="text_11">
      <!-- 2 -->
      <g transform="translate(44.2375 229.686489)scale(0.1 -0.1)">
       <use xlink:href="#DejaVuSans-32"/>
      </g>
     </g>
    </g>
    <g id="ytick_4">
     <g id="line2d_11">
      <g>
       <use style="stroke:#000000;stroke-width:0.8;" x="57.6" xlink:href="#m960b580f70" y="191.086905"/>
      </g>
     </g>
     <g id="text_12">
      <!-- 3 -->
      <g transform="translate(44.2375 194.886124)scale(0.1 -0.1)">
       <defs>
        <path d="M 2597 2516 
Q 3050 2419 3304 2112 
Q 3559 1806 3559 1356 
Q 3559 666 3084 287 
Q 2609 -91 1734 -91 
Q 1441 -91 1130 -33 
Q 819 25 488 141 
L 488 750 
Q 750 597 1062 519 
Q 1375 441 1716 441 
Q 2309 441 2620 675 
Q 2931 909 2931 1356 
Q 2931 1769 2642 2001 
Q 2353 2234 1838 2234 
L 1294 2234 
L 1294 2753 
L 1863 2753 
Q 2328 2753 2575 2939 
Q 2822 3125 2822 3475 
Q 2822 3834 2567 4026 
Q 2313 4219 1838 4219 
Q 1578 4219 1281 4162 
Q 984 4106 628 3988 
L 628 4550 
Q 988 4650 1302 4700 
Q 1616 4750 1894 4750 
Q 2613 4750 3031 4423 
Q 3450 4097 3450 3541 
Q 3450 3153 3228 2886 
Q 3006 2619 2597 2516 
z
" id="DejaVuSans-33" transform="scale(0.015625)"/>
       </defs>
       <use xlink:href="#DejaVuSans-33"/>
      </g>
     </g>
    </g>
    <g id="ytick_5">
     <g id="line2d_12">
      <g>
       <use style="stroke:#000000;stroke-width:0.8;" x="57.6" xlink:href="#m960b580f70" y="156.28654"/>
      </g>
     </g>
     <g id="text_13">
      <!-- 4 -->
      <g transform="translate(44.2375 160.085759)scale(0.1 -0.1)">
       <use xlink:href="#DejaVuSans-34"/>
      </g>
     </g>
    </g>
    <g id="ytick_6">
     <g id="line2d_13">
      <g>
       <use style="stroke:#000000;stroke-width:0.8;" x="57.6" xlink:href="#m960b580f70" y="121.486175"/>
      </g>
     </g>
     <g id="text_14">
      <!-- 5 -->
      <g transform="translate(44.2375 125.285394)scale(0.1 -0.1)">
       <defs>
        <path d="M 691 4666 
L 3169 4666 
L 3169 4134 
L 1269 4134 
L 1269 2991 
Q 1406 3038 1543 3061 
Q 1681 3084 1819 3084 
Q 2600 3084 3056 2656 
Q 3513 2228 3513 1497 
Q 3513 744 3044 326 
Q 2575 -91 1722 -91 
Q 1428 -91 1123 -41 
Q 819 9 494 109 
L 494 744 
Q 775 591 1075 516 
Q 1375 441 1709 441 
Q 2250 441 2565 725 
Q 2881 1009 2881 1497 
Q 2881 1984 2565 2268 
Q 2250 2553 1709 2553 
Q 1456 2553 1204 2497 
Q 953 2441 691 2322 
L 691 4666 
z
" id="DejaVuSans-35" transform="scale(0.015625)"/>
       </defs>
       <use xlink:href="#DejaVuSans-35"/>
      </g>
     </g>
    </g>
    <g id="ytick_7">
     <g id="line2d_14">
      <g>
       <use style="stroke:#000000;stroke-width:0.8;" x="57.6" xlink:href="#m960b580f70" y="86.68581"/>
      </g>
     </g>
     <g id="text_15">
      <!-- 6 -->
      <g transform="translate(44.2375 90.485029)scale(0.1 -0.1)">
       <use xlink:href="#DejaVuSans-36"/>
      </g>
     </g>
    </g>
    <g id="ytick_8">
     <g id="line2d_15">
      <g>
       <use style="stroke:#000000;stroke-width:0.8;" x="57.6" xlink:href="#m960b580f70" y="51.885445"/>
      </g>
     </g>
     <g id="text_16">
      <!-- 7 -->
      <g transform="translate(44.2375 55.684664)scale(0.1 -0.1)">
       <defs>
        <path d="M 525 4666 
L 3525 4666 
L 3525 4397 
L 1831 0 
L 1172 0 
L 2766 4134 
L 525 4134 
L 525 4666 
z
" id="DejaVuSans-37" transform="scale(0.015625)"/>
       </defs>
       <use xlink:href="#DejaVuSans-37"/>
      </g>
     </g>
    </g>
    <g id="text_17">
     <!-- Error -->
     <g transform="translate(38.157812 186.713156)rotate(-90)scale(0.1 -0.1)">
      <defs>
       <path d="M 2631 2963 
Q 2534 3019 2420 3045 
Q 2306 3072 2169 3072 
Q 1681 3072 1420 2755 
Q 1159 2438 1159 1844 
L 1159 0 
L 581 0 
L 581 3500 
L 1159 3500 
L 1159 2956 
Q 1341 3275 1631 3429 
Q 1922 3584 2338 3584 
Q 2397 3584 2469 3576 
Q 2541 3569 2628 3553 
L 2631 2963 
z
" id="DejaVuSans-72" transform="scale(0.015625)"/>
      </defs>
      <use xlink:href="#DejaVuSans-45"/>
      <use x="63.183594" xlink:href="#DejaVuSans-72"/>
      <use x="102.546875" xlink:href="#DejaVuSans-72"/>
      <use x="141.410156" xlink:href="#DejaVuSans-6f"/>
      <use x="202.591797" xlink:href="#DejaVuSans-72"/>
     </g>
    </g>
    <g id="text_18">
     <!-- 1e15 -->
     <g transform="translate(57.6 38.472)scale(0.1 -0.1)">
      <defs>
       <path d="M 3597 1894 
L 3597 1613 
L 953 1613 
Q 991 1019 1311 708 
Q 1631 397 2203 397 
Q 2534 397 2845 478 
Q 3156 559 3463 722 
L 3463 178 
Q 3153 47 2828 -22 
Q 2503 -91 2169 -91 
Q 1331 -91 842 396 
Q 353 884 353 1716 
Q 353 2575 817 3079 
Q 1281 3584 2069 3584 
Q 2775 3584 3186 3129 
Q 3597 2675 3597 1894 
z
M 3022 2063 
Q 3016 2534 2758 2815 
Q 2500 3097 2075 3097 
Q 1594 3097 1305 2825 
Q 1016 2553 972 2059 
L 3022 2063 
z
" id="DejaVuSans-65" transform="scale(0.015625)"/>
      </defs>
      <use xlink:href="#DejaVuSans-31"/>
      <use x="63.623047" xlink:href="#DejaVuSans-65"/>
      <use x="125.146484" xlink:href="#DejaVuSans-31"/>
      <use x="188.769531" xlink:href="#DejaVuSans-35"/>
     </g>
    </g>
   </g>
   <g id="line2d_16">
    <path clip-path="url(#p11d493211a)" d="M 73.832727 295.488 
L 76.409351 295.488 
L 78.985974 295.488 
L 81.562597 295.488 
L 84.139221 295.488 
L 86.715844 295.488 
L 89.292468 295.488 
L 91.869091 295.488 
L 94.445714 295.488 
L 97.022338 295.488 
L 99.598961 295.488 
L 102.175584 295.488 
L 104.752208 295.488 
L 107.328831 295.488 
L 109.905455 295.488 
L 112.482078 295.488 
L 115.058701 295.488 
L 117.635325 295.488 
L 120.211948 295.488 
L 122.788571 295.488 
L 125.365195 295.488 
L 127.941818 295.488 
L 130.518442 295.488 
L 133.095065 295.488 
L 135.671688 295.488 
L 138.248312 295.488 
L 140.824935 295.488 
L 143.401558 295.488 
L 145.978182 295.488 
L 148.554805 295.488 
L 151.131429 295.488 
L 153.708052 295.488 
L 156.284675 295.488 
L 158.861299 295.488 
L 161.437922 295.488 
L 164.014545 295.488 
L 166.591169 295.488 
L 169.167792 295.488 
L 171.744416 295.488 
L 174.321039 295.488 
L 176.897662 295.488 
L 179.474286 295.488 
L 182.050909 295.488 
L 184.627532 295.488 
L 187.204156 295.488 
L 189.780779 295.488 
L 192.357403 295.488 
L 194.934026 295.488 
L 197.510649 295.488 
L 200.087273 295.488 
L 202.663896 295.488 
L 205.240519 295.488 
L 207.817143 295.488 
L 210.393766 295.488 
L 212.97039 295.488 
L 215.547013 295.488 
L 218.123636 295.488 
L 220.70026 295.488 
L 223.276883 295.488 
L 225.853506 295.488 
L 228.43013 295.488 
L 231.006753 295.488 
L 233.583377 295.488 
L 236.16 295.488 
L 238.736623 295.488 
L 241.313247 295.488 
L 243.88987 295.488 
L 246.466494 295.487999 
L 249.043117 295.487998 
L 251.61974 295.487997 
L 254.196364 295.487994 
L 256.772987 295.487989 
L 259.34961 295.487978 
L 261.926234 295.487958 
L 264.502857 295.487919 
L 267.079481 295.487952 
L 269.656104 295.487951 
L 272.232727 295.48793 
L 274.809351 295.487911 
L 277.385974 295.487879 
L 279.962597 295.487836 
L 282.539221 295.487776 
L 285.115844 295.487695 
L 287.692468 295.487585 
L 290.269091 295.487435 
L 292.845714 295.487231 
L 295.422338 295.486953 
L 297.998961 295.486574 
L 300.575584 295.486058 
L 303.152208 295.485356 
L 305.728831 295.484399 
L 308.305455 295.483097 
L 310.882078 295.481323 
L 313.458701 295.478908 
L 316.035325 295.475619 
L 318.611948 295.471141 
L 321.188571 295.465042 
L 323.765195 295.456738 
L 326.341818 295.445429 
L 328.918442 295.43003 
L 331.495065 295.409061 
L 334.071688 295.380506 
L 336.648312 295.341622 
L 339.224935 295.288673 
L 341.801558 295.216569 
L 344.378182 295.118385 
L 346.954805 294.984683 
L 349.531429 294.802617 
L 352.108052 294.554693 
L 354.684675 294.217086 
L 357.261299 293.757356 
L 359.837922 293.131328 
L 362.414545 292.278845 
L 364.991169 291.117993 
L 367.567792 289.537223 
L 370.144416 287.384639 
L 372.721039 284.453397 
L 375.297662 280.461833 
L 377.874286 275.026394 
L 380.450909 267.624785 
L 383.027532 257.545781 
L 385.604156 243.820882 
L 388.180779 225.131254 
L 390.757403 199.680998 
L 393.334026 165.02458 
L 395.910649 117.831842 
L 398.487273 53.568 
" style="fill:none;stroke:#0000ff;stroke-linecap:square;stroke-width:1.5;"/>
   </g>
   <g id="line2d_17">
    <path clip-path="url(#p11d493211a)" d="M 73.832727 295.488 
L 76.409351 295.488 
L 78.985974 295.488 
L 81.562597 295.488 
L 84.139221 295.488 
L 86.715844 295.488 
L 89.292468 295.488 
L 91.869091 295.488 
L 94.445714 295.488 
L 97.022338 295.488 
L 99.598961 295.488 
L 102.175584 295.488 
L 104.752208 295.488 
L 107.328831 295.488 
L 109.905455 295.488 
L 112.482078 295.488 
L 115.058701 295.488 
L 117.635325 295.488 
L 120.211948 295.488 
L 122.788571 295.488 
L 125.365195 295.488 
L 127.941818 295.488 
L 130.518442 295.488 
L 133.095065 295.488 
L 135.671688 295.488 
L 138.248312 295.488 
L 140.824935 295.488 
L 143.401558 295.488 
L 145.978182 295.488 
L 148.554805 295.488 
L 151.131429 295.488 
L 153.708052 295.488 
L 156.284675 295.488 
L 158.861299 295.488 
L 161.437922 295.488 
L 164.014545 295.488 
L 166.591169 295.488 
L 169.167792 295.488 
L 171.744416 295.488 
L 174.321039 295.488 
L 176.897662 295.488 
L 179.474286 295.488 
L 182.050909 295.488 
L 184.627532 295.488 
L 187.204156 295.488 
L 189.780779 295.488 
L 192.357403 295.488 
L 194.934026 295.488 
L 197.510649 295.488 
L 200.087273 295.488 
L 202.663896 295.488 
L 205.240519 295.488 
L 207.817143 295.488 
L 210.393766 295.488 
L 212.97039 295.488 
L 215.547013 295.488 
L 218.123636 295.488 
L 220.70026 295.488 
L 223.276883 295.488 
L 225.853506 295.488 
L 228.43013 295.488 
L 231.006753 295.488 
L 233.583377 295.488 
L 236.16 295.488 
L 238.736623 295.488 
L 241.313247 295.488 
L 243.88987 295.488 
L 246.466494 295.487999 
L 249.043117 295.487998 
L 251.61974 295.487997 
L 254.196364 295.487994 
L 256.772987 295.487989 
L 259.34961 295.487978 
L 261.926234 295.487958 
L 264.502857 295.487919 
L 267.079481 295.487949 
L 269.656104 295.487948 
L 272.232727 295.487928 
L 274.809351 295.487909 
L 277.385974 295.48788 
L 279.962597 295.487835 
L 282.539221 295.487778 
L 285.115844 295.487696 
L 287.692468 295.487588 
L 290.269091 295.487437 
L 292.845714 295.487235 
L 295.422338 295.486957 
L 297.998961 295.486582 
L 300.575584 295.486067 
L 303.152208 295.485369 
L 305.728831 295.484417 
L 308.305455 295.483121 
L 310.882078 295.481356 
L 313.458701 295.478953 
L 316.035325 295.47568 
L 318.611948 295.471224 
L 321.188571 295.465155 
L 323.765195 295.456892 
L 326.341818 295.445638 
L 328.918442 295.430315 
L 331.495065 295.409448 
L 334.071688 295.381034 
L 336.648312 295.34234 
L 339.224935 295.289652 
L 341.801558 295.217902 
L 344.378182 295.1202 
L 346.954805 294.987154 
L 349.531429 294.805983 
L 352.108052 294.559275 
L 354.684675 294.223327 
L 357.261299 293.765854 
L 359.837922 293.1429 
L 362.414545 292.294603 
L 364.991169 291.139451 
L 367.567792 289.566443 
L 370.144416 287.42443 
L 372.721039 284.507581 
L 375.297662 280.535618 
L 377.874286 275.126868 
L 380.450909 267.761605 
L 383.027532 257.732092 
L 385.604156 244.074588 
L 388.180779 225.476733 
L 390.757403 200.151448 
L 393.334026 165.665207 
L 395.910649 118.704204 
L 398.487273 54.755922 
" style="fill:none;stroke:#ffa500;stroke-dasharray:5.55,2.4;stroke-dashoffset:0;stroke-width:1.5;"/>
   </g>
   <g id="patch_3">
    <path d="M 57.6 307.584 
L 57.6 41.472 
" style="fill:none;stroke:#000000;stroke-linecap:square;stroke-linejoin:miter;stroke-width:0.8;"/>
   </g>
   <g id="patch_4">
    <path d="M 414.72 307.584 
L 414.72 41.472 
" style="fill:none;stroke:#000000;stroke-linecap:square;stroke-linejoin:miter;stroke-width:0.8;"/>
   </g>
   <g id="patch_5">
    <path d="M 57.6 307.584 
L 414.72 307.584 
" style="fill:none;stroke:#000000;stroke-linecap:square;stroke-linejoin:miter;stroke-width:0.8;"/>
   </g>
   <g id="patch_6">
    <path d="M 57.6 41.472 
L 414.72 41.472 
" style="fill:none;stroke:#000000;stroke-linecap:square;stroke-linejoin:miter;stroke-width:0.8;"/>
   </g>
   <g id="text_19">
    <!-- Ensemble 6 (SGD): Grid Search Mean Euclidean Error -->
    <g transform="translate(76.41 35.472)scale(0.12 -0.12)">
     <defs>
      <path d="M 3513 2113 
L 3513 0 
L 2938 0 
L 2938 2094 
Q 2938 2591 2744 2837 
Q 2550 3084 2163 3084 
Q 1697 3084 1428 2787 
Q 1159 2491 1159 1978 
L 1159 0 
L 581 0 
L 581 3500 
L 1159 3500 
L 1159 2956 
Q 1366 3272 1645 3428 
Q 1925 3584 2291 3584 
Q 2894 3584 3203 3211 
Q 3513 2838 3513 2113 
z
" id="DejaVuSans-6e" transform="scale(0.015625)"/>
      <path d="M 2834 3397 
L 2834 2853 
Q 2591 2978 2328 3040 
Q 2066 3103 1784 3103 
Q 1356 3103 1142 2972 
Q 928 2841 928 2578 
Q 928 2378 1081 2264 
Q 1234 2150 1697 2047 
L 1894 2003 
Q 2506 1872 2764 1633 
Q 3022 1394 3022 966 
Q 3022 478 2636 193 
Q 2250 -91 1575 -91 
Q 1294 -91 989 -36 
Q 684 19 347 128 
L 347 722 
Q 666 556 975 473 
Q 1284 391 1588 391 
Q 1994 391 2212 530 
Q 2431 669 2431 922 
Q 2431 1156 2273 1281 
Q 2116 1406 1581 1522 
L 1381 1569 
Q 847 1681 609 1914 
Q 372 2147 372 2553 
Q 372 3047 722 3315 
Q 1072 3584 1716 3584 
Q 2034 3584 2315 3537 
Q 2597 3491 2834 3397 
z
" id="DejaVuSans-73" transform="scale(0.015625)"/>
      <path d="M 3328 2828 
Q 3544 3216 3844 3400 
Q 4144 3584 4550 3584 
Q 5097 3584 5394 3201 
Q 5691 2819 5691 2113 
L 5691 0 
L 5113 0 
L 5113 2094 
Q 5113 2597 4934 2840 
Q 4756 3084 4391 3084 
Q 3944 3084 3684 2787 
Q 3425 2491 3425 1978 
L 3425 0 
L 2847 0 
L 2847 2094 
Q 2847 2600 2669 2842 
Q 2491 3084 2119 3084 
Q 1678 3084 1418 2786 
Q 1159 2488 1159 1978 
L 1159 0 
L 581 0 
L 581 3500 
L 1159 3500 
L 1159 2956 
Q 1356 3278 1631 3431 
Q 1906 3584 2284 3584 
Q 2666 3584 2933 3390 
Q 3200 3197 3328 2828 
z
" id="DejaVuSans-6d" transform="scale(0.015625)"/>
      <path d="M 3116 1747 
Q 3116 2381 2855 2742 
Q 2594 3103 2138 3103 
Q 1681 3103 1420 2742 
Q 1159 2381 1159 1747 
Q 1159 1113 1420 752 
Q 1681 391 2138 391 
Q 2594 391 2855 752 
Q 3116 1113 3116 1747 
z
M 1159 2969 
Q 1341 3281 1617 3432 
Q 1894 3584 2278 3584 
Q 2916 3584 3314 3078 
Q 3713 2572 3713 1747 
Q 3713 922 3314 415 
Q 2916 -91 2278 -91 
Q 1894 -91 1617 61 
Q 1341 213 1159 525 
L 1159 0 
L 581 0 
L 581 4863 
L 1159 4863 
L 1159 2969 
z
" id="DejaVuSans-62" transform="scale(0.015625)"/>
      <path d="M 603 4863 
L 1178 4863 
L 1178 0 
L 603 0 
L 603 4863 
z
" id="DejaVuSans-6c" transform="scale(0.015625)"/>
      <path id="DejaVuSans-20" transform="scale(0.015625)"/>
      <path d="M 1984 4856 
Q 1566 4138 1362 3434 
Q 1159 2731 1159 2009 
Q 1159 1288 1364 580 
Q 1569 -128 1984 -844 
L 1484 -844 
Q 1016 -109 783 600 
Q 550 1309 550 2009 
Q 550 2706 781 3412 
Q 1013 4119 1484 4856 
L 1984 4856 
z
" id="DejaVuSans-28" transform="scale(0.015625)"/>
      <path d="M 3425 4513 
L 3425 3897 
Q 3066 4069 2747 4153 
Q 2428 4238 2131 4238 
Q 1616 4238 1336 4038 
Q 1056 3838 1056 3469 
Q 1056 3159 1242 3001 
Q 1428 2844 1947 2747 
L 2328 2669 
Q 3034 2534 3370 2195 
Q 3706 1856 3706 1288 
Q 3706 609 3251 259 
Q 2797 -91 1919 -91 
Q 1588 -91 1214 -16 
Q 841 59 441 206 
L 441 856 
Q 825 641 1194 531 
Q 1563 422 1919 422 
Q 2459 422 2753 634 
Q 3047 847 3047 1241 
Q 3047 1584 2836 1778 
Q 2625 1972 2144 2069 
L 1759 2144 
Q 1053 2284 737 2584 
Q 422 2884 422 3419 
Q 422 4038 858 4394 
Q 1294 4750 2059 4750 
Q 2388 4750 2728 4690 
Q 3069 4631 3425 4513 
z
" id="DejaVuSans-53" transform="scale(0.015625)"/>
      <path d="M 3809 666 
L 3809 1919 
L 2778 1919 
L 2778 2438 
L 4434 2438 
L 4434 434 
Q 4069 175 3628 42 
Q 3188 -91 2688 -91 
Q 1594 -91 976 548 
Q 359 1188 359 2328 
Q 359 3472 976 4111 
Q 1594 4750 2688 4750 
Q 3144 4750 3555 4637 
Q 3966 4525 4313 4306 
L 4313 3634 
Q 3963 3931 3569 4081 
Q 3175 4231 2741 4231 
Q 1884 4231 1454 3753 
Q 1025 3275 1025 2328 
Q 1025 1384 1454 906 
Q 1884 428 2741 428 
Q 3075 428 3337 486 
Q 3600 544 3809 666 
z
" id="DejaVuSans-47" transform="scale(0.015625)"/>
      <path d="M 1259 4147 
L 1259 519 
L 2022 519 
Q 2988 519 3436 956 
Q 3884 1394 3884 2338 
Q 3884 3275 3436 3711 
Q 2988 4147 2022 4147 
L 1259 4147 
z
M 628 4666 
L 1925 4666 
Q 3281 4666 3915 4102 
Q 4550 3538 4550 2338 
Q 4550 1131 3912 565 
Q 3275 0 1925 0 
L 628 0 
L 628 4666 
z
" id="DejaVuSans-44" transform="scale(0.015625)"/>
      <path d="M 513 4856 
L 1013 4856 
Q 1481 4119 1714 3412 
Q 1947 2706 1947 2009 
Q 1947 1309 1714 600 
Q 1481 -109 1013 -844 
L 513 -844 
Q 928 -128 1133 580 
Q 1338 1288 1338 2009 
Q 1338 2731 1133 3434 
Q 928 4138 513 4856 
z
" id="DejaVuSans-29" transform="scale(0.015625)"/>
      <path d="M 750 794 
L 1409 794 
L 1409 0 
L 750 0 
L 750 794 
z
M 750 3309 
L 1409 3309 
L 1409 2516 
L 750 2516 
L 750 3309 
z
" id="DejaVuSans-3a" transform="scale(0.015625)"/>
      <path d="M 603 3500 
L 1178 3500 
L 1178 0 
L 603 0 
L 603 3500 
z
M 603 4863 
L 1178 4863 
L 1178 4134 
L 603 4134 
L 603 4863 
z
" id="DejaVuSans-69" transform="scale(0.015625)"/>
      <path d="M 2906 2969 
L 2906 4863 
L 3481 4863 
L 3481 0 
L 2906 0 
L 2906 525 
Q 2725 213 2448 61 
Q 2172 -91 1784 -91 
Q 1150 -91 751 415 
Q 353 922 353 1747 
Q 353 2572 751 3078 
Q 1150 3584 1784 3584 
Q 2172 3584 2448 3432 
Q 2725 3281 2906 2969 
z
M 947 1747 
Q 947 1113 1208 752 
Q 1469 391 1925 391 
Q 2381 391 2643 752 
Q 2906 1113 2906 1747 
Q 2906 2381 2643 2742 
Q 2381 3103 1925 3103 
Q 1469 3103 1208 2742 
Q 947 2381 947 1747 
z
" id="DejaVuSans-64" transform="scale(0.015625)"/>
      <path d="M 2194 1759 
Q 1497 1759 1228 1600 
Q 959 1441 959 1056 
Q 959 750 1161 570 
Q 1363 391 1709 391 
Q 2188 391 2477 730 
Q 2766 1069 2766 1631 
L 2766 1759 
L 2194 1759 
z
M 3341 1997 
L 3341 0 
L 2766 0 
L 2766 531 
Q 2569 213 2275 61 
Q 1981 -91 1556 -91 
Q 1019 -91 701 211 
Q 384 513 384 1019 
Q 384 1609 779 1909 
Q 1175 2209 1959 2209 
L 2766 2209 
L 2766 2266 
Q 2766 2663 2505 2880 
Q 2244 3097 1772 3097 
Q 1472 3097 1187 3025 
Q 903 2953 641 2809 
L 641 3341 
Q 956 3463 1253 3523 
Q 1550 3584 1831 3584 
Q 2591 3584 2966 3190 
Q 3341 2797 3341 1997 
z
" id="DejaVuSans-61" transform="scale(0.015625)"/>
      <path d="M 628 4666 
L 1569 4666 
L 2759 1491 
L 3956 4666 
L 4897 4666 
L 4897 0 
L 4281 0 
L 4281 4097 
L 3078 897 
L 2444 897 
L 1241 4097 
L 1241 0 
L 628 0 
L 628 4666 
z
" id="DejaVuSans-4d" transform="scale(0.015625)"/>
      <path d="M 544 1381 
L 544 3500 
L 1119 3500 
L 1119 1403 
Q 1119 906 1312 657 
Q 1506 409 1894 409 
Q 2359 409 2629 706 
Q 2900 1003 2900 1516 
L 2900 3500 
L 3475 3500 
L 3475 0 
L 2900 0 
L 2900 538 
Q 2691 219 2414 64 
Q 2138 -91 1772 -91 
Q 1169 -91 856 284 
Q 544 659 544 1381 
z
M 1991 3584 
L 1991 3584 
z
" id="DejaVuSans-75" transform="scale(0.015625)"/>
     </defs>
     <use xlink:href="#DejaVuSans-45"/>
     <use x="63.183594" xlink:href="#DejaVuSans-6e"/>
     <use x="126.5625" xlink:href="#DejaVuSans-73"/>
     <use x="178.662109" xlink:href="#DejaVuSans-65"/>
     <use x="240.185547" xlink:href="#DejaVuSans-6d"/>
     <use x="337.597656" xlink:href="#DejaVuSans-62"/>
     <use x="401.074219" xlink:href="#DejaVuSans-6c"/>
     <use x="428.857422" xlink:href="#DejaVuSans-65"/>
     <use x="490.380859" xlink:href="#DejaVuSans-20"/>
     <use x="522.167969" xlink:href="#DejaVuSans-36"/>
     <use x="585.791016" xlink:href="#DejaVuSans-20"/>
     <use x="617.578125" xlink:href="#DejaVuSans-28"/>
     <use x="656.591797" xlink:href="#DejaVuSans-53"/>
     <use x="720.068359" xlink:href="#DejaVuSans-47"/>
     <use x="797.558594" xlink:href="#DejaVuSans-44"/>
     <use x="874.560547" xlink:href="#DejaVuSans-29"/>
     <use x="913.574219" xlink:href="#DejaVuSans-3a"/>
     <use x="947.265625" xlink:href="#DejaVuSans-20"/>
     <use x="979.052734" xlink:href="#DejaVuSans-47"/>
     <use x="1056.542969" xlink:href="#DejaVuSans-72"/>
     <use x="1097.65625" xlink:href="#DejaVuSans-69"/>
     <use x="1125.439453" xlink:href="#DejaVuSans-64"/>
     <use x="1188.916016" xlink:href="#DejaVuSans-20"/>
     <use x="1220.703125" xlink:href="#DejaVuSans-53"/>
     <use x="1284.179688" xlink:href="#DejaVuSans-65"/>
     <use x="1345.703125" xlink:href="#DejaVuSans-61"/>
     <use x="1406.982422" xlink:href="#DejaVuSans-72"/>
     <use x="1445.845703" xlink:href="#DejaVuSans-63"/>
     <use x="1500.826172" xlink:href="#DejaVuSans-68"/>
     <use x="1564.205078" xlink:href="#DejaVuSans-20"/>
     <use x="1595.992188" xlink:href="#DejaVuSans-4d"/>
     <use x="1682.271484" xlink:href="#DejaVuSans-65"/>
     <use x="1743.794922" xlink:href="#DejaVuSans-61"/>
     <use x="1805.074219" xlink:href="#DejaVuSans-6e"/>
     <use x="1868.453125" xlink:href="#DejaVuSans-20"/>
     <use x="1900.240234" xlink:href="#DejaVuSans-45"/>
     <use x="1963.423828" xlink:href="#DejaVuSans-75"/>
     <use x="2026.802734" xlink:href="#DejaVuSans-63"/>
     <use x="2081.783203" xlink:href="#DejaVuSans-6c"/>
     <use x="2109.566406" xlink:href="#DejaVuSans-69"/>
     <use x="2137.349609" xlink:href="#DejaVuSans-64"/>
     <use x="2200.826172" xlink:href="#DejaVuSans-65"/>
     <use x="2262.349609" xlink:href="#DejaVuSans-61"/>
     <use x="2323.628906" xlink:href="#DejaVuSans-6e"/>
     <use x="2387.007812" xlink:href="#DejaVuSans-20"/>
     <use x="2418.794922" xlink:href="#DejaVuSans-45"/>
     <use x="2481.978516" xlink:href="#DejaVuSans-72"/>
     <use x="2521.341797" xlink:href="#DejaVuSans-72"/>
     <use x="2560.205078" xlink:href="#DejaVuSans-6f"/>
     <use x="2621.386719" xlink:href="#DejaVuSans-72"/>
    </g>
   </g>
   <g id="legend_1">
    <g id="patch_7">
     <path d="M 64.6 78.82825 
L 173.364062 78.82825 
Q 175.364062 78.82825 175.364062 76.82825 
L 175.364062 48.472 
Q 175.364062 46.472 173.364062 46.472 
L 64.6 46.472 
Q 62.6 46.472 62.6 48.472 
L 62.6 76.82825 
Q 62.6 78.82825 64.6 78.82825 
z
" style="fill:#ffffff;opacity:0.8;stroke:#cccccc;stroke-linejoin:miter;"/>
    </g>
    <g id="line2d_18">
     <path d="M 66.6 54.570437 
L 86.6 54.570437 
" style="fill:none;stroke:#0000ff;stroke-linecap:square;stroke-width:1.5;"/>
    </g>
    <g id="line2d_19"/>
    <g id="text_20">
     <!-- Training error -->
     <g transform="translate(94.6 58.070437)scale(0.1 -0.1)">
      <defs>
       <path d="M -19 4666 
L 3928 4666 
L 3928 4134 
L 2272 4134 
L 2272 0 
L 1638 0 
L 1638 4134 
L -19 4134 
L -19 4666 
z
" id="DejaVuSans-54" transform="scale(0.015625)"/>
       <path d="M 2906 1791 
Q 2906 2416 2648 2759 
Q 2391 3103 1925 3103 
Q 1463 3103 1205 2759 
Q 947 2416 947 1791 
Q 947 1169 1205 825 
Q 1463 481 1925 481 
Q 2391 481 2648 825 
Q 2906 1169 2906 1791 
z
M 3481 434 
Q 3481 -459 3084 -895 
Q 2688 -1331 1869 -1331 
Q 1566 -1331 1297 -1286 
Q 1028 -1241 775 -1147 
L 775 -588 
Q 1028 -725 1275 -790 
Q 1522 -856 1778 -856 
Q 2344 -856 2625 -561 
Q 2906 -266 2906 331 
L 2906 616 
Q 2728 306 2450 153 
Q 2172 0 1784 0 
Q 1141 0 747 490 
Q 353 981 353 1791 
Q 353 2603 747 3093 
Q 1141 3584 1784 3584 
Q 2172 3584 2450 3431 
Q 2728 3278 2906 2969 
L 2906 3500 
L 3481 3500 
L 3481 434 
z
" id="DejaVuSans-67" transform="scale(0.015625)"/>
      </defs>
      <use xlink:href="#DejaVuSans-54"/>
      <use x="46.333984" xlink:href="#DejaVuSans-72"/>
      <use x="87.447266" xlink:href="#DejaVuSans-61"/>
      <use x="148.726562" xlink:href="#DejaVuSans-69"/>
      <use x="176.509766" xlink:href="#DejaVuSans-6e"/>
      <use x="239.888672" xlink:href="#DejaVuSans-69"/>
      <use x="267.671875" xlink:href="#DejaVuSans-6e"/>
      <use x="331.050781" xlink:href="#DejaVuSans-67"/>
      <use x="394.527344" xlink:href="#DejaVuSans-20"/>
      <use x="426.314453" xlink:href="#DejaVuSans-65"/>
      <use x="487.837891" xlink:href="#DejaVuSans-72"/>
      <use x="527.201172" xlink:href="#DejaVuSans-72"/>
      <use x="566.064453" xlink:href="#DejaVuSans-6f"/>
      <use x="627.246094" xlink:href="#DejaVuSans-72"/>
     </g>
    </g>
    <g id="line2d_20">
     <path d="M 66.6 69.248562 
L 86.6 69.248562 
" style="fill:none;stroke:#ffa500;stroke-dasharray:5.55,2.4;stroke-dashoffset:0;stroke-width:1.5;"/>
    </g>
    <g id="line2d_21"/>
    <g id="text_21">
     <!-- Validation error -->
     <g transform="translate(94.6 72.748562)scale(0.1 -0.1)">
      <defs>
       <path d="M 1831 0 
L 50 4666 
L 709 4666 
L 2188 738 
L 3669 4666 
L 4325 4666 
L 2547 0 
L 1831 0 
z
" id="DejaVuSans-56" transform="scale(0.015625)"/>
       <path d="M 1172 4494 
L 1172 3500 
L 2356 3500 
L 2356 3053 
L 1172 3053 
L 1172 1153 
Q 1172 725 1289 603 
Q 1406 481 1766 481 
L 2356 481 
L 2356 0 
L 1766 0 
Q 1100 0 847 248 
Q 594 497 594 1153 
L 594 3053 
L 172 3053 
L 172 3500 
L 594 3500 
L 594 4494 
L 1172 4494 
z
" id="DejaVuSans-74" transform="scale(0.015625)"/>
      </defs>
      <use xlink:href="#DejaVuSans-56"/>
      <use x="60.658203" xlink:href="#DejaVuSans-61"/>
      <use x="121.9375" xlink:href="#DejaVuSans-6c"/>
      <use x="149.720703" xlink:href="#DejaVuSans-69"/>
      <use x="177.503906" xlink:href="#DejaVuSans-64"/>
      <use x="240.980469" xlink:href="#DejaVuSans-61"/>
      <use x="302.259766" xlink:href="#DejaVuSans-74"/>
      <use x="341.46875" xlink:href="#DejaVuSans-69"/>
      <use x="369.251953" xlink:href="#DejaVuSans-6f"/>
      <use x="430.433594" xlink:href="#DejaVuSans-6e"/>
      <use x="493.8125" xlink:href="#DejaVuSans-20"/>
      <use x="525.599609" xlink:href="#DejaVuSans-65"/>
      <use x="587.123047" xlink:href="#DejaVuSans-72"/>
      <use x="626.486328" xlink:href="#DejaVuSans-72"/>
      <use x="665.349609" xlink:href="#DejaVuSans-6f"/>
      <use x="726.53125" xlink:href="#DejaVuSans-72"/>
     </g>
    </g>
   </g>
  </g>
 </g>
 <defs>
  <clipPath id="p11d493211a">
   <rect height="266.112" width="357.12" x="57.6" y="41.472"/>
  </clipPath>
 </defs>
</svg>
